<?xml version="1.0" encoding="UTF-8" standalone="no"?>
<!-- Created with Inkscape (http://www.inkscape.org/) -->

<svg
   xmlns:dc="http://purl.org/dc/elements/1.1/"
   xmlns:cc="http://creativecommons.org/ns#"
   xmlns:rdf="http://www.w3.org/1999/02/22-rdf-syntax-ns#"
   xmlns:svg="http://www.w3.org/2000/svg"
   xmlns="http://www.w3.org/2000/svg"
   xmlns:xlink="http://www.w3.org/1999/xlink"
   xmlns:sodipodi="http://sodipodi.sourceforge.net/DTD/sodipodi-0.dtd"
   xmlns:inkscape="http://www.inkscape.org/namespaces/inkscape"
   width="744.09448819"
   height="1052.3622047"
   id="svg4903"
   version="1.1"
   inkscape:version="0.48.4 r9939"
   sodipodi:docname="New document 8">
  <defs
     id="defs4905">
    <filter
       id="filter4250"
       color-interpolation-filters="sRGB">
      <feGaussianBlur
         id="feGaussianBlur4252"
         stdDeviation="1.5594348" />
    </filter>
    <linearGradient
       id="linearGradient4007"
       x1="-18.570999"
       gradientUnits="userSpaceOnUse"
       y1="372.35999"
       gradientTransform="matrix(0.31094,0,0,0.30983,154.81,862.83)"
       x2="58.570999"
       y2="475.22">
      <stop
         id="stop4003"
         stop-color="#060606"
         offset="0" />
      <stop
         id="stop4005"
         stop-color="#0e232e"
         offset="1" />
    </linearGradient>
    <linearGradient
       id="linearGradient3977"
       x1="-348.57001"
       gradientUnits="userSpaceOnUse"
       y1="572.35999"
       gradientTransform="matrix(0.31094,0,0,0.30983,154.81,862.83)"
       x2="-397.14001"
       y2="488.07999">
      <stop
         id="stop3973"
         stop-color="#020207"
         offset="0" />
      <stop
         id="stop3975"
         stop-color="#0e232e"
         offset="1" />
    </linearGradient>
    <linearGradient
       id="linearGradient4318"
       x1="-187.89"
       gradientUnits="userSpaceOnUse"
       y1="147.27"
       gradientTransform="matrix(0.31094,0,0,0.30983,154.81,862.83)"
       x2="-274.76001"
       y2="209.89">
      <stop
         id="stop4314"
         stop-color="#2d2d2d"
         offset="0" />
      <stop
         id="stop4316"
         stop-color="#2d2d2d"
         stop-opacity="0"
         offset="1" />
    </linearGradient>
    <linearGradient
       id="linearGradient4320"
       x1="-325.26999"
       gradientUnits="userSpaceOnUse"
       y1="258.38"
       gradientTransform="matrix(0.31094,0,0,0.30983,154.81,862.83)"
       x2="-369.72"
       y2="276.57001">
      <stop
         id="stop4324"
         stop-color="#ccc"
         offset="0" />
      <stop
         id="stop4326"
         stop-color="#fff"
         offset="1" />
    </linearGradient>
    <linearGradient
       id="linearGradient3999"
       x1="-60"
       gradientUnits="userSpaceOnUse"
       y1="462.35999"
       gradientTransform="matrix(0.31094,0,0,0.30983,154.81,862.83)"
       x2="-94.286003"
       y2="525.21997">
      <stop
         id="stop3995"
         stop-color="#243137"
         offset="0" />
      <stop
         id="stop3997"
         stop-color="#666"
         offset="1" />
    </linearGradient>
    <linearGradient
       id="linearGradient4023"
       x1="197.14"
       gradientUnits="userSpaceOnUse"
       y1="428.07999"
       gradientTransform="matrix(0.31094,0,0,0.30983,154.81,862.83)"
       x2="100"
       y2="490.92999">
      <stop
         id="stop4019"
         stop-color="#e6e7ed"
         offset="0" />
      <stop
         id="stop4021"
         stop-color="#666"
         offset="1" />
    </linearGradient>
    <linearGradient
       id="linearGradient4015"
       x1="310"
       gradientUnits="userSpaceOnUse"
       y1="372.35999"
       gradientTransform="matrix(0.31094,0,0,0.30983,154.81,862.83)"
       x2="282.85999"
       y2="346.64999">
      <stop
         id="stop4011"
         stop-color="#cfcfdd"
         offset="0" />
      <stop
         id="stop4013"
         stop-color="#999"
         offset="1" />
    </linearGradient>
    <filter
       id="filter3945"
       color-interpolation-filters="sRGB">
      <feGaussianBlur
         id="feGaussianBlur3947"
         stdDeviation="2.5632263" />
    </filter>
    <linearGradient
       inkscape:collect="always"
       xlink:href="#linearGradient4336"
       id="linearGradient4737"
       gradientUnits="userSpaceOnUse"
       gradientTransform="matrix(0.31094,0,0,0.30983,154.81,-39.53)"
       x1="-365.67999"
       y1="288.69"
       x2="-335.37"
       y2="274.54001" />
    <linearGradient
       id="linearGradient4336"
       x1="-365.67999"
       gradientUnits="userSpaceOnUse"
       y1="288.69"
       gradientTransform="matrix(0.31094,0,0,0.30983,154.81,862.83)"
       x2="-335.37"
       y2="274.54001">
      <stop
         id="stop4332"
         stop-color="#364e59"
         offset="0" />
      <stop
         id="stop4334"
         stop-color="#364e59"
         stop-opacity="0"
         offset="1" />
    </linearGradient>
    <linearGradient
       inkscape:collect="always"
       xlink:href="#linearGradient4007-3"
       id="linearGradient5166"
       gradientUnits="userSpaceOnUse"
       gradientTransform="matrix(0.31094,0,0,0.30983,154.81,-39.53)"
       x1="-18.570999"
       y1="372.35999"
       x2="58.570999"
       y2="475.22" />
    <linearGradient
       id="linearGradient4007-3"
       x1="-18.570999"
       gradientUnits="userSpaceOnUse"
       y1="372.35999"
       gradientTransform="matrix(0.31094,0,0,0.30983,154.81,862.83)"
       x2="58.570999"
       y2="475.22">
      <stop
         id="stop4003-8"
         stop-color="#060606"
         offset="0" />
      <stop
         id="stop4005-3"
         stop-color="#0e232e"
         offset="1" />
    </linearGradient>
    <linearGradient
       inkscape:collect="always"
       xlink:href="#linearGradient3977-9"
       id="linearGradient5160"
       gradientUnits="userSpaceOnUse"
       gradientTransform="matrix(0.31094,0,0,0.30983,154.81,-39.53)"
       x1="-348.57001"
       y1="572.35999"
       x2="-397.14001"
       y2="488.07999" />
    <linearGradient
       id="linearGradient3977-9"
       x1="-348.57001"
       gradientUnits="userSpaceOnUse"
       y1="572.35999"
       gradientTransform="matrix(0.31094,0,0,0.30983,154.81,862.83)"
       x2="-397.14001"
       y2="488.07999">
      <stop
         id="stop3973-6"
         stop-color="#020207"
         offset="0" />
      <stop
         id="stop3975-1"
         stop-color="#0e232e"
         offset="1" />
    </linearGradient>
    <linearGradient
       inkscape:collect="always"
       xlink:href="#linearGradient4318-0"
       id="linearGradient5156"
       gradientUnits="userSpaceOnUse"
       gradientTransform="matrix(0.31094,0,0,0.30983,154.81,-39.53)"
       x1="-187.89"
       y1="147.27"
       x2="-274.76001"
       y2="209.89" />
    <linearGradient
       id="linearGradient4318-0"
       x1="-187.89"
       gradientUnits="userSpaceOnUse"
       y1="147.27"
       gradientTransform="matrix(0.31094,0,0,0.30983,154.81,862.83)"
       x2="-274.76001"
       y2="209.89">
      <stop
         id="stop4314-3"
         stop-color="#2d2d2d"
         offset="0" />
      <stop
         id="stop4316-0"
         stop-color="#2d2d2d"
         stop-opacity="0"
         offset="1" />
    </linearGradient>
    <linearGradient
       inkscape:collect="always"
       xlink:href="#linearGradient4320-0"
       id="linearGradient5153"
       gradientUnits="userSpaceOnUse"
       gradientTransform="matrix(0.31094,0,0,0.30983,154.81,-39.53)"
       x1="-325.26999"
       y1="258.38"
       x2="-369.72"
       y2="276.57001" />
    <linearGradient
       id="linearGradient4320-0"
       x1="-325.26999"
       gradientUnits="userSpaceOnUse"
       y1="258.38"
       gradientTransform="matrix(0.31094,0,0,0.30983,154.81,862.83)"
       x2="-369.72"
       y2="276.57001">
      <stop
         id="stop4324-2"
         stop-color="#ccc"
         offset="0" />
      <stop
         id="stop4326-1"
         stop-color="#fff"
         offset="1" />
    </linearGradient>
    <linearGradient
       inkscape:collect="always"
       xlink:href="#linearGradient3999-6"
       id="linearGradient5143"
       gradientUnits="userSpaceOnUse"
       gradientTransform="matrix(0.31094,0,0,0.30983,154.81,-39.53)"
       x1="-60"
       y1="462.35999"
       x2="-94.286003"
       y2="525.21997" />
    <linearGradient
       id="linearGradient3999-6"
       x1="-60"
       gradientUnits="userSpaceOnUse"
       y1="462.35999"
       gradientTransform="matrix(0.31094,0,0,0.30983,154.81,862.83)"
       x2="-94.286003"
       y2="525.21997">
      <stop
         id="stop3995-5"
         stop-color="#243137"
         offset="0" />
      <stop
         id="stop3997-5"
         stop-color="#666"
         offset="1" />
    </linearGradient>
    <linearGradient
       inkscape:collect="always"
       xlink:href="#linearGradient4023-2"
       id="linearGradient5140"
       gradientUnits="userSpaceOnUse"
       gradientTransform="matrix(0.31094,0,0,0.30983,154.81,-39.53)"
       x1="197.14"
       y1="428.07999"
       x2="100"
       y2="490.92999" />
    <linearGradient
       id="linearGradient4023-2"
       x1="197.14"
       gradientUnits="userSpaceOnUse"
       y1="428.07999"
       gradientTransform="matrix(0.31094,0,0,0.30983,154.81,862.83)"
       x2="100"
       y2="490.92999">
      <stop
         id="stop4019-9"
         stop-color="#e6e7ed"
         offset="0" />
      <stop
         id="stop4021-8"
         stop-color="#666"
         offset="1" />
    </linearGradient>
    <linearGradient
       inkscape:collect="always"
       xlink:href="#linearGradient4015-5"
       id="linearGradient5137"
       gradientUnits="userSpaceOnUse"
       gradientTransform="matrix(0.31094,0,0,0.30983,154.81,-39.53)"
       x1="310"
       y1="372.35999"
       x2="282.85999"
       y2="346.64999" />
    <linearGradient
       id="linearGradient4015-5"
       x1="310"
       gradientUnits="userSpaceOnUse"
       y1="372.35999"
       gradientTransform="matrix(0.31094,0,0,0.30983,154.81,862.83)"
       x2="282.85999"
       y2="346.64999">
      <stop
         id="stop4011-0"
         stop-color="#cfcfdd"
         offset="0" />
      <stop
         id="stop4013-1"
         stop-color="#999"
         offset="1" />
    </linearGradient>
    <filter
       id="filter3945-1"
       color-interpolation-filters="sRGB">
      <feGaussianBlur
         id="feGaussianBlur3947-2"
         stdDeviation="2.5632263" />
    </filter>
    <linearGradient
       inkscape:collect="always"
       xlink:href="#linearGradient4336-4"
       id="linearGradient5124"
       gradientUnits="userSpaceOnUse"
       gradientTransform="matrix(0.31094,0,0,0.30983,154.81,-39.53)"
       x1="-365.67999"
       y1="288.69"
       x2="-335.37"
       y2="274.54001" />
    <linearGradient
       id="linearGradient4336-4"
       x1="-365.67999"
       gradientUnits="userSpaceOnUse"
       y1="288.69"
       gradientTransform="matrix(0.31094,0,0,0.30983,154.81,862.83)"
       x2="-335.37"
       y2="274.54001">
      <stop
         id="stop4332-0"
         stop-color="#364e59"
         offset="0" />
      <stop
         id="stop4334-4"
         stop-color="#364e59"
         stop-opacity="0"
         offset="1" />
    </linearGradient>
    <linearGradient
       y2="274.54001"
       x2="-335.37"
       y1="288.69"
       x1="-365.67999"
       gradientTransform="matrix(0.31094,0,0,0.30983,154.81,-39.53)"
       gradientUnits="userSpaceOnUse"
       id="linearGradient5283"
       xlink:href="#linearGradient4336-4"
       inkscape:collect="always" />
    <linearGradient
       inkscape:collect="always"
       xlink:href="#linearGradient4007"
       id="linearGradient5456"
       gradientUnits="userSpaceOnUse"
       gradientTransform="matrix(0.31094,0,0,0.30983,372.70864,421.20542)"
       x1="-18.570999"
       y1="372.35999"
       x2="58.570999"
       y2="475.22" />
    <linearGradient
       inkscape:collect="always"
       xlink:href="#linearGradient4318"
       id="linearGradient5458"
       gradientUnits="userSpaceOnUse"
       gradientTransform="matrix(0.31094,0,0,0.30983,372.70864,421.20542)"
       x1="-187.89"
       y1="147.27"
       x2="-274.76001"
       y2="209.89" />
    <linearGradient
       inkscape:collect="always"
       xlink:href="#linearGradient4320"
       id="linearGradient5460"
       gradientUnits="userSpaceOnUse"
       gradientTransform="matrix(0.31094,0,0,0.30983,372.70864,421.20542)"
       x1="-325.26999"
       y1="258.38"
       x2="-369.72"
       y2="276.57001" />
    <linearGradient
       inkscape:collect="always"
       xlink:href="#linearGradient3999"
       id="linearGradient5462"
       gradientUnits="userSpaceOnUse"
       gradientTransform="matrix(0.31094,0,0,0.30983,372.70864,421.20542)"
       x1="-60"
       y1="462.35999"
       x2="-94.286003"
       y2="525.21997" />
    <linearGradient
       inkscape:collect="always"
       xlink:href="#linearGradient4023"
       id="linearGradient5464"
       gradientUnits="userSpaceOnUse"
       gradientTransform="matrix(0.31094,0,0,0.30983,372.70864,421.20542)"
       x1="197.14"
       y1="428.07999"
       x2="100"
       y2="490.92999" />
    <linearGradient
       inkscape:collect="always"
       xlink:href="#linearGradient4015"
       id="linearGradient5466"
       gradientUnits="userSpaceOnUse"
       gradientTransform="matrix(0.31094,0,0,0.30983,372.70864,421.20542)"
       x1="310"
       y1="372.35999"
       x2="282.85999"
       y2="346.64999" />
    <linearGradient
       inkscape:collect="always"
       xlink:href="#linearGradient4336"
       id="linearGradient5468"
       gradientUnits="userSpaceOnUse"
       gradientTransform="matrix(0.31094,0,0,0.30983,372.70864,421.20542)"
       x1="-365.67999"
       y1="288.69"
       x2="-335.37"
       y2="274.54001" />
    <linearGradient
       inkscape:collect="always"
       xlink:href="#linearGradient4007"
       id="linearGradient6070"
       gradientUnits="userSpaceOnUse"
       gradientTransform="matrix(0.31094,0,0,0.30983,372.70864,421.20542)"
       x1="-18.570999"
       y1="372.35999"
       x2="58.570999"
       y2="475.22" />
    <linearGradient
       inkscape:collect="always"
       xlink:href="#linearGradient4318"
       id="linearGradient6072"
       gradientUnits="userSpaceOnUse"
       gradientTransform="matrix(0.31094,0,0,0.30983,372.70864,421.20542)"
       x1="-187.89"
       y1="147.27"
       x2="-274.76001"
       y2="209.89" />
    <linearGradient
       inkscape:collect="always"
       xlink:href="#linearGradient4320"
       id="linearGradient6074"
       gradientUnits="userSpaceOnUse"
       gradientTransform="matrix(0.31094,0,0,0.30983,372.70864,421.20542)"
       x1="-325.26999"
       y1="258.38"
       x2="-369.72"
       y2="276.57001" />
    <linearGradient
       inkscape:collect="always"
       xlink:href="#linearGradient3999"
       id="linearGradient6076"
       gradientUnits="userSpaceOnUse"
       gradientTransform="matrix(0.31094,0,0,0.30983,372.70864,421.20542)"
       x1="-60"
       y1="462.35999"
       x2="-94.286003"
       y2="525.21997" />
    <linearGradient
       inkscape:collect="always"
       xlink:href="#linearGradient4023"
       id="linearGradient6078"
       gradientUnits="userSpaceOnUse"
       gradientTransform="matrix(0.31094,0,0,0.30983,372.70864,421.20542)"
       x1="197.14"
       y1="428.07999"
       x2="100"
       y2="490.92999" />
    <linearGradient
       inkscape:collect="always"
       xlink:href="#linearGradient4015"
       id="linearGradient6080"
       gradientUnits="userSpaceOnUse"
       gradientTransform="matrix(0.31094,0,0,0.30983,372.70864,421.20542)"
       x1="310"
       y1="372.35999"
       x2="282.85999"
       y2="346.64999" />
    <linearGradient
       inkscape:collect="always"
       xlink:href="#linearGradient4336"
       id="linearGradient6082"
       gradientUnits="userSpaceOnUse"
       gradientTransform="matrix(0.31094,0,0,0.30983,372.70864,421.20542)"
       x1="-365.67999"
       y1="288.69"
       x2="-335.37"
       y2="274.54001" />
    <linearGradient
       inkscape:collect="always"
       xlink:href="#linearGradient4007-3"
       id="linearGradient6084"
       gradientUnits="userSpaceOnUse"
       gradientTransform="matrix(0.31094,0,0,0.30983,154.81,-39.53)"
       x1="-18.570999"
       y1="372.35999"
       x2="58.570999"
       y2="475.22" />
    <linearGradient
       inkscape:collect="always"
       xlink:href="#linearGradient3977-9"
       id="linearGradient6086"
       gradientUnits="userSpaceOnUse"
       gradientTransform="matrix(0.31094,0,0,0.30983,154.81,-39.53)"
       x1="-348.57001"
       y1="572.35999"
       x2="-397.14001"
       y2="488.07999" />
    <linearGradient
       inkscape:collect="always"
       xlink:href="#linearGradient4318-0"
       id="linearGradient6088"
       gradientUnits="userSpaceOnUse"
       gradientTransform="matrix(0.31094,0,0,0.30983,154.81,-39.53)"
       x1="-187.89"
       y1="147.27"
       x2="-274.76001"
       y2="209.89" />
    <linearGradient
       inkscape:collect="always"
       xlink:href="#linearGradient4320-0"
       id="linearGradient6090"
       gradientUnits="userSpaceOnUse"
       gradientTransform="matrix(0.31094,0,0,0.30983,154.81,-39.53)"
       x1="-325.26999"
       y1="258.38"
       x2="-369.72"
       y2="276.57001" />
    <linearGradient
       inkscape:collect="always"
       xlink:href="#linearGradient3999-6"
       id="linearGradient6092"
       gradientUnits="userSpaceOnUse"
       gradientTransform="matrix(0.31094,0,0,0.30983,154.81,-39.53)"
       x1="-60"
       y1="462.35999"
       x2="-94.286003"
       y2="525.21997" />
    <linearGradient
       inkscape:collect="always"
       xlink:href="#linearGradient4023-2"
       id="linearGradient6094"
       gradientUnits="userSpaceOnUse"
       gradientTransform="matrix(0.31094,0,0,0.30983,154.81,-39.53)"
       x1="197.14"
       y1="428.07999"
       x2="100"
       y2="490.92999" />
    <linearGradient
       inkscape:collect="always"
       xlink:href="#linearGradient4015-5"
       id="linearGradient6096"
       gradientUnits="userSpaceOnUse"
       gradientTransform="matrix(0.31094,0,0,0.30983,154.81,-39.53)"
       x1="310"
       y1="372.35999"
       x2="282.85999"
       y2="346.64999" />
    <linearGradient
       inkscape:collect="always"
       xlink:href="#linearGradient4336-4"
       id="linearGradient6098"
       gradientUnits="userSpaceOnUse"
       gradientTransform="matrix(0.31094,0,0,0.30983,154.81,-39.53)"
       x1="-365.67999"
       y1="288.69"
       x2="-335.37"
       y2="274.54001" />
  </defs>
  <sodipodi:namedview
     id="base"
     pagecolor="#ffffff"
     bordercolor="#666666"
     borderopacity="1.0"
     inkscape:pageopacity="0.0"
     inkscape:pageshadow="2"
     inkscape:zoom="1.4"
     inkscape:cx="588.73825"
     inkscape:cy="393.64326"
     inkscape:document-units="px"
     inkscape:current-layer="layer1"
     showgrid="false"
     inkscape:window-width="1920"
     inkscape:window-height="1055"
     inkscape:window-x="1920"
     inkscape:window-y="0"
     inkscape:window-maximized="1" />
  <metadata
     id="metadata4908">
    <rdf:RDF>
      <cc:Work
         rdf:about="">
        <dc:format>image/svg+xml</dc:format>
        <dc:type
           rdf:resource="http://purl.org/dc/dcmitype/StillImage" />
        <dc:title></dc:title>
      </cc:Work>
    </rdf:RDF>
  </metadata>
  <g
     inkscape:label="Layer 1"
     inkscape:groupmode="layer"
     id="layer1">
    <g
       id="g6001"
       transform="translate(2.8862367,0)">
      <g
         id="g5174"
         transform="translate(326.29617,612.39579)">
        <path
           style="fill:#666666;stroke:#7d7d7c;stroke-width:0.47918001;stroke-linecap:square"
           inkscape:connector-curvature="0"
           d="m 248.17,59.5 c -21.957,0 -39.753,16.982 -39.753,37.927 0,20.946 17.796,37.927 39.753,37.927 21.957,0 39.753,-16.982 39.753,-37.927 0,-20.946 -17.796,-37.927 -39.753,-37.927 z m -0.18158,11.413 c 0.0604,2.8e-4 0.12073,0 0.18158,0 6.584,0 12.63,2.1834 17.393,5.8317 -1.487,2.0759 -2.9232,5.0506 -4.284,8.11 3.1232,-1.4052 6.1549,-2.8903 8.2476,-4.3999 4.0213,4.5985 6.4421,10.515 6.4421,16.973 0,0.0426 1.9e-4,0.083 0,0.12535 -2.6106,0.13155 -5.9593,0.90115 -9.3266,1.78705 3.0955,1.5249 6.1962,2.9439 8.7177,3.5953 -1.3654,6.1609 -4.9702,11.532 -9.9676,15.3 -1.7378,-1.8417 -4.3181,-3.828 -6.9976,-5.7586 0.67662,3.1567 1.4364,6.2549 2.4145,8.5595 -3.7938,1.8517 -8.084,2.9054 -12.639,2.9054 -1.9417,0 -3.8328,-0.1926 -5.6622,-0.5539 0.40137,-2.486 0.37455,-5.7336 0.24576,-9.0193 -2.1893,2.5903 -4.277,5.2049 -5.4913,7.4515 -6.0157,-2.45 -10.929,-6.8703 -13.878,-12.405 2.4015,-1.1714 5.27,-3.4478 8.1087,-5.8422 -3.8191,-0.066 -7.5843,0 -10.203,0.6375 -0.59887,-2.1651 -0.91878,-4.438 -0.91878,-6.78275 0,-4.2387 1.0521,-8.2453 2.9059,-11.799 2.4349,1.1309 6.0933,1.9251 9.8288,2.6128 -2.2754,-2.8948 -4.6168,-5.6689 -6.7199,-7.2949 3.9726,-4.7742 9.6342,-8.208 16.121,-9.4896 0.71811,2.4532 2.2233,5.4583 3.8461,8.455 0.8186,-3.243 1.5292,-6.465 1.6346,-8.9984 z m -1.6346,8.9984 c -0.29143,1.1544 -0.57781,2.2995 -0.87606,3.4279 -4.0212,0.51791 -7.5559,2.4869 -9.9996,5.3301 -0.79048,-0.13774 -1.5775,-0.28223 -2.3718,-0.4285 0.45819,0.58296 0.90658,1.1614 1.3568,1.7454 -1.5783,2.3138 -2.4999,5.0663 -2.4999,8.0265 0,1.5801 0.26431,3.1078 0.74786,4.5358 -0.40285,0.345 -0.81185,0.6817 -1.2179,1.0242 0.54258,0.01 1.0822,0.018 1.6239,0.031 1.7138,3.9841 5.205,7.0981 9.5403,8.4654 0.0378,0.766 0.066,1.5285 0.0963,2.2993 0.52867,-0.6255 1.0499,-1.2443 1.5811,-1.8603 1.0536,0.2123 2.138,0.324 3.2584,0.324 3.0075,0 5.821,-0.8102 8.2049,-2.2052 0.86389,0.6085 1.7262,1.223 2.5961,1.8499 -0.22941,-1.0702 -0.44836,-2.1323 -0.66238,-3.1877 2.78,-2.2466 4.7216,-5.4 5.3096,-8.9775 1.1845,-0.3252 2.3865,-0.6527 3.6003,-0.972 -1.1526,-0.5678 -2.2986,-1.1368 -3.4187,-1.7035 -0.0907,-3.4376 -1.422,-6.5787 -3.5789,-9.0508 0.52835,-1.2231 1.0776,-2.4788 1.6346,-3.7311 -1.2768,0.57453 -2.5565,1.1373 -3.8033,1.6827 -2.5544,-1.9762 -5.7817,-3.2033 -9.3053,-3.3235 -0.60257,-1.0841 -1.2118,-2.1866 -1.8162,-3.3026 z"
           id="path3951-2" />
        <path
           style="fill:#364e59;stroke:#7d7d7c;stroke-width:0.47918001;stroke-linecap:square"
           inkscape:connector-curvature="0"
           d="m 61.602,73.06 c -19.333,0 -35.003,14.874 -35.003,33.22 0,18.346 15.67,33.22 35.003,33.22 19.333,0 35.003,-14.874 35.003,-33.22 0,-18.346 -15.67,-33.22 -35.003,-33.22 z m -0.15994,9.9961 c 0.05354,3.6e-4 0.10632,0 0.15994,0 5.7973,0 11.121,1.9124 15.314,5.108 -1.3093,1.8183 -2.5739,4.4237 -3.7722,7.1035 2.7501,-1.2308 5.4195,-2.5316 7.2621,-3.8539 3.5408,4.0277 5.6724,9.2101 5.6724,14.866 0,0.037 1.71e-4,0.073 0,0.11 -2.2986,0.1148 -5.2473,0.7893 -8.2123,1.5653 2.7257,1.3356 5.4558,2.5784 7.6761,3.149 -1.2022,5.3963 -4.3763,10.101 -8.7767,13.402 -1.5301,-1.6131 -3.8021,-3.3529 -6.1615,-5.0439 0.59579,2.7648 1.2649,5.4786 2.126,7.4971 -3.3405,1.6218 -7.1181,2.5449 -11.128,2.5449 -1.7097,0 -3.3749,-0.1688 -4.9857,-0.4852 0.3534,-2.1774 0.32978,-5.022 0.21638,-7.8998 -1.9277,2.2688 -3.7659,4.5589 -4.8351,6.5267 -5.2969,-2.1461 -9.6236,-6.0177 -12.22,-10.866 2.1146,-1.026 4.6403,-3.0199 7.1399,-5.1171 -3.3628,-0.058 -6.6781,0 -8.9836,0.5584 -0.52729,-1.8965 -0.80901,-3.8872 -0.80901,-5.9409 0,-3.7127 0.9264,-7.222 2.5587,-10.335 2.144,0.99041 5.3652,1.6861 8.6544,2.2885 -2.0035,-2.5356 -4.0652,-4.9654 -5.9169,-6.3895 3.4979,-4.1817 8.483,-7.1893 14.195,-8.3118 0.63228,2.1487 1.9576,4.7808 3.3865,7.4055 0.72077,-2.8404 1.3465,-5.6625 1.4392,-7.8816 z m -1.4392,7.8816 c -0.25665,1.0112 -0.50878,2.014 -0.77139,3.0026 -3.5407,0.45361 -6.6531,2.1782 -8.8049,4.6685 -0.69599,-0.121 -1.389,-0.2473 -2.0884,-0.3754 0.40345,0.5106 0.79828,1.0173 1.1947,1.5288 -1.3897,2.0266 -2.2012,4.4375 -2.2012,7.0303 0,1.384 0.23272,2.7221 0.6585,3.9728 -0.35472,0.3022 -0.71485,0.5971 -1.0724,0.8971 0.47773,0.01 0.95288,0.016 1.4298,0.028 1.509,3.4897 4.5831,6.2172 8.4004,7.4148 0.03314,0.6708 0.05802,1.3386 0.08464,2.0139 0.4655,-0.5479 0.92448,-1.0899 1.3922,-1.6294 0.92771,0.1859 1.8826,0.2837 2.8691,0.2837 2.6481,0 5.1255,-0.7096 7.2245,-1.9315 0.76065,0.5331 1.5199,1.0713 2.2859,1.6203 -0.20198,-0.9374 -0.39475,-1.8676 -0.58319,-2.792 2.4479,-1.9678 4.1574,-4.7298 4.6752,-7.8633 1.0429,-0.2848 2.1013,-0.5716 3.1701,-0.8513 -1.0148,-0.4973 -2.0239,-0.9957 -3.0102,-1.4921 -0.07977,-3.0109 -1.2521,-5.7622 -3.1513,-7.9273 0.46522,-1.0714 0.94881,-2.1712 1.4393,-3.2681 -1.1243,0.50322 -2.251,0.99605 -3.3489,1.4739 -2.2492,-1.7308 -5.0909,-2.8057 -8.1934,-2.911 -0.53059,-0.94958 -1.0671,-1.9152 -1.5992,-2.8927 z"
           id="path3949" />
        <path
           style="fill:#151d21;stroke:#7d7d7c;stroke-width:0.47918001;stroke-linecap:square"
           inkscape:connector-curvature="0"
           d="m 248.17,57.43 c -23.158,0 -41.928,17.675 -41.928,39.477 0,21.801 18.77,39.477 41.928,39.477 23.158,0 41.928,-17.675 41.928,-39.477 0,-21.802 -18.77,-39.477 -41.928,-39.477 z m -0.19155,11.879 c 0.064,3.1e-4 0.12737,0 0.19155,0 6.9443,0 13.321,2.2726 18.344,6.07 -1.5684,2.1607 -3.0832,5.2569 -4.5185,8.4414 3.2942,-1.4627 6.4918,-3.0085 8.6989,-4.5798 4.2413,4.7864 6.7946,10.945 6.7946,17.666 0,0.0442 2.1e-4,0.0863 0,0.13049 -2.7534,0.13694 -6.2854,0.93801 -9.837,1.86021 3.2649,1.5871 6.5353,3.064 9.1948,3.742 -1.4401,6.4127 -5.2421,12.004 -10.513,15.926 -1.8328,-1.9169 -4.5543,-3.9844 -7.3805,-5.9939 0.71365,3.2856 1.5151,6.5104 2.5466,8.9092 -4.0013,1.9272 -8.5264,3.0241 -13.33,3.0241 -2.048,0 -4.0425,-0.2004 -5.972,-0.5765 0.42332,-2.5876 0.39502,-5.9679 0.25914,-9.3879 -2.3091,2.6963 -4.5109,5.4177 -5.7918,7.7562 -6.3448,-2.5503 -11.528,-7.1511 -14.637,-12.912 2.5329,-1.2193 5.5584,-3.5887 8.5524,-6.0809 -4.0281,-0.068 -7.9993,0 -10.761,0.6636 -0.63162,-2.2536 -0.96908,-4.6193 -0.96908,-7.05991 0,-4.4118 1.1097,-8.5822 3.0649,-12.281 2.5681,1.1769 6.4267,2.0037 10.367,2.7195 -2.3999,-3.0131 -4.8695,-5.9005 -7.0876,-7.5929 4.1899,-4.9692 10.161,-8.5434 17.003,-9.8774 0.75733,2.5535 2.3449,5.6813 4.0565,8.8005 0.86342,-3.3754 1.6129,-6.7291 1.724,-9.3661 z m -1.724,9.3661 c -0.30735,1.2016 -0.60939,2.3933 -0.92399,3.568 -4.2412,0.53897 -7.9693,2.5884 -10.547,5.5478 -0.83369,-0.14337 -1.6637,-0.29376 -2.5015,-0.44601 0.48324,0.60677 0.95619,1.2088 1.431,1.8167 -1.6647,2.4082 -2.6367,5.2733 -2.6367,8.3544 0,1.64471 0.27878,3.23481 0.78876,4.72111 -0.42486,0.3592 -0.85624,0.7096 -1.2845,1.0661 0.57227,0.01 1.1414,0.019 1.7127,0.032 1.8076,4.1469 5.4898,7.3881 10.062,8.8113 0.0397,0.7972 0.0696,1.5909 0.10139,2.3932 0.55764,-0.6511 1.1074,-1.2951 1.6677,-1.9363 1.1113,0.221 2.255,0.3372 3.4368,0.3372 3.172,0 6.1395,-0.8433 8.6538,-2.2952 0.91119,0.6333 1.8206,1.273 2.7381,1.9254 -0.24192,-1.1139 -0.47288,-2.2194 -0.69864,-3.3179 2.9322,-2.3384 4.98,-5.6206 5.6002,-9.3443 1.2492,-0.3386 2.517,-0.6793 3.7973,-1.0117 -1.2156,-0.5909 -2.4244,-1.1832 -3.6058,-1.77311 -0.0955,-3.5781 -1.4998,-6.8474 -3.7748,-9.4206 0.55726,-1.2731 1.1365,-2.58 1.724,-3.8835 -1.3467,0.59794 -2.6964,1.1837 -4.0114,1.7514 -2.6942,-2.0568 -6.0981,-3.3341 -9.8145,-3.4592 -0.63554,-1.1284 -1.2782,-2.276 -1.9156,-3.4375 z"
           id="path3167-4" />
        <path
           inkscape:connector-curvature="0"
           style="fill:url(#linearGradient6084);stroke:#000000;stroke-width:0.47918001"
           d="m 170.36,114.14 c -1.2564,-0.313 -13.623,-2.7946 -13.623,-2.7946 l -27.21,-16.221 17.742,-25.45 31.096,8.7635 5.0256,-1.5649 0.62821,13.771 -8.4808,9.0763 c 0,0 14.449,5.0077 12.564,5.6337 -1.8846,0.626 -17.742,8.7857 -17.742,8.7857 z"
           id="path3042-2" />
        <rect
           style="fill:#dc0000;fill-opacity:1;stroke:none"
           id="rect4627-3"
           width="7.9264555"
           height="42.22086"
           x="109.37446"
           y="25.409626"
           ry="4.0313597"
           transform="matrix(0.87394076,0.48603245,-0.59132718,0.80643175,0,0)" />
        <path
           sodipodi:type="arc"
           style="fill:#000000;fill-opacity:1;stroke:none"
           id="path4678-8"
           sodipodi:cx="46.247837"
           sodipodi:cy="156.26125"
           sodipodi:rx="0.85380626"
           sodipodi:ry="0.85380626"
           d="m 47.101643,156.26125 c 0,0.47154 -0.382262,0.8538 -0.853806,0.8538 -0.471544,0 -0.853806,-0.38226 -0.853806,-0.8538 0,-0.47155 0.382262,-0.85381 0.853806,-0.85381 0.471544,0 0.853806,0.38226 0.853806,0.85381 z"
           transform="translate(14.711505,-49.359645)" />
        <path
           inkscape:connector-curvature="0"
           style="fill:url(#linearGradient6086);stroke:#7d7d7c;stroke-width:0.47918001;stroke-linecap:square"
           d="m 61.602,70.7 c -20.707,0 -37.489,15.93 -37.489,35.579 0,19.649 16.783,35.579 37.489,35.579 20.706,0 37.489,-15.93 37.489,-35.579 C 99.091,86.63 82.308,70.7 61.602,70.7 z m -0.17131,10.706 c 0.05706,2.9e-4 0.11392,0 0.17131,0 6.209,0 11.911,2.0482 16.402,5.4707 -1.4023,1.9474 -2.7568,4.7379 -4.0401,7.6081 2.9454,-1.3183 5.8044,-2.7115 7.7779,-4.1277 3.7922,4.3138 6.0752,9.8641 6.0752,15.922 0,0.039 1.91e-4,0.078 0,0.1171 -2.4618,0.1234 -5.62,0.8455 -8.7955,1.6765 2.9192,1.4304 5.8433,2.7615 8.2212,3.3727 -1.2876,5.7795 -4.6871,10.818 -9.4,14.353 -1.6388,-1.7276 -4.0722,-3.5909 -6.5991,-5.4021 0.63812,2.9613 1.3547,5.8677 2.277,8.0296 -3.5777,1.737 -7.6236,2.7256 -11.919,2.7256 -1.8312,0 -3.6146,-0.1807 -5.3398,-0.5197 0.37851,-2.3321 0.35323,-5.3785 0.23173,-8.4609 -2.0646,2.43 -4.0333,4.8827 -5.1785,6.9903 -5.6731,-2.2984 -10.307,-6.445 -13.087,-11.638 2.2648,-1.0989 4.9699,-3.2343 7.6469,-5.4805 -3.6016,-0.062 -7.1524,0 -9.6216,0.598 -0.56476,-2.031 -0.86645,-4.1632 -0.86645,-6.3629 0,-3.9762 0.9922,-7.7348 2.7404,-11.069 2.2962,1.0608 5.7462,1.806 9.269,2.4511 -2.1458,-2.7156 -4.3539,-5.318 -6.3372,-6.8433 3.7463,-4.4786 9.0855,-7.6999 15.203,-8.9022 0.6772,2.3014 2.0966,5.1204 3.627,7.9316 0.77202,-3.0422 1.4421,-6.0648 1.5415,-8.4414 z m -1.5415,8.4414 c -0.27484,1.083 -0.54486,2.157 -0.82615,3.2157 -3.7922,0.48588 -7.1256,2.3329 -9.4302,5.0002 -0.74543,-0.1292 -1.4876,-0.2648 -2.2367,-0.402 0.43211,0.5469 0.85498,1.0895 1.2795,1.6373 -1.4884,2.1705 -2.3576,4.7526 -2.3576,7.5296 0,1.4824 0.24928,2.9154 0.70528,4.255 -0.37991,0.3236 -0.76558,0.6395 -1.1486,0.9608 0.51168,0.01 1.0206,0.017 1.5314,0.03 1.6161,3.7374 4.9086,6.6586 8.997,7.9413 0.03549,0.7185 0.06214,1.4338 0.09065,2.1569 0.4986,-0.5868 0.99016,-1.1672 1.4911,-1.7451 0.99363,0.1992 2.0163,0.304 3.0729,0.304 2.8362,0 5.4895,-0.76 7.7376,-2.0687 0.81473,0.5708 1.6279,1.1474 2.4482,1.7353 -0.21633,-1.0039 -0.42282,-2.0003 -0.62464,-2.9903 2.6217,-2.1075 4.4527,-5.0657 5.0073,-8.4218 1.117,-0.3051 2.2506,-0.6121 3.3953,-0.9117 -1.0869,-0.5326 -2.1677,-1.0664 -3.224,-1.5981 -0.08548,-3.2248 -1.341,-6.1714 -3.3751,-8.4904 0.49825,-1.1474 1.0162,-2.3253 1.5415,-3.5 -1.2041,0.53882 -2.4108,1.0667 -3.5867,1.5784 -2.409,-1.8538 -5.4524,-3.005 -8.7753,-3.1177 -0.56827,-1.017 -1.1429,-2.0513 -1.7128,-3.0981 z"
           id="path3018" />
        <path
           style="fill:#dc0000;stroke:#000000;stroke-width:0.47918001"
           inkscape:connector-curvature="0"
           d="m 105.81,105.64 20.417,-8.1374 c 0,0 11.308,-14.084 12.25,-15.649 0.94231,-1.5649 10.051,-14.084 10.051,-14.084 l -5.6538,-4.0687 -34.237,-12.832 -14.135,-4.3818 -19.788,-5.3207 -6.9102,-5.9467 2.8269,-7.8244 13.82,-7.1986 9.4231,-1.8779 c 0,0 8.1666,-9.7024 6.9102,-9.7024 -1.2564,0 -25.128,14.71 -25.128,14.71 l -16.333,3.4428 -8.4808,10.015 3.4551,0.31299 -1.2564,1.8779 6.9103,2.5039 -5.3398,15.023 8.1667,3.7558 4.3974,6.2596 17.276,15.336 12.25,10.954 8.1667,4.3817 z"
           id="path2996-5" />
        <path
           inkscape:connector-curvature="0"
           style="fill:url(#linearGradient6088);stroke:#000000;stroke-width:0.47918001"
           d="M 55.601,28.86 91.104,0.241 107.019,7.5892 73.557,25.3802 z"
           id="path2998-4" />
        <path
           inkscape:connector-curvature="0"
           style="fill:url(#linearGradient6090);stroke:#000000;stroke-width:0.47918001"
           d="m 51.289,35.55 c 0,0 -12.73,10.921 -11.203,17.224 1.0853,4.481 15.309,4.1566 15.309,4.1566 l 5.4977,-14.997 z"
           id="path3000-1" />
        <path
           style="fill:#dc0000;stroke:#000000;stroke-width:0.47918001"
           inkscape:connector-curvature="0"
           d="M 74.775,66.55 C 60.51,67.54347 45.656,67.5566 35.658,75.6513 l 14.565,3.1656 3.3291,-4.3527 18.726,-0.39579 13.733,3.9572 z"
           id="path3002-4" />
        <path
           style="fill:#0e232e;stroke:#000000;stroke-width:0.47918001"
           inkscape:connector-curvature="0"
           d="m 69.374,34.9 c 0,0 13.398,-0.72485 20.103,-0.93894 6.0704,-0.19391 12.178,-0.95325 18.218,-0.31299 12.829,1.36 26.612,2.1783 37.692,8.7634 13.569,8.0638 32.667,35.993 31.41,35.367 -1.2564,-0.62596 -27.327,-8.4505 -27.327,-8.4505 l -6.5961,-5.6336 c 0,0 -31.854,-11.62 -48.058,-16.588 -6.5299,-2.0021 -19.788,-5.3207 -19.788,-5.3207 z"
           id="path3004-2" />
        <path
           style="fill:#dc0000;stroke:#000000;stroke-width:0.47918001"
           inkscape:connector-curvature="0"
           d="m 153.87,50.23 -8.1666,-7.5116 -32.038,-8.4504 c 0,0 -2.8269,-0.62598 -2.1987,-1.8779 0.6282,-1.25192 0,-2.5038 2.8269,-4.3817 2.8269,-1.8779 20.747,-6.1638 31.41,-7.8245 4.7686,-0.74271 11.406,-4.328 18.002,-1.8242 6.5961,2.5038 14.978,18.099 14.978,18.099 l -3.7692,8.1375 z"
           id="path3006-4" />
        <path
           style="fill:#0e232e;stroke:#000000;stroke-width:0.47918001"
           inkscape:connector-curvature="0"
           d="m 174.91,44.91 10.051,5.9466 19.474,-0.93895 17.904,-17.214 -2.5128,-1.5649 -6.2821,4.6946 -16.019,2.5038 -13.192,2.1909 h -7.5384 z"
           id="path3008-7" />
        <path
           style="fill:#dc0000;stroke:#000000;stroke-width:0.47918001"
           inkscape:connector-curvature="0"
           d="m 204.44,50.54 16.962,-17.214 13.192,-6.8856 22.615,-10.641 18.846,-0.31299 -18.218,15.023 -23.558,12.832 -14.763,6.8856 H 206.01 z"
           id="path3010-5" />
        <path
           style="fill:#0e232e;stroke:#000000;stroke-width:0.47918001"
           inkscape:connector-curvature="0"
           d="m 255.95,14.55 -35.798,6.8856 c 0,0 -0.32334,2.5039 -1.8938,6.2596 -1.5705,3.7558 -2.827,4.3817 0,5.6337 2.8269,1.2519 8.1666,-2.5039 8.1666,-2.5039 z"
           id="path3012-4" />
        <path
           style="fill:#2d2d2d;stroke:#000000;stroke-width:0.47918001"
           inkscape:connector-curvature="0"
           d="m 153.55,50.86 10.994,13.458 12.564,12.832 c 25.106,-6.055 36.159,-16.778 47.411,-27.435 l -37.36,0.83153 -13.506,-5.9466 z"
           id="path3014-7" />
        <path
           inkscape:connector-curvature="0"
           style="fill:url(#linearGradient6092);stroke:#000000;stroke-width:0.47918001"
           d="m 105.5,104.04 -4.7654,20.764 11.676,1.4576 3.7692,-2.8169 1.5482,2.1687 31.118,0.6482 6.282,-4.0688 1.8846,3.7558 39.608,-0.8853 -16.118,-9.7783 -19.093,9.0987 16.019,-10.328 c 0,0 -7.5384,0 -12.878,-0.939 -5.3397,-0.9389 -18.846,-10.328 -18.846,-10.328 l -15.391,-10.328 -19.183,25.061 14.471,-2.2131 -13.506,2.5038 7.5384,-16.275 z"
           id="path3020-8" />
        <path
           inkscape:connector-curvature="0"
           style="fill:url(#linearGradient6094);stroke:#000000;stroke-width:0.47918001"
           d="m 178.05,112.54 1.2564,5.6336 c 7.2397,-5.7447 30.56,-6.4882 34.237,-12.519 1.2564,-2.1909 5.968,-13.145 5.968,-13.145 6.5359,-3.8403 5.6179,-6.3491 8.1667,0 l -6.282,-9.3894 c 0,0 -5.6539,3.4428 -7.2244,5.9466 -1.5705,2.5039 -3.7692,7.8246 -3.7692,7.8246 0.18833,5.8363 -9.5515,7.7887 -19.16,10.328 z"
           id="path3022-7" />
        <path
           inkscape:connector-curvature="0"
           style="fill:url(#linearGradient6096);stroke:#000000;stroke-width:0.47918001"
           d="M 230.82,92.17 218.26,79.65 272.09,43.83 c 7.0672,2.269 12.276,3.715 10.994,11.893 z"
           id="path3024-5" />
        <path
           style="fill:#756457;stroke:#7d7d7c;stroke-width:0.47918889;stroke-linecap:square"
           inkscape:connector-curvature="0"
           d="m 166.6127,97.022182 a 10.549254,10.478607 0 1 1 -21.09799,0 10.549254,10.478607 0 1 1 21.09799,0 z"
           id="path3034-3" />
        <path
           style="fill:#2d2d2d;stroke:#7d7d7c;stroke-width:0.47917622;stroke-linecap:square"
           inkscape:connector-curvature="0"
           d="m 158.73847,100.98716 c 0.33106,-0.23826 -5.45102,0.3508 -5.07844,0.51736 0.3726,0.16656 -3.03027,-4.528547 -2.98884,-4.123727 0.0415,0.40482 2.42052,-4.879387 2.08952,-4.641031 -0.33106,0.238266 5.45102,-0.350798 5.07844,-0.517376 -0.3726,-0.166568 3.03027,4.528543 2.98885,4.123723 -0.0415,-0.40482 -2.42053,4.879391 -2.08953,4.641031 z"
           id="path3038-5" />
        <path
           style="fill:#000002;stroke:#000000;stroke-width:0.47918001"
           inkscape:connector-curvature="0"
           d="m 178.05,84.03 8.7948,10.641 14.449,3.4428 c 0,0 6.533,-10.954 10.302,-15.023 3.7692,-4.0688 13.57,-15.336 13.57,-15.336 0,0 17.768,-4.5872 15.884,-4.2742 -1.8846,0.31299 -62.999,20.549 -62.999,20.549 z"
           id="path3044-7" />
        <path
           style="fill:#0e232e;stroke:#000000;stroke-width:0.47918001"
           inkscape:connector-curvature="0"
           d="m 227.68,68.07 -24.814,-7.8244 3.4551,-2.8168 20.731,7.1986 z"
           id="path3046-4" />
        <path
           style="fill:#0e232e;stroke:#000000;stroke-width:0.47918001"
           inkscape:connector-curvature="0"
           d="M 228,67.45 C 226.7436,66.82401 208.84,54.931 208.84,54.931 l 4.7115,-3.7558 14.449,11.267 -2.8269,3.4428 1.8846,-2.5038 -1.2564,0.93893"
           id="path3048-3" />
        <path
           style="fill:none;stroke:#000000;stroke-width:0.47918001"
           inkscape:connector-curvature="0"
           d="m 196.58,98.74 -21.673,-3.7558 3.7692,-2.8168 z"
           id="path3050-4" />
        <path
           style="fill:none;stroke:#000000;stroke-width:0.47918001"
           inkscape:connector-curvature="0"
           d="m 197.53,98.14 -21.987,1.5648 0.62821,3.4428 21.359,-2.1908 z"
           id="path3052-4" />
        <path
           style="fill:#ff6600;stroke:#000000;stroke-width:1.5438;filter:url(#filter3945-1)"
           inkscape:connector-curvature="0"
           transform="matrix(0.31094,0,0,0.30983,154.81,-39.53)"
           d="m -214.29,340.93 57.143,28.571 -14.286,45.714 48.571,-54.286 -114.29,-45.714 z"
           id="path3054-6" />
        <path
           style="opacity:0.97072999;fill:#0e232e;stroke:#7d7d7c;stroke-width:0.4791716;stroke-linecap:square"
           inkscape:connector-curvature="0"
           d="m 81.31521,49.290449 a 3.7692147,4.3816159 0 1 1 -7.538427,0 3.7692147,4.3816159 0 1 1 7.538427,0 z"
           id="path4262-8" />
        <path
           style="opacity:0.75121999;fill:none;stroke:#292626;stroke-width:0.47918001"
           inkscape:connector-curvature="0"
           d="m 77.554,51.38 c 0,0 -0.62841,-5.5621 -1.5603,-8.2418 -1.2309,-3.5399 -2.0738,-7.1548 -2.0738,-7.1548"
           id="path4264-8" />
        <path
           inkscape:connector-curvature="0"
           style="opacity:0.50731997;fill:url(#linearGradient6098);stroke:#000000;stroke-width:0.47918001"
           d="m 51.289,35.55 c 0,0 -12.73,10.921 -11.203,17.224 1.0853,4.481 15.309,4.1566 15.309,4.1566 l 5.4977,-14.997 z"
           id="path4328-2" />
      </g>
      <rect
         ry="0"
         y="612.39728"
         x="350.16968"
         height="142.09599"
         width="266.46399"
         id="rect5470"
         style="fill:none;stroke:none" />
    </g>
    <g
       id="g6036"
       transform="translate(-2.8862915,0)">
      <g
         transform="translate(114.16993,1.4043765e-5)"
         id="g5424">
        <path
           style="fill:#666666;stroke:#7d7d7c;stroke-width:0.47918001;stroke-linecap:square"
           inkscape:connector-curvature="0"
           d="m 466.06864,520.23542 c -21.957,0 -39.753,16.982 -39.753,37.927 0,20.946 17.796,37.927 39.753,37.927 21.957,0 39.753,-16.982 39.753,-37.927 0,-20.946 -17.796,-37.927 -39.753,-37.927 z m -0.18158,11.413 c 0.0604,2.8e-4 0.12073,0 0.18158,0 6.584,0 12.63,2.1834 17.393,5.8317 -1.487,2.0759 -2.9232,5.0506 -4.284,8.11 3.1232,-1.4052 6.1549,-2.8903 8.2476,-4.3999 4.0213,4.5985 6.4421,10.515 6.4421,16.973 0,0.0426 1.9e-4,0.083 0,0.12535 -2.6106,0.13155 -5.9593,0.90115 -9.3266,1.78705 3.0955,1.5249 6.1962,2.9439 8.7177,3.5953 -1.3654,6.1609 -4.9702,11.532 -9.9676,15.3 -1.7378,-1.8417 -4.3181,-3.828 -6.9976,-5.7586 0.67662,3.1567 1.4364,6.2549 2.4145,8.5595 -3.7938,1.8517 -8.084,2.9054 -12.639,2.9054 -1.9417,0 -3.8328,-0.1926 -5.6622,-0.5539 0.40137,-2.486 0.37455,-5.7336 0.24576,-9.0193 -2.1893,2.5903 -4.277,5.2049 -5.4913,7.4515 -6.0157,-2.45 -10.929,-6.8703 -13.878,-12.405 2.4015,-1.1714 5.27,-3.4478 8.1087,-5.8422 -3.8191,-0.066 -7.5843,0 -10.203,0.6375 -0.59887,-2.1651 -0.91878,-4.438 -0.91878,-6.78275 0,-4.2387 1.0521,-8.2453 2.9059,-11.799 2.4349,1.1309 6.0933,1.9251 9.8288,2.6128 -2.2754,-2.8948 -4.6168,-5.6689 -6.7199,-7.2949 3.9726,-4.7742 9.6342,-8.208 16.121,-9.4896 0.71811,2.4532 2.2233,5.4583 3.8461,8.455 0.8186,-3.243 1.5292,-6.465 1.6346,-8.9984 z m -1.6346,8.9984 c -0.29143,1.1544 -0.57781,2.2995 -0.87606,3.4279 -4.0212,0.51791 -7.5559,2.4869 -9.9996,5.3301 -0.79048,-0.13774 -1.5775,-0.28223 -2.3718,-0.4285 0.45819,0.58296 0.90658,1.1614 1.3568,1.7454 -1.5783,2.3138 -2.4999,5.0663 -2.4999,8.0265 0,1.5801 0.26431,3.1078 0.74786,4.5358 -0.40285,0.345 -0.81185,0.6817 -1.2179,1.0242 0.54258,0.01 1.0822,0.018 1.6239,0.031 1.7138,3.9841 5.205,7.0981 9.5403,8.4654 0.0378,0.766 0.066,1.5285 0.0963,2.2993 0.52867,-0.6255 1.0499,-1.2443 1.5811,-1.8603 1.0536,0.2123 2.138,0.324 3.2584,0.324 3.0075,0 5.821,-0.8102 8.2049,-2.2052 0.86389,0.6085 1.7262,1.223 2.5961,1.8499 -0.22941,-1.0702 -0.44836,-2.1323 -0.66238,-3.1877 2.78,-2.2466 4.7216,-5.4 5.3096,-8.9775 1.1845,-0.3252 2.3865,-0.6527 3.6003,-0.972 -1.1526,-0.5678 -2.2986,-1.1368 -3.4187,-1.7035 -0.0907,-3.4376 -1.422,-6.5787 -3.5789,-9.0508 0.52835,-1.2231 1.0776,-2.4788 1.6346,-3.7311 -1.2768,0.57453 -2.5565,1.1373 -3.8033,1.6827 -2.5544,-1.9762 -5.7817,-3.2033 -9.3053,-3.3235 -0.60257,-1.0841 -1.2118,-2.1866 -1.8162,-3.3026 z"
           id="path3951" />
        <path
           style="fill:#151d21;stroke:#7d7d7c;stroke-width:0.47918001;stroke-linecap:square"
           inkscape:connector-curvature="0"
           d="m 466.06864,518.16542 c -23.158,0 -41.928,17.675 -41.928,39.477 0,21.801 18.77,39.477 41.928,39.477 23.158,0 41.928,-17.675 41.928,-39.477 0,-21.802 -18.77,-39.477 -41.928,-39.477 z m -0.19155,11.879 c 0.064,3.1e-4 0.12737,0 0.19155,0 6.9443,0 13.321,2.2726 18.344,6.07 -1.5684,2.1607 -3.0832,5.2569 -4.5185,8.4414 3.2942,-1.4627 6.4918,-3.0085 8.6989,-4.5798 4.2413,4.7864 6.7946,10.945 6.7946,17.666 0,0.0442 2.1e-4,0.0863 0,0.13049 -2.7534,0.13694 -6.2854,0.93801 -9.837,1.86021 3.2649,1.5871 6.5353,3.064 9.1948,3.742 -1.4401,6.4127 -5.2421,12.004 -10.513,15.926 -1.8328,-1.9169 -4.5543,-3.9844 -7.3805,-5.9939 0.71365,3.2856 1.5151,6.5104 2.5466,8.9092 -4.0013,1.9272 -8.5264,3.0241 -13.33,3.0241 -2.048,0 -4.0425,-0.2004 -5.972,-0.5765 0.42332,-2.5876 0.39502,-5.9679 0.25914,-9.3879 -2.3091,2.6963 -4.5109,5.4177 -5.7918,7.7562 -6.3448,-2.5503 -11.528,-7.1511 -14.637,-12.912 2.5329,-1.2193 5.5584,-3.5887 8.5524,-6.0809 -4.0281,-0.068 -7.9993,0 -10.761,0.6636 -0.63162,-2.2536 -0.96908,-4.6193 -0.96908,-7.05991 0,-4.4118 1.1097,-8.5822 3.0649,-12.281 2.5681,1.1769 6.4267,2.0037 10.367,2.7195 -2.3999,-3.0131 -4.8695,-5.9005 -7.0876,-7.5929 4.1899,-4.9692 10.161,-8.5434 17.003,-9.8774 0.75733,2.5535 2.3449,5.6813 4.0565,8.8005 0.86342,-3.3754 1.6129,-6.7291 1.724,-9.3661 z m -1.724,9.3661 c -0.30735,1.2016 -0.60939,2.3933 -0.92399,3.568 -4.2412,0.53897 -7.9693,2.5884 -10.547,5.5478 -0.83369,-0.14337 -1.6637,-0.29376 -2.5015,-0.44601 0.48324,0.60677 0.95619,1.2088 1.431,1.8167 -1.6647,2.4082 -2.6367,5.2733 -2.6367,8.3544 0,1.64471 0.27878,3.23481 0.78876,4.72111 -0.42486,0.3592 -0.85624,0.7096 -1.2845,1.0661 0.57227,0.01 1.1414,0.019 1.7127,0.032 1.8076,4.1469 5.4898,7.3881 10.062,8.8113 0.0397,0.7972 0.0696,1.5909 0.10139,2.3932 0.55764,-0.6511 1.1074,-1.2951 1.6677,-1.9363 1.1113,0.221 2.255,0.3372 3.4368,0.3372 3.172,0 6.1395,-0.8433 8.6538,-2.2952 0.91119,0.6333 1.8206,1.273 2.7381,1.9254 -0.24192,-1.1139 -0.47288,-2.2194 -0.69864,-3.3179 2.9322,-2.3384 4.98,-5.6206 5.6002,-9.3443 1.2492,-0.3386 2.517,-0.6793 3.7973,-1.0117 -1.2156,-0.5909 -2.4244,-1.1832 -3.6058,-1.77311 -0.0955,-3.5781 -1.4998,-6.8474 -3.7748,-9.4206 0.55726,-1.2731 1.1365,-2.58 1.724,-3.8835 -1.3467,0.59794 -2.6964,1.1837 -4.0114,1.7514 -2.6942,-2.0568 -6.0981,-3.3341 -9.8145,-3.4592 -0.63554,-1.1284 -1.2782,-2.276 -1.9156,-3.4375 z"
           id="path3167" />
        <path
           inkscape:connector-curvature="0"
           style="fill:url(#linearGradient6070);stroke:#000000;stroke-width:0.47918001"
           d="m 388.25864,574.87542 c -1.2564,-0.313 -13.623,-2.7946 -13.623,-2.7946 l -27.21,-16.221 17.742,-25.45 31.096,8.7635 5.0256,-1.5649 0.62821,13.771 -8.4808,9.0763 c 0,0 14.449,5.0077 12.564,5.6337 -1.8846,0.626 -17.742,8.7857 -17.742,8.7857 z"
           id="path3042" />
        <g
           id="g4680"
           transform="translate(217.89864,460.73542)">
          <rect
             transform="matrix(0.87394077,0.48603245,-0.59132718,0.80643175,0,0)"
             ry="4.0313597"
             y="25.409626"
             x="109.37446"
             height="42.22086"
             width="7.9264555"
             id="rect4627"
             style="fill:#dc0000;fill-opacity:1;stroke:none" />
          <path
             transform="translate(14.711505,-49.359645)"
             d="m 47.101643,156.26125 c 0,0.47154 -0.382262,0.8538 -0.853806,0.8538 -0.471544,0 -0.853806,-0.38226 -0.853806,-0.8538 0,-0.47155 0.382262,-0.85381 0.853806,-0.85381 0.471544,0 0.853806,0.38226 0.853806,0.85381 z"
             sodipodi:ry="0.85380626"
             sodipodi:rx="0.85380626"
             sodipodi:cy="156.26125"
             sodipodi:cx="46.247837"
             id="path4678"
             style="fill:#000000;fill-opacity:1;stroke:none"
             sodipodi:type="arc" />
        </g>
        <path
           style="fill:#dc0000;stroke:#000000;stroke-width:0.47918001"
           inkscape:connector-curvature="0"
           d="m 323.70864,566.37542 20.417,-8.1374 c 0,0 11.308,-14.084 12.25,-15.649 0.94231,-1.5649 10.051,-14.084 10.051,-14.084 l -5.6538,-4.0687 -34.237,-12.832 -14.135,-4.3818 -19.788,-5.3207 -6.9102,-5.9467 2.8269,-7.8244 13.82,-7.1986 9.4231,-1.8779 c 0,0 8.1666,-9.7024 6.9102,-9.7024 -1.2564,0 -25.128,14.71 -25.128,14.71 l -16.333,3.4428 -8.4808,10.015 3.4551,0.31299 -1.2564,1.8779 6.9103,2.5039 -5.3398,15.023 8.1667,3.7558 4.3974,6.2596 17.276,15.336 12.25,10.954 8.1667,4.3817 z"
           id="path2996" />
        <path
           inkscape:connector-curvature="0"
           style="fill:url(#linearGradient6072);stroke:#000000;stroke-width:0.47918001"
           d="m 273.49964,489.59542 35.503,-28.619 15.915,7.3482 -33.462,17.791 z"
           id="path2998" />
        <path
           inkscape:connector-curvature="0"
           style="fill:url(#linearGradient6074);stroke:#000000;stroke-width:0.47918001"
           d="m 269.18764,496.28542 c 0,0 -12.73,10.921 -11.203,17.224 1.0853,4.481 15.309,4.1566 15.309,4.1566 l 5.4977,-14.997 z"
           id="path3000" />
        <path
           style="fill:#dc0000;stroke:#000000;stroke-width:0.47918001"
           inkscape:connector-curvature="0"
           d="m 292.67364,527.28542 c -14.265,0.99347 -29.119,1.0066 -39.117,9.1013 l 14.565,3.1656 3.3291,-4.3527 18.726,-0.39579 13.733,3.9572 z"
           id="path3002" />
        <path
           style="fill:#0e232e;stroke:#000000;stroke-width:0.47918001"
           inkscape:connector-curvature="0"
           d="m 287.27264,495.63542 c 0,0 13.398,-0.72485 20.103,-0.93894 6.0704,-0.19391 12.178,-0.95325 18.218,-0.31299 12.829,1.36 26.612,2.1783 37.692,8.7634 13.569,8.0638 32.667,35.993 31.41,35.367 -1.2564,-0.62596 -27.327,-8.4505 -27.327,-8.4505 l -6.5961,-5.6336 c 0,0 -31.854,-11.62 -48.058,-16.588 -6.5299,-2.0021 -19.788,-5.3207 -19.788,-5.3207 z"
           id="path3004" />
        <path
           style="fill:#dc0000;stroke:#000000;stroke-width:0.47918001"
           inkscape:connector-curvature="0"
           d="m 371.76864,510.96542 -8.1666,-7.5116 -32.038,-8.4504 c 0,0 -2.8269,-0.62598 -2.1987,-1.8779 0.6282,-1.25192 0,-2.5038 2.8269,-4.3817 2.8269,-1.8779 20.747,-6.1638 31.41,-7.8245 4.7686,-0.74271 11.406,-4.328 18.002,-1.8242 6.5961,2.5038 14.978,18.099 14.978,18.099 l -3.7692,8.1375 z"
           id="path3006" />
        <path
           style="fill:#0e232e;stroke:#000000;stroke-width:0.47918001"
           inkscape:connector-curvature="0"
           d="m 392.80864,505.64542 10.051,5.9466 19.474,-0.93895 17.904,-17.214 -2.5128,-1.5649 -6.2821,4.6946 -16.019,2.5038 -13.192,2.1909 h -7.5384 z"
           id="path3008" />
        <path
           style="fill:#dc0000;stroke:#000000;stroke-width:0.47918001"
           inkscape:connector-curvature="0"
           d="m 422.33864,511.27542 16.962,-17.214 13.192,-6.8856 22.615,-10.641 18.846,-0.31299 -18.218,15.023 -23.558,12.832 -14.763,6.8856 h -13.506 z"
           id="path3010" />
        <path
           style="fill:#0e232e;stroke:#000000;stroke-width:0.47918001"
           inkscape:connector-curvature="0"
           d="m 473.84864,475.28542 -35.798,6.8856 c 0,0 -0.32334,2.5039 -1.8938,6.2596 -1.5705,3.7558 -2.827,4.3817 0,5.6337 2.8269,1.2519 8.1666,-2.5039 8.1666,-2.5039 z"
           id="path3012" />
        <path
           style="fill:#2d2d2d;stroke:#000000;stroke-width:0.47918001"
           inkscape:connector-curvature="0"
           d="m 371.44864,511.59542 10.994,13.458 12.564,12.832 c 25.106,-6.055 36.159,-16.778 47.411,-27.435 l -37.36,0.83153 -13.506,-5.9466 z"
           id="path3014" />
        <path
           inkscape:connector-curvature="0"
           style="fill:url(#linearGradient6076);stroke:#000000;stroke-width:0.47918001"
           d="m 323.39864,564.77542 -4.7654,20.764 11.676,1.4576 3.7692,-2.8169 1.5482,2.1687 31.118,0.6482 6.282,-4.0688 1.8846,3.7558 39.608,-0.8853 -16.118,-9.7783 -19.093,9.0987 16.019,-10.328 c 0,0 -7.5384,0 -12.878,-0.939 -5.3397,-0.9389 -18.846,-10.328 -18.846,-10.328 l -15.391,-10.328 -19.183,25.061 14.471,-2.2131 -13.506,2.5038 7.5384,-16.275 z"
           id="path3020" />
        <path
           inkscape:connector-curvature="0"
           style="fill:url(#linearGradient6078);stroke:#000000;stroke-width:0.47918001"
           d="m 395.94864,573.27542 1.2564,5.6336 c 7.2397,-5.7447 30.56,-6.4882 34.237,-12.519 1.2564,-2.1909 5.968,-13.145 5.968,-13.145 6.5359,-3.8403 5.6179,-6.3491 8.1667,0 l -6.282,-9.3894 c 0,0 -5.6539,3.4428 -7.2244,5.9466 -1.5705,2.5039 -3.7692,7.8246 -3.7692,7.8246 0.18833,5.8363 -9.5515,7.7887 -19.16,10.328 z"
           id="path3022" />
        <path
           inkscape:connector-curvature="0"
           style="fill:url(#linearGradient6080);stroke:#000000;stroke-width:0.47918001"
           d="m 448.71864,552.90542 -12.56,-12.52 53.83,-35.82 c 7.0672,2.269 12.276,3.715 10.994,11.893 z"
           id="path3024" />
        <path
           style="fill:#756457;stroke:#7d7d7c;stroke-width:0.47918889;stroke-linecap:square"
           inkscape:connector-curvature="0"
           d="m 384.51134,557.7576 a 10.549254,10.478607 0 1 1 -21.09799,0 10.549254,10.478607 0 1 1 21.09799,0 z"
           id="path3034" />
        <path
           style="fill:#2d2d2d;stroke:#7d7d7c;stroke-width:0.47917622;stroke-linecap:square"
           inkscape:connector-curvature="0"
           d="m 376.63711,561.72258 c 0.33106,-0.23826 -5.45102,0.3508 -5.07844,0.51736 0.3726,0.16656 -3.03027,-4.52855 -2.98884,-4.12373 0.0415,0.40482 2.42052,-4.87938 2.08952,-4.64103 -0.33106,0.23827 5.45102,-0.3508 5.07844,-0.51737 -0.3726,-0.16657 3.03027,4.52854 2.98885,4.12372 -0.0415,-0.40482 -2.42053,4.87939 -2.08953,4.64103 z"
           id="path3038" />
        <path
           style="fill:#000002;stroke:#000000;stroke-width:0.47918001"
           inkscape:connector-curvature="0"
           d="m 395.94864,544.76542 8.7948,10.641 14.449,3.4428 c 0,0 6.533,-10.954 10.302,-15.023 3.7692,-4.0688 13.57,-15.336 13.57,-15.336 0,0 17.768,-4.5872 15.884,-4.2742 -1.8846,0.31299 -62.999,20.549 -62.999,20.549 z"
           id="path3044" />
        <path
           style="fill:#0e232e;stroke:#000000;stroke-width:0.47918001"
           inkscape:connector-curvature="0"
           d="m 445.57864,528.80542 -24.814,-7.8244 3.4551,-2.8168 20.731,7.1986 z"
           id="path3046" />
        <path
           style="fill:#0e232e;stroke:#000000;stroke-width:0.47918001"
           inkscape:connector-curvature="0"
           d="m 445.89864,528.18542 c -1.2564,-0.62599 -19.16,-12.519 -19.16,-12.519 l 4.7115,-3.7558 14.449,11.267 -2.8269,3.4428 1.8846,-2.5038 -1.2564,0.93893"
           id="path3048" />
        <path
           style="fill:none;stroke:#000000;stroke-width:0.47918001"
           inkscape:connector-curvature="0"
           d="m 414.47864,559.47542 -21.673,-3.7558 3.7692,-2.8168 z"
           id="path3050" />
        <path
           style="fill:none;stroke:#000000;stroke-width:0.47918001"
           inkscape:connector-curvature="0"
           d="m 415.42864,558.87542 -21.987,1.5648 0.62821,3.4428 21.359,-2.1908 z"
           id="path3052" />
        <path
           style="fill:#ff6600;stroke:#000000;stroke-width:1.5438;filter:url(#filter3945)"
           inkscape:connector-curvature="0"
           transform="matrix(0.31094,0,0,0.30983,372.70864,421.20542)"
           d="m -214.29,340.93 57.143,28.571 -14.286,45.714 48.571,-54.286 -114.29,-45.714 z"
           id="path3054" />
        <path
           style="opacity:0.97072999;fill:#0e232e;stroke:#7d7d7c;stroke-width:0.4791716;stroke-linecap:square"
           inkscape:connector-curvature="0"
           d="m 299.21385,510.02587 a 3.769215,4.3816162 0 1 1 -7.53843,0 3.769215,4.3816162 0 1 1 7.53843,0 z"
           id="path4262" />
        <path
           style="opacity:0.75121999;fill:none;stroke:#292626;stroke-width:0.47918001"
           inkscape:connector-curvature="0"
           d="m 295.45264,512.11542 c 0,0 -0.62841,-5.5621 -1.5603,-8.2418 -1.2309,-3.5399 -2.0738,-7.1548 -2.0738,-7.1548"
           id="path4264" />
        <path
           inkscape:connector-curvature="0"
           style="opacity:0.50731997;fill:url(#linearGradient6082);stroke:#000000;stroke-width:0.47918001"
           d="m 269.18764,496.28542 c 0,0 -12.73,10.921 -11.203,17.224 1.0853,4.481 15.309,4.1566 15.309,4.1566 l 5.4977,-14.997 z"
           id="path4328" />
      </g>
      <rect
         style="fill:none;stroke:none"
         id="rect5999"
         width="266.46399"
         height="142.09599"
         x="355.94217"
         y="455.26303"
         ry="0" />
    </g>
  </g>
</svg>
