<?xml version="1.0" encoding="UTF-8" standalone="no"?>
<!-- Created with Inkscape (http://www.inkscape.org/) -->

<svg
   xmlns:dc="http://purl.org/dc/elements/1.1/"
   xmlns:cc="http://creativecommons.org/ns#"
   xmlns:rdf="http://www.w3.org/1999/02/22-rdf-syntax-ns#"
   xmlns:svg="http://www.w3.org/2000/svg"
   xmlns="http://www.w3.org/2000/svg"
   xmlns:xlink="http://www.w3.org/1999/xlink"
   xmlns:sodipodi="http://sodipodi.sourceforge.net/DTD/sodipodi-0.dtd"
   xmlns:inkscape="http://www.inkscape.org/namespaces/inkscape"
   width="744.09448819"
   height="1052.3622047"
   id="svg8384"
   version="1.1"
   inkscape:version="0.48.4 r9939"
   sodipodi:docname="wireframe.svg">
  <defs
     id="defs8386">
    <linearGradient
       id="linearGradient3977-9"
       x1="-348.57001"
       gradientUnits="userSpaceOnUse"
       y1="572.35999"
       gradientTransform="matrix(0.31094,0,0,0.30983,154.81,862.83)"
       x2="-397.14001"
       y2="488.07999">
      <stop
         id="stop3973-6"
         stop-color="#020207"
         offset="0" />
      <stop
         id="stop3975-1"
         stop-color="#0e232e"
         offset="1" />
    </linearGradient>
    <linearGradient
       id="linearGradient4007-3"
       x1="-18.570999"
       gradientUnits="userSpaceOnUse"
       y1="372.35999"
       gradientTransform="matrix(0.31094,0,0,0.30983,154.81,862.83)"
       x2="58.570999"
       y2="475.22">
      <stop
         id="stop4003-8"
         stop-color="#060606"
         offset="0" />
      <stop
         id="stop4005-3"
         stop-color="#0e232e"
         offset="1" />
    </linearGradient>
    <linearGradient
       id="linearGradient4318-0"
       x1="-187.89"
       gradientUnits="userSpaceOnUse"
       y1="147.27"
       gradientTransform="matrix(0.31094,0,0,0.30983,154.81,862.83)"
       x2="-274.76001"
       y2="209.89">
      <stop
         id="stop4314-3"
         stop-color="#2d2d2d"
         offset="0" />
      <stop
         id="stop4316-0"
         stop-color="#2d2d2d"
         stop-opacity="0"
         offset="1" />
    </linearGradient>
    <linearGradient
       id="linearGradient4320-0"
       x1="-325.26999"
       gradientUnits="userSpaceOnUse"
       y1="258.38"
       gradientTransform="matrix(0.31094,0,0,0.30983,154.81,862.83)"
       x2="-369.72"
       y2="276.57001">
      <stop
         id="stop4324-2"
         stop-color="#ccc"
         offset="0" />
      <stop
         id="stop4326-1"
         stop-color="#fff"
         offset="1" />
    </linearGradient>
    <linearGradient
       id="linearGradient3999-6"
       x1="-60"
       gradientUnits="userSpaceOnUse"
       y1="462.35999"
       gradientTransform="matrix(0.31094,0,0,0.30983,154.81,862.83)"
       x2="-94.286003"
       y2="525.21997">
      <stop
         id="stop3995-5"
         stop-color="#243137"
         offset="0" />
      <stop
         id="stop3997-5"
         stop-color="#666"
         offset="1" />
    </linearGradient>
    <linearGradient
       id="linearGradient4023-2"
       x1="197.14"
       gradientUnits="userSpaceOnUse"
       y1="428.07999"
       gradientTransform="matrix(0.31094,0,0,0.30983,154.81,862.83)"
       x2="100"
       y2="490.92999">
      <stop
         id="stop4019-9"
         stop-color="#e6e7ed"
         offset="0" />
      <stop
         id="stop4021-8"
         stop-color="#666"
         offset="1" />
    </linearGradient>
    <linearGradient
       id="linearGradient4015-5"
       x1="310"
       gradientUnits="userSpaceOnUse"
       y1="372.35999"
       gradientTransform="matrix(0.31094,0,0,0.30983,154.81,862.83)"
       x2="282.85999"
       y2="346.64999">
      <stop
         id="stop4011-0"
         stop-color="#cfcfdd"
         offset="0" />
      <stop
         id="stop4013-1"
         stop-color="#999"
         offset="1" />
    </linearGradient>
    <filter
       id="filter3945-1"
       color-interpolation-filters="sRGB">
      <feGaussianBlur
         id="feGaussianBlur3947-2"
         stdDeviation="2.5632263" />
    </filter>
    <linearGradient
       id="linearGradient4336-4"
       x1="-365.67999"
       gradientUnits="userSpaceOnUse"
       y1="288.69"
       gradientTransform="matrix(0.31094,0,0,0.30983,154.81,862.83)"
       x2="-335.37"
       y2="274.54001">
      <stop
         id="stop4332-0"
         stop-color="#364e59"
         offset="0" />
      <stop
         id="stop4334-4"
         stop-color="#364e59"
         stop-opacity="0"
         offset="1" />
    </linearGradient>
    <linearGradient
       inkscape:collect="always"
       xlink:href="#linearGradient4336-4"
       id="linearGradient8580"
       gradientUnits="userSpaceOnUse"
       gradientTransform="matrix(-0.31094,0,0,0.30983,153.33339,-21.074456)"
       x1="-365.67999"
       y1="288.69"
       x2="-335.37"
       y2="274.54001" />
    <linearGradient
       inkscape:collect="always"
       xlink:href="#linearGradient4015-5"
       id="linearGradient8593"
       gradientUnits="userSpaceOnUse"
       gradientTransform="matrix(-0.31094,0,0,0.30983,153.33339,-21.074456)"
       x1="310"
       y1="372.35999"
       x2="282.85999"
       y2="346.64999" />
    <linearGradient
       inkscape:collect="always"
       xlink:href="#linearGradient4023-2"
       id="linearGradient8596"
       gradientUnits="userSpaceOnUse"
       gradientTransform="matrix(-0.31094,0,0,0.30983,153.33339,-21.074456)"
       x1="197.14"
       y1="428.07999"
       x2="100"
       y2="490.92999" />
    <linearGradient
       inkscape:collect="always"
       xlink:href="#linearGradient3999-6"
       id="linearGradient8599"
       gradientUnits="userSpaceOnUse"
       gradientTransform="matrix(-0.31094,0,0,0.30983,153.33339,-21.074456)"
       x1="-60"
       y1="462.35999"
       x2="-94.286003"
       y2="525.21997" />
    <linearGradient
       inkscape:collect="always"
       xlink:href="#linearGradient4320-0"
       id="linearGradient8609"
       gradientUnits="userSpaceOnUse"
       gradientTransform="matrix(-0.31094,0,0,0.30983,153.33339,-21.074456)"
       x1="-325.26999"
       y1="258.38"
       x2="-369.72"
       y2="276.57001" />
    <linearGradient
       inkscape:collect="always"
       xlink:href="#linearGradient4318-0"
       id="linearGradient8612"
       gradientUnits="userSpaceOnUse"
       gradientTransform="matrix(-0.31094,0,0,0.30983,153.33339,-21.074456)"
       x1="-187.89"
       y1="147.27"
       x2="-274.76001"
       y2="209.89" />
    <linearGradient
       inkscape:collect="always"
       xlink:href="#linearGradient4007-3"
       id="linearGradient8618"
       gradientUnits="userSpaceOnUse"
       gradientTransform="matrix(-0.31094,0,0,0.30983,153.33339,-21.074456)"
       x1="-18.570999"
       y1="372.35999"
       x2="58.570999"
       y2="475.22" />
  </defs>
  <sodipodi:namedview
     id="base"
     pagecolor="#ffffff"
     bordercolor="#666666"
     borderopacity="1.0"
     inkscape:pageopacity="0.0"
     inkscape:pageshadow="2"
     inkscape:zoom="0.49497475"
     inkscape:cx="358.91415"
     inkscape:cy="455.45169"
     inkscape:document-units="px"
     inkscape:current-layer="layer1"
     showgrid="false"
     inkscape:window-width="1920"
     inkscape:window-height="1055"
     inkscape:window-x="1920"
     inkscape:window-y="0"
     inkscape:window-maximized="1" />
  <metadata
     id="metadata8389">
    <rdf:RDF>
      <cc:Work
         rdf:about="">
        <dc:format>image/svg+xml</dc:format>
        <dc:type
           rdf:resource="http://purl.org/dc/dcmitype/StillImage" />
        <dc:title></dc:title>
      </cc:Work>
    </rdf:RDF>
  </metadata>
  <g
     inkscape:label="Layer 1"
     inkscape:groupmode="layer"
     id="layer1">
    <rect
       style="fill:#000000;fill-opacity:1;stroke:#000000;stroke-width:2.92527866;stroke-linecap:round;stroke-linejoin:round;stroke-miterlimit:4;stroke-opacity:1;stroke-dasharray:none;stroke-dashoffset:0"
       id="rect9209"
       width="593.57477"
       height="820.0033"
       x="337.08368"
       y="17.486816"
       ry="10.940945" />
    <path
       inkscape:connector-curvature="0"
       style="fill:url(#linearGradient8618);stroke:#000000;stroke-width:0.47918001"
       d="m 137.78339,132.59555 c 1.2564,-0.313 13.623,-2.7946 13.623,-2.7946 l 27.21,-16.221 -17.742,-25.450007 -31.096,8.7635 -5.0256,-1.5649 -0.62821,13.771007 8.4808,9.0763 c 0,0 -14.449,5.0077 -12.564,5.6337 1.8846,0.626 17.742,8.7857 17.742,8.7857 z"
       id="path8251" />
    <rect
       style="fill:#dc0000;fill-opacity:1;stroke:none"
       id="rect8253"
       width="7.9264555"
       height="42.22086"
       x="-130.08199"
       y="192.61427"
       ry="4.0313597"
       transform="matrix(-0.87394076,0.48603245,0.59132718,0.80643175,0,0)" />
    <path
       sodipodi:type="arc"
       style="fill:#000000;fill-opacity:1;stroke:none"
       id="path8255"
       sodipodi:cx="46.247837"
       sodipodi:cy="156.26125"
       sodipodi:rx="0.85380626"
       sodipodi:ry="0.85380626"
       d="m 47.101643,156.26125 a 0.85380626,0.85380626 0 1 1 -1.707612,0 0.85380626,0.85380626 0 1 1 1.707612,0 z"
       transform="matrix(-1,0,0,1,293.43188,-30.904101)" />
    <path
       style="fill:#dc0000;stroke:#000000;stroke-width:0.47918001"
       inkscape:connector-curvature="0"
       d="m 202.33339,124.09555 -20.417,-8.1374 c 0,0 -11.308,-14.084 -12.25,-15.649 -0.94231,-1.564902 -10.051,-14.084007 -10.051,-14.084007 l 5.6538,-4.0687 34.237,-12.832 14.135,-4.3818 19.788,-5.3207 6.9102,-5.9467 -2.8269,-7.8244 -13.82,-7.1986 -9.4231,-1.8779 c 0,0 -8.1666,-9.7024 -6.9102,-9.7024 1.2564,0 25.128,14.71 25.128,14.71 l 16.333,3.4428 8.4808,10.015 -3.4551,0.31299 1.2564,1.8779 -6.9103,2.5039 5.3398,15.023 -8.1667,3.7558 -4.3974,6.2596 -17.276,15.336007 -12.25,10.954 -8.1667,4.3817 z"
       id="path8257" />
    <path
       inkscape:connector-curvature="0"
       style="fill:url(#linearGradient8612);stroke:#000000;stroke-width:0.47918001"
       d="m 252.54239,47.315543 -35.503,-28.619 -15.915,7.3482 33.462,17.791001 z"
       id="path8259" />
    <path
       inkscape:connector-curvature="0"
       style="fill:url(#linearGradient8609);stroke:#000000;stroke-width:0.47918001"
       d="m 256.85439,54.005544 c 0,0 12.73,10.920999 11.203,17.223999 -1.0853,4.481 -15.309,4.1566 -15.309,4.1566 l -5.4977,-14.997 z"
       id="path8261" />
    <path
       style="fill:#dc0000;stroke:#000000;stroke-width:0.47918001"
       inkscape:connector-curvature="0"
       d="m 233.36839,85.005543 c 14.265,0.99347 29.119,1.0066 39.117,9.1013 l -14.565,3.1656 -3.3291,-4.3527 -18.726,-0.39579 -13.733,3.9572 z"
       id="path8263" />
    <path
       style="fill:#0e232e;stroke:#000000;stroke-width:0.47918001"
       inkscape:connector-curvature="0"
       d="m 238.76939,53.355544 c 0,0 -13.398,-0.72485 -20.103,-0.93894 -6.0704,-0.193911 -12.178,-0.95325 -18.218,-0.31299 -12.829,1.36 -26.612,2.1783 -37.692,8.7634 -13.569,8.0638 -32.667,35.992999 -31.41,35.366999 1.2564,-0.62596 27.327,-8.4505 27.327,-8.4505 l 6.5961,-5.6336 c 0,0 31.854,-11.62 48.058,-16.588 6.5299,-2.0021 19.788,-5.3207 19.788,-5.3207 z"
       id="path8265" />
    <path
       style="fill:#dc0000;stroke:#000000;stroke-width:0.47918001"
       inkscape:connector-curvature="0"
       d="m 154.27339,68.685543 8.1666,-7.511599 32.038,-8.450401 c 0,0 2.8269,-0.625979 2.1987,-1.877899 -0.6282,-1.25192 0,-2.5038 -2.8269,-4.3817 -2.8269,-1.8779 -20.747,-6.163801 -31.41,-7.8245 -4.7686,-0.742711 -11.406,-4.328001 -18.002,-1.824201 -6.5961,2.503801 -14.978,18.099 -14.978,18.099 l 3.7692,8.1375 z"
       id="path8267" />
    <path
       style="fill:#0e232e;stroke:#000000;stroke-width:0.47918001"
       inkscape:connector-curvature="0"
       d="m 133.23339,63.365544 -10.051,5.946599 -19.474,-0.938949 -17.904,-17.214 2.5128,-1.5649 6.2821,4.6946 16.019,2.5038 13.192,2.190899 h 7.5384 z"
       id="path8269" />
    <path
       style="fill:#dc0000;stroke:#000000;stroke-width:0.47918001"
       inkscape:connector-curvature="0"
       d="m 103.70339,68.995543 -16.962,-17.214 -13.192,-6.8856 -22.615,-10.641 -18.846,-0.31299 18.218,15.023001 23.558,12.832 14.763,6.885599 h 13.506 z"
       id="path8271" />
    <path
       style="fill:#0e232e;stroke:#000000;stroke-width:0.47918001"
       inkscape:connector-curvature="0"
       d="m 52.19339,33.005543 35.798,6.8856 c 0,0 0.32334,2.503901 1.8938,6.2596 1.5705,3.7558 2.827,4.381701 0,5.6337 -2.8269,1.2519 -8.1666,-2.5039 -8.1666,-2.5039 z"
       id="path8273" />
    <path
       style="fill:#2d2d2d;stroke:#000000;stroke-width:0.47918001"
       inkscape:connector-curvature="0"
       d="m 154.59339,69.315543 -10.994,13.458 -12.564,12.832 c -25.106,-6.055 -36.159,-16.777999 -47.411,-27.435 l 37.36,0.83153 13.506,-5.9466 z"
       id="path8275" />
    <path
       inkscape:connector-curvature="0"
       style="fill:url(#linearGradient8599);stroke:#000000;stroke-width:0.47918001"
       d="m 202.64339,122.49555 4.7654,20.764 -11.676,1.4576 -3.7692,-2.8169 -1.5482,2.1687 -31.118,0.6482 -6.282,-4.0688 -1.8846,3.7558 -39.608,-0.8853 16.118,-9.7783 19.093,9.0987 -16.019,-10.328 c 0,0 7.5384,0 12.878,-0.939 5.3397,-0.9389 18.846,-10.328 18.846,-10.328 l 15.391,-10.328 19.183,25.061 -14.471,-2.2131 13.506,2.5038 -7.5384,-16.275 z"
       id="path8277" />
    <path
       inkscape:connector-curvature="0"
       style="fill:url(#linearGradient8596);stroke:#000000;stroke-width:0.47918001"
       d="m 130.09339,130.99555 -1.2564,5.6336 c -7.2397,-5.7447 -30.56,-6.4882 -34.237,-12.519 -1.2564,-2.1909 -5.968,-13.145 -5.968,-13.145 -6.5359,-3.8403 -5.6179,-6.3491 -8.1667,0 l 6.282,-9.3894 c 0,0 5.6539,3.4428 7.2244,5.9466 1.5705,2.5039 3.7692,7.8246 3.7692,7.8246 -0.18833,5.8363 9.5515,7.7887 19.16,10.328 z"
       id="path8279" />
    <path
       inkscape:connector-curvature="0"
       style="fill:url(#linearGradient8593);stroke:#000000;stroke-width:0.47918001"
       d="m 77.32339,110.62555 12.56,-12.520002 -53.83,-35.820004 c -7.0672,2.268999 -12.276,3.714999 -10.994,11.893 z"
       id="path8281" />
    <path
       style="fill:#756457;stroke:#7d7d7c;stroke-width:0.47918889;stroke-linecap:square"
       inkscape:connector-curvature="0"
       d="m 141.53069,115.47773 a 10.549254,10.478607 0 1 0 21.09799,0 10.549254,10.478607 0 1 0 -21.09799,0 z"
       id="path8283" />
    <path
       style="fill:#2d2d2d;stroke:#7d7d7c;stroke-width:0.47917622;stroke-linecap:square"
       inkscape:connector-curvature="0"
       d="m 149.40492,119.44271 c -0.33106,-0.23826 5.45102,0.3508 5.07844,0.51736 -0.3726,0.16656 3.03027,-4.52855 2.98884,-4.12373 -0.0415,0.40482 -2.42052,-4.87938 -2.08952,-4.64103 0.33106,0.23827 -5.45102,-0.3508 -5.07844,-0.51737 0.3726,-0.16657 -3.03027,4.52854 -2.98885,4.12372 0.0415,-0.40482 2.42053,4.87939 2.08953,4.64103 z"
       id="path8285" />
    <path
       style="fill:#000002;stroke:#000000;stroke-width:0.47918001"
       inkscape:connector-curvature="0"
       d="m 130.09339,104.48555 -8.7948,10.641 -14.449,3.4428 c 0,0 -6.533,-10.954 -10.302,-15.023 -3.7692,-4.068802 -13.57,-15.336006 -13.57,-15.336006 0,0 -17.768,-4.5872 -15.884,-4.2742 1.8846,0.31299 62.999,20.549006 62.999,20.549006 z"
       id="path8287" />
    <path
       style="fill:#0e232e;stroke:#000000;stroke-width:0.47918001"
       inkscape:connector-curvature="0"
       d="m 80.46339,86.525543 24.814,-7.824399 -3.4551,-2.8168 -20.731,7.1986 z"
       id="path8289" />
    <path
       style="fill:#0e232e;stroke:#000000;stroke-width:0.47918001"
       inkscape:connector-curvature="0"
       d="m 80.14339,85.905543 c 1.2564,-0.62599 19.16,-12.519 19.16,-12.519 l -4.7115,-3.7558 -14.449,11.267 2.8269,3.4428 -1.8846,-2.5038 1.2564,0.93893"
       id="path8291" />
    <path
       style="fill:none;stroke:#000000;stroke-width:0.47918001"
       inkscape:connector-curvature="0"
       d="m 111.56339,117.19555 21.673,-3.7558 -3.7692,-2.8168 z"
       id="path8293" />
    <path
       style="fill:none;stroke:#000000;stroke-width:0.47918001"
       inkscape:connector-curvature="0"
       d="m 110.61339,116.59555 21.987,1.5648 -0.62821,3.4428 -21.359,-2.1908 z"
       id="path8295" />
    <path
       style="fill:#ff6600;stroke:#000000;stroke-width:1.5438;filter:url(#filter3945-1)"
       inkscape:connector-curvature="0"
       transform="matrix(-0.31094,0,0,0.30983,153.33339,-21.074456)"
       d="m -214.29,340.93 57.143,28.571 -14.286,45.714 48.571,-54.286 -114.29,-45.714 z"
       id="path8297" />
    <path
       style="opacity:0.97072999;fill:#0e232e;stroke:#7d7d7c;stroke-width:0.4791716;stroke-linecap:square"
       inkscape:connector-curvature="0"
       d="m 226.82818,67.745993 a 3.769215,4.3816162 0 0 0 7.53843,0 3.769215,4.3816162 0 1 0 -7.53843,0 z"
       id="path8299" />
    <path
       style="opacity:0.75121999;fill:none;stroke:#292626;stroke-width:0.47918001"
       inkscape:connector-curvature="0"
       d="m 230.58939,69.835544 c 0,0 0.62841,-5.5621 1.5603,-8.2418 1.2309,-3.5399 2.0738,-7.1548 2.0738,-7.1548"
       id="path8301" />
    <path
       inkscape:connector-curvature="0"
       style="opacity:0.50731997;fill:url(#linearGradient8580);stroke:#000000;stroke-width:0.47918001"
       d="m 256.85439,54.005544 c 0,0 12.73,10.920999 11.203,17.223999 -1.0853,4.481 -15.309,4.1566 -15.309,4.1566 l -5.4977,-14.997 z"
       id="path8303" />
    <rect
       style="fill:none;stroke:none"
       id="rect8305"
       width="266.46399"
       height="142.09599"
       x="-291.08914"
       y="18.457048"
       ry="0"
       transform="scale(-1,1)" />
    <g
       id="g9215">
      <path
         inkscape:connector-curvature="0"
         style="fill:#000000;fill-opacity:1;stroke:#7d7d7c;stroke-width:0.47918001;stroke-linecap:square"
         d="m 204.14259,256.87153 c 3.59573,20.39241 -9.17808,39.68567 -28.52857,43.09768 -19.35049,3.41202 -37.95282,-10.3498 -41.54838,-30.74123 -3.59555,-20.39143 9.1781,-39.68567 28.52858,-43.09768 19.35049,-3.41202 37.95281,10.3498 41.54837,30.74123 z m -10.51359,2.02778 c -0.0102,-0.0562 -0.0198,-0.11219 -0.0298,-0.16871 -1.07818,-6.11467 -4.0854,-11.37437 -8.23576,-15.20283 -1.67431,1.71915 -4.18721,3.53764 -6.79096,5.29985 0.7868,-3.12957 1.66238,-6.18707 2.71437,-8.3765 -4.90677,-2.98551 -10.76919,-4.27003 -16.73506,-3.21808 -0.0384,0.007 -0.0769,0.0134 -0.11532,0.0203 0.30596,2.44583 0.14325,5.68144 -0.12371,8.953 -1.91558,-2.62646 -3.73422,-5.275 -4.74905,-7.51064 -5.46811,2.27164 -9.83975,6.49442 -12.50266,11.74957 1.98593,1.3139 4.24348,3.38678 6.46595,5.56078 -3.02712,-0.1142 -6.01379,-0.31521 -8.30301,-0.84809 -1.08935,3.82498 -1.36036,7.98108 -0.61447,12.21122 0.31798,1.80338 0.80562,3.52831 1.43905,5.16843 2.23094,-0.77772 5.23545,-1.28183 8.29212,-1.69742 -2.03457,2.45519 -4.10815,4.81989 -5.98487,6.31368 3.24861,5.1878 8.13688,9.03125 13.73373,10.86726 0.68893,-2.42122 2.32215,-5.45603 4.06937,-8.48241 0.68647,3.53612 1.242,7.04374 1.08186,9.57927 2.09821,0.2035 4.2504,0.13035 6.41669,-0.25162 3.91579,-0.69046 7.44499,-2.32026 10.42497,-4.62088 -1.44341,-2.07711 -2.77638,-5.34529 -4.02341,-8.70255 3.04696,1.64164 5.99326,3.36429 7.83978,5.0526 3.76002,-4.46709 6.00524,-10.28455 6.12699,-16.51789 -2.38404,-0.26728 -5.40669,-1.1756 -8.44093,-2.19459 2.86192,-1.28856 5.72225,-2.47333 8.04548,-2.98391 z m -8.04548,2.98392 c -1.01882,0.45872 -2.02962,0.91114 -3.02339,1.372 0.18001,3.81896 -1.06011,7.42245 -3.2867,10.15521 0.25668,0.71167 0.51909,1.41901 0.78429,2.13291 -0.61363,-0.33058 -1.22141,-0.6528 -1.83461,-0.97575 -1.87907,1.84269 -4.271,3.14706 -7.00581,3.62929 -1.45988,0.25741 -2.9144,0.26076 -4.31283,0.0443 -0.25272,0.43033 -0.49685,0.865 -0.74675,1.29799 -0.0987,-0.50217 -0.19397,-1.00214 -0.29547,-1.50292 -3.96126,-0.94256 -7.40981,-3.67777 -9.38297,-7.48132 -0.71375,0.0898 -1.4228,0.18782 -2.13986,0.28531 0.4913,-0.59292 0.97752,-1.1778 1.45966,-1.77148 -0.36872,-0.94394 -0.64951,-1.93287 -0.83299,-2.97342 -0.4925,-2.79311 -0.20478,-5.53808 0.69365,-7.97928 -0.7036,-0.70323 -1.41265,-1.40392 -2.13406,-2.10967 1.02622,0.0387 2.04334,0.0691 3.05334,0.0959 1.62023,-2.94784 4.21554,-5.2647 7.42435,-6.39366 0.1065,-1.15301 0.21198,-2.3227 0.30826,-3.50203 0.71324,0.9779 1.42661,1.94959 2.13366,2.89751 3.19066,-0.47578 6.31051,0.24898 8.94749,1.84948 1.04345,-0.68992 2.11351,-1.40454 3.17915,-2.12585 -0.32154,1.27938 -0.63186,2.55941 -0.9316,3.8063 2.24396,2.05049 3.90615,4.84775 4.59415,8.1006 1.10024,0.38304 2.21861,0.76933 3.34847,1.1488 z"
         id="path8249" />
      <path
         transform="matrix(0.91500572,0,0,0.91500572,12.493855,21.94924)"
         d="m 209.22784,263.49619 a 38.070126,38.070126 0 1 1 -76.14025,0 38.070126,38.070126 0 1 1 76.14025,0 z"
         sodipodi:ry="38.070126"
         sodipodi:rx="38.070126"
         sodipodi:cy="263.49619"
         sodipodi:cx="171.15771"
         id="path8627"
         style="fill:none;stroke:#000000;stroke-width:6.01089139;stroke-miterlimit:4;stroke-opacity:1;stroke-dasharray:none"
         sodipodi:type="arc" />
      <path
         sodipodi:type="arc"
         style="fill:#000000;fill-opacity:1;stroke:none"
         id="path9137"
         sodipodi:cx="171.15771"
         sodipodi:cy="263.49619"
         sodipodi:rx="38.070126"
         sodipodi:ry="38.070126"
         d="m 209.22784,263.49619 a 38.070126,38.070126 0 1 1 -76.14025,0 38.070126,38.070126 0 1 1 76.14025,0 z"
         transform="matrix(0.2770852,0,0,0.2770852,121.67887,190.03886)" />
    </g>
    <g
       id="g9233">
      <path
         inkscape:connector-curvature="0"
         style="fill:none;stroke:#ffffff;stroke-width:0.488796;stroke-linecap:square;stroke-opacity:1"
         d="m 594.46001,162.39703 c -20.23104,3.56795 -39.53886,-9.99257 -43.13025,-30.28575 -3.59135,-20.29325 9.89423,-39.637514 30.12418,-43.205294 20.22998,-3.56792 39.53864,9.99256 43.13015,30.285774 3.59147,20.29328 -9.89424,39.63744 -30.12408,43.20527 z m -2.12386,-11.02744 c 0.0552,-0.0107 0.11112,-0.0205 0.16694,-0.0305 6.0663,-1.06998 11.26292,-4.16767 15.02515,-8.47621 -1.726,-1.76969 -3.55942,-4.41822 -5.33777,-7.16137 3.11859,0.85393 6.16653,1.80022 8.3534,2.92285 2.91661,-5.10873 4.13273,-11.23443 3.02563,-17.49091 -0.007,-0.0401 -0.0145,-0.08 -0.0203,-0.12097 -2.42783,0.29678 -5.64538,0.0951 -8.89981,-0.21586 2.59065,-1.98046 5.20421,-3.85896 7.41577,-4.89987 -2.31437,-5.74718 -6.55659,-10.36502 -11.80732,-13.20394 -1.28536,2.0667 -3.32223,4.41033 -5.46007,6.71635 0.0822,-3.1684 0.25113,-6.29359 0.75708,-8.68524 -3.81298,-1.177515 -7.94642,-1.501424 -12.14317,-0.761293 -1.78902,0.316013 -3.49846,0.809633 -5.12199,1.456943 0.79607,2.34327 1.32812,5.49402 1.77278,8.69839 -2.46124,-2.15388 -4.83302,-4.34779 -6.33709,-6.32721 -5.12263,3.35137 -8.89208,8.43229 -10.65899,14.27458 2.41364,0.74465 5.4469,2.48401 8.47273,4.3426 -3.50735,0.68453 -6.98781,1.23245 -9.50958,1.0403 -0.18061,2.19482 -0.0856,4.44894 0.31647,6.72084 0.72711,4.10641 2.38307,7.8173 4.70053,10.95965 2.04942,-1.49123 5.28397,-2.85533 8.60787,-4.12862 -1.60012,3.17444 -3.28186,6.24262 -4.94073,8.15965 4.47873,3.9799 10.28398,6.38694 16.48064,6.5744 0.24102,-2.49345 1.11253,-5.64953 2.09392,-8.81653 1.31031,3.00882 2.51749,6.01516 3.04893,8.45255 z m -3.04904,-8.45267 c -0.46629,-1.07116 -0.92661,-2.1338 -1.39485,-3.17879 -3.79382,0.15166 -7.38828,-1.18157 -10.12726,-3.53922 -0.70485,0.26186 -1.40512,0.52982 -2.1119,0.80058 0.32206,-0.63927 0.63616,-1.27246 0.95078,-1.91143 -1.85086,-1.98519 -3.1719,-4.5022 -3.67949,-7.37015 -0.27101,-1.53107 -0.28944,-3.05405 -0.0886,-4.51611 -0.43042,-0.26882 -0.86497,-0.5286 -1.29787,-0.79448 0.49816,-0.0985 0.99412,-0.19337 1.4908,-0.29485 0.89582,-4.13839 3.57873,-7.72272 7.33868,-9.75196 -0.0967,-0.74817 -0.20136,-1.49154 -0.30567,-2.24317 0.59425,0.52016 1.18067,1.03494 1.77579,1.54528 0.93435,-0.377 1.91457,-0.66097 2.94663,-0.84342 2.77099,-0.48879 5.50231,-0.16094 7.93786,0.80319 0.69162,-0.72995 1.38066,-1.46557 2.07473,-2.214 -0.0279,1.0741 -0.0476,2.13872 -0.0638,3.196 2.94665,1.72482 5.27625,4.46451 6.43159,7.83507 1.14696,0.12253 2.3106,0.24435 3.48383,0.35657 -0.96455,0.73743 -1.92293,1.47494 -2.85787,2.20598 0.5059,3.34531 -0.18217,6.6048 -1.74569,9.35037 0.6964,1.09921 1.41772,2.22644 2.14584,3.34913 -1.2749,-0.34913 -2.55041,-0.68635 -3.79265,-1.01218 -2.0148,2.32989 -4.77785,4.04305 -8.00393,4.73192 -0.36922,1.14835 -0.74156,2.31549 -1.1071,3.49475 z"
         id="path9231" />
      <path
         id="path9222"
         d="m 402.46001,159.19713 c -20.23104,3.56795 -39.53886,-9.99257 -43.13025,-30.28575 -3.59135,-20.29325 9.89423,-39.63749 30.12418,-43.20527 20.22998,-3.56792 39.53864,9.99256 43.13015,30.28575 3.59147,20.29328 -9.89424,39.63744 -30.12408,43.20527 z m -2.12386,-11.02744 c 0.0552,-0.0107 0.11112,-0.0205 0.16694,-0.0305 6.0663,-1.06998 11.26292,-4.16767 15.02515,-8.47621 -1.726,-1.76969 -3.55942,-4.41822 -5.33777,-7.16137 3.11859,0.85393 6.16653,1.80022 8.3534,2.92285 2.91661,-5.10873 4.13273,-11.23443 3.02563,-17.49091 -0.007,-0.0401 -0.0145,-0.08 -0.0203,-0.12097 -2.42783,0.29678 -5.64538,0.0951 -8.89981,-0.21586 2.59065,-1.98046 5.20421,-3.85896 7.41577,-4.89987 -2.31437,-5.74718 -6.55659,-10.36502 -11.80732,-13.20394 -1.28536,2.0667 -3.32223,4.41033 -5.46007,6.71635 0.0822,-3.1684 0.25113,-6.29359 0.75708,-8.68524 -3.81298,-1.1775 -7.94642,-1.5014 -12.14317,-0.76129 -1.78902,0.31601 -3.49846,0.80963 -5.12199,1.45694 0.79607,2.34327 1.32812,5.49402 1.77278,8.69839 -2.46124,-2.15388 -4.83302,-4.34779 -6.33709,-6.32721 -5.12263,3.35137 -8.89208,8.43229 -10.65899,14.27458 2.41364,0.74465 5.4469,2.48401 8.47273,4.3426 -3.50735,0.68453 -6.98781,1.23245 -9.50958,1.0403 -0.18061,2.19482 -0.0856,4.44894 0.31647,6.72084 0.72711,4.10641 2.38307,7.8173 4.70053,10.95965 2.04942,-1.49123 5.28397,-2.85533 8.60787,-4.12862 -1.60012,3.17444 -3.28186,6.24262 -4.94073,8.15965 4.47873,3.9799 10.28398,6.38694 16.48064,6.5744 0.24102,-2.49345 1.11253,-5.64953 2.09392,-8.81653 1.31031,3.00882 2.51749,6.01516 3.04893,8.45255 z m -3.04904,-8.45267 c -0.46629,-1.07116 -0.92661,-2.1338 -1.39485,-3.17879 -3.79382,0.15166 -7.38828,-1.18157 -10.12726,-3.53922 -0.70485,0.26186 -1.40512,0.52982 -2.1119,0.80058 0.32206,-0.63927 0.63616,-1.27246 0.95078,-1.91143 -1.85086,-1.98519 -3.1719,-4.5022 -3.67949,-7.37015 -0.27101,-1.53107 -0.28944,-3.05405 -0.0886,-4.51611 -0.43042,-0.26882 -0.86497,-0.5286 -1.29787,-0.79448 0.49816,-0.0985 0.99412,-0.19337 1.4908,-0.29485 0.89582,-4.13839 3.57873,-7.72272 7.33868,-9.75196 -0.0967,-0.74817 -0.20136,-1.49154 -0.30567,-2.24317 0.59425,0.52016 1.18067,1.03494 1.77579,1.54528 0.93435,-0.377 1.91457,-0.66097 2.94663,-0.84342 2.77099,-0.48879 5.50231,-0.16094 7.93786,0.80319 0.69162,-0.72995 1.38066,-1.46557 2.07473,-2.214 -0.0279,1.0741 -0.0476,2.13872 -0.0638,3.196 2.94665,1.72482 5.27625,4.46451 6.43159,7.83507 1.14696,0.12253 2.3106,0.24435 3.48383,0.35657 -0.96455,0.73743 -1.92293,1.47494 -2.85787,2.20598 0.5059,3.34531 -0.18217,6.6048 -1.74569,9.35037 0.6964,1.09921 1.41772,2.22644 2.14584,3.34913 -1.2749,-0.34913 -2.55041,-0.68635 -3.79265,-1.01218 -2.0148,2.32989 -4.77785,4.04305 -8.00393,4.73192 -0.36922,1.14835 -0.74156,2.31549 -1.1071,3.49475 z"
         style="fill:none;stroke:#ffffff;stroke-width:0.488796;stroke-linecap:square;stroke-opacity:1"
         inkscape:connector-curvature="0" />
      <path
         inkscape:connector-curvature="0"
         style="fill:none;stroke:#ffffff;stroke-width:1.50000000000000000;fill-opacity:1;stroke-opacity:1;stroke-miterlimit:4;stroke-dasharray:none"
         d="m 477.78339,132.59555 c 1.2564,-0.313 13.623,-2.7946 13.623,-2.7946 l 27.21,-16.221 -17.742,-25.450007 -31.096,8.7635 -5.0256,-1.5649 -0.62821,13.771007 8.4808,9.0763 c 0,0 -14.449,5.0077 -12.564,5.6337 1.8846,0.626 17.742,8.7857 17.742,8.7857 z"
         id="path9139" />
      <rect
         style="fill:none;fill-opacity:1;stroke:#ffffff;stroke-opacity:1;stroke-width:1.50590131000000005;stroke-miterlimit:4;stroke-dasharray:none"
         id="rect9141"
         width="7.9264555"
         height="42.22086"
         x="-406.43054"
         y="359.168"
         ry="4.0313597"
         transform="matrix(-0.87394076,0.48603245,0.59132718,0.80643175,0,0)" />
      <path
         sodipodi:type="arc"
         style="fill:#000000;fill-opacity:1;stroke:none"
         id="path9143"
         sodipodi:cx="46.247837"
         sodipodi:cy="156.26125"
         sodipodi:rx="0.85380626"
         sodipodi:ry="0.85380626"
         d="m 47.101643,156.26125 a 0.85380626,0.85380626 0 1 1 -1.707612,0 0.85380626,0.85380626 0 1 1 1.707612,0 z"
         transform="matrix(-1,0,0,1,633.43188,-30.904101)" />
      <path
         style="fill:#000000;stroke:#ffffff;stroke-width:1.50000000000000000;stroke-opacity:1;stroke-miterlimit:4;stroke-dasharray:none;fill-opacity:1"
         inkscape:connector-curvature="0"
         d="m 573.36839,85.005543 c 14.265,0.99347 29.119,1.0066 39.117,9.1013 l -14.565,3.1656 -3.3291,-4.3527 -18.726,-0.39579 -13.733,3.9572 z"
         id="path9151" />
      <path
         style="fill:none;stroke:#ffffff;stroke-width:1.50000000000000000;stroke-miterlimit:4;stroke-dasharray:none;stroke-opacity:1"
         inkscape:connector-curvature="0"
         d="m 542.33339,124.09555 -20.417,-8.1374 c 0,0 -11.308,-14.084 -12.25,-15.649 -0.94231,-1.564902 -10.051,-14.084007 -10.051,-14.084007 l 5.6538,-4.0687 34.237,-12.832 14.135,-4.3818 19.788,-5.3207 6.9102,-5.9467 -2.8269,-7.8244 -13.82,-7.1986 -9.4231,-1.8779 c 0,0 -8.1666,-9.7024 -6.9102,-9.7024 1.2564,0 25.128,14.71 25.128,14.71 l 16.333,3.4428 8.4808,10.015 -3.4551,0.31299 1.2564,1.8779 -6.9103,2.5039 5.3398,15.023 -8.1667,3.7558 -4.3974,6.2596 -17.276,15.336007 -12.25,10.954 -8.1667,4.3817 z"
         id="path9145" />
      <path
         inkscape:connector-curvature="0"
         style="fill:none;stroke:#ffffff;stroke-width:1.50000000000000000;stroke-miterlimit:4;stroke-dasharray:none;stroke-opacity:1"
         d="m 592.54239,47.315543 -35.503,-28.619 -15.915,7.3482 33.462,17.791001 z"
         id="path9147" />
      <path
         style="fill:none;stroke:#ffffff;stroke-width:1.50000000000000000;stroke-opacity:1;stroke-miterlimit:4;stroke-dasharray:none"
         inkscape:connector-curvature="0"
         d="m 578.76939,53.355544 c 0,0 -13.398,-0.72485 -20.103,-0.93894 -6.0704,-0.193911 -12.178,-0.95325 -18.218,-0.31299 -12.829,1.36 -26.612,2.1783 -37.692,8.7634 -13.569,8.0638 -32.667,35.992999 -31.41,35.366999 1.2564,-0.62596 27.327,-8.4505 27.327,-8.4505 l 6.5961,-5.6336 c 0,0 31.854,-11.62 48.058,-16.588 6.5299,-2.0021 19.788,-5.3207 19.788,-5.3207 z"
         id="path9153" />
      <path
         style="fill:none;stroke:#ffffff;stroke-width:1.50000000000000000;stroke-miterlimit:4;stroke-dasharray:none;stroke-opacity:1"
         inkscape:connector-curvature="0"
         d="m 494.27339,68.685543 8.1666,-7.511599 32.038,-8.450401 c 0,0 2.8269,-0.625979 2.1987,-1.877899 -0.6282,-1.25192 0,-2.5038 -2.8269,-4.3817 -2.8269,-1.8779 -20.747,-6.163801 -31.41,-7.8245 -4.7686,-0.742711 -11.406,-4.328001 -18.002,-1.824201 -6.5961,2.503801 -14.978,18.099 -14.978,18.099 l 3.7692,8.1375 z"
         id="path9155" />
      <path
         style="fill:none;stroke:#ffffff;stroke-width:1.50000000000000000;stroke-miterlimit:4;stroke-dasharray:none;stroke-opacity:1"
         inkscape:connector-curvature="0"
         d="m 473.23339,63.365544 -10.051,5.946599 -19.474,-0.938949 -17.904,-17.214 2.5128,-1.5649 6.2821,4.6946 16.019,2.5038 13.192,2.190899 h 7.5384 z"
         id="path9157" />
      <path
         style="fill:none;stroke:#ffffff;stroke-width:1.50000000000000000;stroke-miterlimit:4;stroke-dasharray:none;stroke-opacity:1"
         inkscape:connector-curvature="0"
         d="m 443.70339,68.995543 -16.962,-17.214 -13.192,-6.8856 -22.615,-10.641 -18.846,-0.31299 18.218,15.023001 23.558,12.832 14.763,6.885599 h 13.506 z"
         id="path9159" />
      <path
         style="fill:none;stroke:#ffffff;stroke-width:1.50000000000000000;stroke-miterlimit:4;stroke-dasharray:none;stroke-opacity:1"
         inkscape:connector-curvature="0"
         d="m 392.19339,33.005543 35.798,6.8856 c 0,0 0.32334,2.503901 1.8938,6.2596 1.5705,3.7558 2.827,4.381701 0,5.6337 -2.8269,1.2519 -8.1666,-2.5039 -8.1666,-2.5039 z"
         id="path9161" />
      <path
         style="fill:none;stroke:#ffffff;stroke-width:1.50000000000000000;stroke-miterlimit:4;stroke-dasharray:none;stroke-opacity:1"
         inkscape:connector-curvature="0"
         d="m 494.59339,69.315543 -10.994,13.458 -12.564,12.832 c -25.106,-6.055 -36.159,-16.777999 -47.411,-27.435 l 37.36,0.83153 13.506,-5.9466 z"
         id="path9163" />
      <path
         inkscape:connector-curvature="0"
         style="fill:none;stroke:#ffffff;stroke-width:1.5;stroke-opacity:1;stroke-miterlimit:4;stroke-dasharray:none"
         d="m 542.64339,122.49555 4.7654,20.764 -11.676,1.4576 -3.7692,-2.8169 -1.5482,2.1687 -31.118,0.6482 -6.282,-4.0688 -1.8846,3.7558 -39.608,-0.8853 16.118,-9.7783 19.093,9.0987 -16.019,-10.328 c 0,0 7.5384,0 12.878,-0.939 5.3397,-0.9389 18.846,-10.328 18.846,-10.328 l 15.391,-10.328 19.183,25.061 -14.471,-2.2131 13.506,2.5038 -7.5384,-16.275 z"
         id="path9165" />
      <path
         inkscape:connector-curvature="0"
         style="fill:#000000;stroke:#ffffff;stroke-width:1.50000000000000000;stroke-opacity:1;stroke-miterlimit:4;stroke-dasharray:none;fill-opacity:1"
         d="m 470.09339,130.99555 -1.2564,5.6336 c -7.2397,-5.7447 -30.56,-6.4882 -34.237,-12.519 -1.2564,-2.1909 -5.968,-13.145 -5.968,-13.145 -6.5359,-3.8403 -5.6179,-6.3491 -8.1667,0 l 6.282,-9.3894 c 0,0 5.6539,3.4428 7.2244,5.9466 1.5705,2.5039 3.7692,7.8246 3.7692,7.8246 -0.18833,5.8363 9.5515,7.7887 19.16,10.328 z"
         id="path9167" />
      <path
         style="fill:none;stroke:#ffffff;stroke-width:1.50000000000000000;stroke-opacity:1;stroke-miterlimit:4;stroke-dasharray:none"
         inkscape:connector-curvature="0"
         d="m 470.09339,104.48555 -8.7948,10.641 -14.449,3.4428 c 0,0 -6.533,-10.954 -10.302,-15.023 -3.7692,-4.068802 -13.57,-15.336006 -13.57,-15.336006 0,0 -17.768,-4.5872 -15.884,-4.2742 1.8846,0.31299 62.999,20.549006 62.999,20.549006 z"
         id="path9175" />
      <path
         inkscape:connector-curvature="0"
         style="fill:#000000;stroke:#ffffff;stroke-width:1.50000000000000000;stroke-miterlimit:4;stroke-dasharray:none;stroke-opacity:1;fill-opacity:1"
         d="m 417.32339,110.62555 12.56,-12.520002 -53.83,-35.820004 c -7.0672,2.268999 -12.276,3.714999 -10.994,11.893 z"
         id="path9169" />
      <path
         style="fill:none;stroke:#ffffff;stroke-width:1.39999999999999991;stroke-linecap:square;stroke-miterlimit:4;stroke-dasharray:none;stroke-opacity:1"
         inkscape:connector-curvature="0"
         d="m 481.53069,115.47773 a 10.549254,10.478607 0 1 0 21.09799,0 10.549254,10.478607 0 1 0 -21.09799,0 z"
         id="path9171" />
      <path
         style="fill:none;stroke:#ffffff;stroke-width:1.5;stroke-linecap:square;stroke-opacity:1;stroke-miterlimit:4;stroke-dasharray:none"
         inkscape:connector-curvature="0"
         d="m 489.40492,119.44271 c -0.33106,-0.23826 5.45102,0.3508 5.07844,0.51736 -0.3726,0.16656 3.03027,-4.52855 2.98884,-4.12373 -0.0415,0.40482 -2.42052,-4.87938 -2.08952,-4.64103 0.33106,0.23827 -5.45102,-0.3508 -5.07844,-0.51737 0.3726,-0.16657 -3.03027,4.52854 -2.98885,4.12372 0.0415,-0.40482 2.42053,4.87939 2.08953,4.64103 z"
         id="path9173" />
      <path
         style="fill:none;stroke:#ffffff;stroke-width:1.50000000000000000;stroke-miterlimit:4;stroke-dasharray:none;stroke-opacity:1"
         inkscape:connector-curvature="0"
         d="m 420.46339,86.525543 24.814,-7.824399 -3.4551,-2.8168 -20.731,7.1986 z"
         id="path9177" />
      <path
         style="fill:none;stroke:#ffffff;stroke-width:1.5;stroke-opacity:1;stroke-miterlimit:4;stroke-dasharray:none"
         inkscape:connector-curvature="0"
         d="m 420.14339,85.905543 c 1.2564,-0.62599 19.16,-12.519 19.16,-12.519 l -4.7115,-3.7558 -14.449,11.267 2.8269,3.4428 -1.8846,-2.5038 1.2564,0.93893"
         id="path9179" />
      <path
         style="fill:#ff6600;stroke:#000000;stroke-width:1.5438;filter:url(#filter3945-1)"
         inkscape:connector-curvature="0"
         transform="matrix(-0.31094,0,0,0.30983,493.33339,-21.074456)"
         d="m -214.29,340.93 57.143,28.571 -14.286,45.714 48.571,-54.286 -114.29,-45.714 z"
         id="path9185" />
      <path
         style="opacity:0.97072999000000004;fill:none;stroke:#ffffff;stroke-width:1.50000000000000000;stroke-linecap:square;stroke-miterlimit:4;stroke-dasharray:none;stroke-opacity:1"
         inkscape:connector-curvature="0"
         d="m 566.82818,67.745993 a 3.769215,4.3816162 0 0 0 7.53843,0 3.769215,4.3816162 0 1 0 -7.53843,0 z"
         id="path9187" />
      <path
         style="opacity:0.75121999;fill:none;stroke:#292626;stroke-width:0.47918001"
         inkscape:connector-curvature="0"
         d="m 570.58939,69.835544 c 0,0 0.62841,-5.5621 1.5603,-8.2418 1.2309,-3.5399 2.0738,-7.1548 2.0738,-7.1548"
         id="path9189" />
      <path
         inkscape:connector-curvature="0"
         style="opacity:0.50731996999999995;fill:none;stroke:#ffffff;stroke-width:1.50000000000000000;stroke-miterlimit:4;stroke-dasharray:none;fill-opacity:1;stroke-opacity:1"
         d="m 596.85439,54.005544 c 0,0 12.73,10.920999 11.203,17.223999 -1.0853,4.481 -15.309,4.1566 -15.309,4.1566 l -5.4977,-14.997 z"
         id="path9191" />
      <rect
         style="fill:none;stroke:none"
         id="rect9193"
         width="266.46399"
         height="142.09599"
         x="-631.08911"
         y="18.457048"
         ry="0"
         transform="scale(-1,1)" />
    </g>
    <path
       inkscape:connector-curvature="0"
       style="fill:none;stroke:#ffffff;stroke-width:1.5;stroke-linecap:square;stroke-opacity:1;stroke-miterlimit:4;stroke-dasharray:none"
       d="m 685.37374,118.54927 c -20.23104,3.56795 -39.53886,-9.99257 -43.13025,-30.285753 -3.59135,-20.29325 9.89423,-39.63751 30.12418,-43.20529 20.22998,-3.56792 39.53864,9.99256 43.13015,30.28577 3.59147,20.29328 -9.89424,39.637443 -30.12408,43.205273 z m -2.12386,-11.02744 c 0.0552,-0.0107 0.11112,-0.0205 0.16694,-0.0305 6.0663,-1.06998 11.26292,-4.16767 15.02515,-8.476213 -1.726,-1.76969 -3.55942,-4.41822 -5.33777,-7.16137 3.11859,0.85393 6.16653,1.80022 8.3534,2.92285 2.91661,-5.10873 4.13273,-11.23443 3.02563,-17.49091 -0.007,-0.0401 -0.0145,-0.08 -0.0203,-0.12097 -2.42783,0.29678 -5.64538,0.0951 -8.89981,-0.21586 2.59065,-1.98046 5.20421,-3.85896 7.41577,-4.89987 -2.31437,-5.74718 -6.55659,-10.36502 -11.80732,-13.20394 -1.28536,2.0667 -3.32223,4.41033 -5.46007,6.71635 0.0822,-3.1684 0.25113,-6.29359 0.75708,-8.68524 -3.81298,-1.17752 -7.94642,-1.50142 -12.14317,-0.76129 -1.78902,0.31601 -3.49846,0.80963 -5.12199,1.45694 0.79607,2.34327 1.32812,5.49402 1.77278,8.69839 -2.46124,-2.15388 -4.83302,-4.34779 -6.33709,-6.32721 -5.12263,3.35137 -8.89208,8.43229 -10.65899,14.27458 2.41364,0.74465 5.4469,2.48401 8.47273,4.3426 -3.50735,0.68453 -6.98781,1.23245 -9.50958,1.0403 -0.18061,2.19482 -0.0856,4.44894 0.31647,6.72084 0.72711,4.10641 2.38307,7.8173 4.70053,10.95965 2.04942,-1.49123 5.28397,-2.85533 8.60787,-4.12862 -1.60012,3.17444 -3.28186,6.24262 -4.94073,8.159653 4.47873,3.9799 10.28398,6.38694 16.48064,6.5744 0.24102,-2.49345 1.11253,-5.64953 2.09392,-8.816533 1.31031,3.008823 2.51749,6.015163 3.04893,8.452553 z m -3.04904,-8.452673 c -0.46629,-1.07116 -0.92661,-2.1338 -1.39485,-3.17879 -3.79382,0.15166 -7.38828,-1.18157 -10.12726,-3.53922 -0.70485,0.26186 -1.40512,0.52982 -2.1119,0.80058 0.32206,-0.63927 0.63616,-1.27246 0.95078,-1.91143 -1.85086,-1.98519 -3.1719,-4.5022 -3.67949,-7.37015 -0.27101,-1.53107 -0.28944,-3.05405 -0.0886,-4.51611 -0.43042,-0.26882 -0.86497,-0.5286 -1.29787,-0.79448 0.49816,-0.0985 0.99412,-0.19337 1.4908,-0.29485 0.89582,-4.13839 3.57873,-7.72272 7.33868,-9.75196 -0.0967,-0.74817 -0.20136,-1.49154 -0.30567,-2.24317 0.59425,0.52016 1.18067,1.03494 1.77579,1.54528 0.93435,-0.377 1.91457,-0.66097 2.94663,-0.84342 2.77099,-0.48879 5.50231,-0.16094 7.93786,0.80319 0.69162,-0.72995 1.38066,-1.46557 2.07473,-2.214 -0.0279,1.0741 -0.0476,2.13872 -0.0638,3.196 2.94665,1.72482 5.27625,4.46451 6.43159,7.83507 1.14696,0.12253 2.3106,0.24435 3.48383,0.35657 -0.96455,0.73743 -1.92293,1.47494 -2.85787,2.20598 0.5059,3.34531 -0.18217,6.6048 -1.74569,9.35037 0.6964,1.09921 1.41772,2.22644 2.14584,3.34913 -1.2749,-0.34913 -2.55041,-0.68635 -3.79265,-1.01218 -2.0148,2.32989 -4.77785,4.04305 -8.00393,4.73192 -0.36922,1.14835 -0.74156,2.31549 -1.1071,3.49475 z"
       id="path9264"
       inkscape:export-filename="/home/dev/git/slick2dtest/res/svg/frames-wheel/frame01.png"
       inkscape:export-xdpi="900"
       inkscape:export-ydpi="900" />
    <path
       inkscape:connector-curvature="0"
       style="fill:none;stroke:#ffffff;stroke-width:1.5;stroke-miterlimit:4;stroke-opacity:1;stroke-dasharray:none"
       d="m 477.78339,272.59555 c 1.2564,-0.313 13.623,-2.7946 13.623,-2.7946 l 27.21,-16.221 -17.742,-25.45001 -31.096,8.7635 -5.0256,-1.5649 -0.62821,13.77101 8.4808,9.0763 c 0,0 -14.449,5.0077 -12.564,5.6337 1.8846,0.626 17.742,8.7857 17.742,8.7857 z"
       id="path9268" />
    <rect
       style="fill:none;stroke:#ffffff;stroke-width:1.50590134;stroke-miterlimit:4;stroke-opacity:1;stroke-dasharray:none"
       id="rect9270"
       width="7.9264555"
       height="42.22086"
       x="-322.99207"
       y="482.48431"
       ry="4.0313597"
       transform="matrix(-0.87394076,0.48603245,0.59132718,0.80643175,0,0)" />
    <path
       sodipodi:type="arc"
       style="fill:#000000;fill-opacity:1;stroke:none"
       id="path9272"
       sodipodi:cx="46.247837"
       sodipodi:cy="156.26125"
       sodipodi:rx="0.85380626"
       sodipodi:ry="0.85380626"
       d="m 47.101643,156.26125 a 0.85380626,0.85380626 0 1 1 -1.707612,0 0.85380626,0.85380626 0 1 1 1.707612,0 z"
       transform="matrix(-1,0,0,1,633.43188,109.0959)" />
    <path
       style="fill:#000000;fill-opacity:1;stroke:#ffffff;stroke-width:1.5;stroke-miterlimit:4;stroke-opacity:1;stroke-dasharray:none"
       inkscape:connector-curvature="0"
       d="m 573.36839,225.00554 c 14.265,0.99347 29.119,1.0066 39.117,9.1013 l -14.565,3.1656 -3.3291,-4.3527 -18.726,-0.39579 -13.733,3.9572 z"
       id="path9274" />
    <path
       style="fill:none;stroke:#ffffff;stroke-width:1.5;stroke-miterlimit:4;stroke-opacity:1;stroke-dasharray:none"
       inkscape:connector-curvature="0"
       d="m 542.33339,264.09555 -20.417,-8.1374 c 0,0 -11.308,-14.084 -12.25,-15.649 -0.94231,-1.5649 -10.051,-14.08401 -10.051,-14.08401 l 5.6538,-4.0687 34.237,-12.832 14.135,-4.3818 19.788,-5.3207 6.9102,-5.9467 -2.8269,-7.8244 -13.82,-7.1986 -9.4231,-1.8779 c 0,0 -8.1666,-9.7024 -6.9102,-9.7024 1.2564,0 25.128,14.71 25.128,14.71 l 16.333,3.4428 8.4808,10.015 -3.4551,0.31299 1.2564,1.8779 -6.9103,2.5039 5.3398,15.023 -8.1667,3.7558 -4.3974,6.2596 -17.276,15.33601 -12.25,10.954 -8.1667,4.3817 z"
       id="path9276" />
    <path
       inkscape:connector-curvature="0"
       style="fill:none;stroke:#ffffff;stroke-width:1.5;stroke-miterlimit:4;stroke-opacity:1;stroke-dasharray:none"
       d="m 592.54239,187.31554 -35.503,-28.619 -15.915,7.3482 33.462,17.791 z"
       id="path9278" />
    <path
       style="fill:none;stroke:#ffffff;stroke-width:1.5;stroke-miterlimit:4;stroke-opacity:1;stroke-dasharray:none"
       inkscape:connector-curvature="0"
       d="m 578.76939,193.35554 c 0,0 -13.398,-0.72485 -20.103,-0.93894 -6.0704,-0.19391 -12.178,-0.95325 -18.218,-0.31299 -12.829,1.36 -26.612,2.1783 -37.692,8.7634 -13.569,8.0638 -32.667,35.993 -31.41,35.367 1.2564,-0.62596 27.327,-8.4505 27.327,-8.4505 l 6.5961,-5.6336 c 0,0 31.854,-11.62 48.058,-16.588 6.5299,-2.0021 19.788,-5.3207 19.788,-5.3207 z"
       id="path9280" />
    <path
       style="fill:none;stroke:#ffffff;stroke-width:1.5;stroke-miterlimit:4;stroke-opacity:1;stroke-dasharray:none"
       inkscape:connector-curvature="0"
       d="m 494.27339,208.68554 8.1666,-7.5116 32.038,-8.4504 c 0,0 2.8269,-0.62598 2.1987,-1.8779 -0.6282,-1.25192 0,-2.5038 -2.8269,-4.3817 -2.8269,-1.8779 -20.747,-6.1638 -31.41,-7.8245 -4.7686,-0.74271 -11.406,-4.328 -18.002,-1.8242 -6.5961,2.5038 -14.978,18.099 -14.978,18.099 l 3.7692,8.1375 z"
       id="path9282" />
    <path
       style="fill:none;stroke:#ffffff;stroke-width:1.5;stroke-miterlimit:4;stroke-opacity:1;stroke-dasharray:none"
       inkscape:connector-curvature="0"
       d="m 473.23339,203.36554 -10.051,5.9466 -19.474,-0.93895 -17.904,-17.214 2.5128,-1.5649 6.2821,4.6946 16.019,2.5038 13.192,2.1909 h 7.5384 z"
       id="path9284" />
    <path
       style="fill:none;stroke:#ffffff;stroke-width:1.5;stroke-miterlimit:4;stroke-opacity:1;stroke-dasharray:none"
       inkscape:connector-curvature="0"
       d="m 443.70339,208.99554 -16.962,-17.214 -13.192,-6.8856 -22.615,-10.641 -18.846,-0.31299 18.218,15.023 23.558,12.832 14.763,6.8856 h 13.506 z"
       id="path9286" />
    <path
       style="fill:none;stroke:#ffffff;stroke-width:1.5;stroke-miterlimit:4;stroke-opacity:1;stroke-dasharray:none"
       inkscape:connector-curvature="0"
       d="m 392.19339,173.00554 35.798,6.8856 c 0,0 0.32334,2.5039 1.8938,6.2596 1.5705,3.7558 2.827,4.3817 0,5.6337 -2.8269,1.2519 -8.1666,-2.5039 -8.1666,-2.5039 z"
       id="path9288" />
    <path
       style="fill:none;stroke:#ffffff;stroke-width:1.5;stroke-miterlimit:4;stroke-opacity:1;stroke-dasharray:none"
       inkscape:connector-curvature="0"
       d="m 494.59339,209.31554 -10.994,13.458 -12.564,12.832 c -25.106,-6.055 -36.159,-16.778 -47.411,-27.435 l 37.36,0.83153 13.506,-5.9466 z"
       id="path9290" />
    <path
       inkscape:connector-curvature="0"
       style="fill:none;stroke:#ffffff;stroke-width:1.5;stroke-miterlimit:4;stroke-opacity:1;stroke-dasharray:none"
       d="m 542.64339,262.49555 4.7654,20.764 -11.676,1.4576 -3.7692,-2.8169 -1.5482,2.1687 -31.118,0.6482 -6.282,-4.0688 -1.8846,3.7558 -39.608,-0.8853 16.118,-9.7783 19.093,9.0987 -16.019,-10.328 c 0,0 7.5384,0 12.878,-0.939 5.3397,-0.9389 18.846,-10.328 18.846,-10.328 l 15.391,-10.328 19.183,25.061 -14.471,-2.2131 13.506,2.5038 -7.5384,-16.275 z"
       id="path9292" />
    <path
       inkscape:connector-curvature="0"
       style="fill:#000000;fill-opacity:1;stroke:#ffffff;stroke-width:1.5;stroke-miterlimit:4;stroke-opacity:1;stroke-dasharray:none"
       d="m 470.09339,270.99555 -1.2564,5.6336 c -7.2397,-5.7447 -30.56,-6.4882 -34.237,-12.519 -1.2564,-2.1909 -5.968,-13.145 -5.968,-13.145 -6.5359,-3.8403 -5.6179,-6.3491 -8.1667,0 l 6.282,-9.3894 c 0,0 5.6539,3.4428 7.2244,5.9466 1.5705,2.5039 3.7692,7.8246 3.7692,7.8246 -0.18833,5.8363 9.5515,7.7887 19.16,10.328 z"
       id="path9294" />
    <path
       style="fill:none;stroke:#ffffff;stroke-width:1.5;stroke-miterlimit:4;stroke-opacity:1;stroke-dasharray:none"
       inkscape:connector-curvature="0"
       d="m 470.09339,244.48555 -8.7948,10.641 -14.449,3.4428 c 0,0 -6.533,-10.954 -10.302,-15.023 -3.7692,-4.0688 -13.57,-15.33601 -13.57,-15.33601 0,0 -17.768,-4.5872 -15.884,-4.2742 1.8846,0.31299 62.999,20.54901 62.999,20.54901 z"
       id="path9296" />
    <path
       inkscape:connector-curvature="0"
       style="fill:#000000;fill-opacity:1;stroke:#ffffff;stroke-width:1.5;stroke-miterlimit:4;stroke-opacity:1;stroke-dasharray:none"
       d="m 417.32339,250.62555 12.56,-12.52 -53.83,-35.82001 c -7.0672,2.269 -12.276,3.715 -10.994,11.893 z"
       id="path9298" />
    <path
       style="fill:none;stroke:#ffffff;stroke-width:1.39999998;stroke-linecap:square;stroke-miterlimit:4;stroke-opacity:1;stroke-dasharray:none"
       inkscape:connector-curvature="0"
       d="m 481.53069,255.47773 a 10.549254,10.478607 0 1 0 21.09799,0 10.549254,10.478607 0 1 0 -21.09799,0 z"
       id="path9300" />
    <path
       style="fill:none;stroke:#ffffff;stroke-width:1.5;stroke-linecap:square;stroke-miterlimit:4;stroke-opacity:1;stroke-dasharray:none"
       inkscape:connector-curvature="0"
       d="m 489.40492,259.44271 c -0.33106,-0.23826 5.45102,0.3508 5.07844,0.51736 -0.3726,0.16656 3.03027,-4.52855 2.98884,-4.12373 -0.0415,0.40482 -2.42052,-4.87938 -2.08952,-4.64103 0.33106,0.23827 -5.45102,-0.3508 -5.07844,-0.51737 0.3726,-0.16657 -3.03027,4.52854 -2.98885,4.12372 0.0415,-0.40482 2.42053,4.87939 2.08953,4.64103 z"
       id="path9302" />
    <path
       style="fill:none;stroke:#ffffff;stroke-width:1.5;stroke-miterlimit:4;stroke-opacity:1;stroke-dasharray:none"
       inkscape:connector-curvature="0"
       d="m 420.46339,226.52554 24.814,-7.8244 -3.4551,-2.8168 -20.731,7.1986 z"
       id="path9304" />
    <path
       style="fill:none;stroke:#ffffff;stroke-width:1.5;stroke-miterlimit:4;stroke-opacity:1;stroke-dasharray:none"
       inkscape:connector-curvature="0"
       d="m 420.14339,225.90554 c 1.2564,-0.62599 19.16,-12.519 19.16,-12.519 l -4.7115,-3.7558 -14.449,11.267 2.8269,3.4428 -1.8846,-2.5038 1.2564,0.93893"
       id="path9306" />
    <path
       style="fill:#ff6600;stroke:#000000;stroke-width:1.5438;filter:url(#filter3945-1)"
       inkscape:connector-curvature="0"
       transform="matrix(-0.31094,0,0,0.30983,493.33339,118.92554)"
       d="m -214.29,340.93 57.143,28.571 -14.286,45.714 48.571,-54.286 -114.29,-45.714 z"
       id="path9308" />
    <path
       style="opacity:0.97072999;fill:none;stroke:#ffffff;stroke-width:1.5;stroke-linecap:square;stroke-miterlimit:4;stroke-opacity:1;stroke-dasharray:none"
       inkscape:connector-curvature="0"
       d="m 566.82818,207.74599 a 3.769215,4.3816162 0 0 0 7.53843,0 3.769215,4.3816162 0 1 0 -7.53843,0 z"
       id="path9310" />
    <path
       style="opacity:0.75121999;fill:none;stroke:#292626;stroke-width:0.47918001"
       inkscape:connector-curvature="0"
       d="m 570.58939,209.83554 c 0,0 0.62841,-5.5621 1.5603,-8.2418 1.2309,-3.5399 2.0738,-7.1548 2.0738,-7.1548"
       id="path9312" />
    <path
       inkscape:connector-curvature="0"
       style="opacity:0.50731997;fill:none;stroke:#ffffff;stroke-width:1.5;stroke-miterlimit:4;stroke-opacity:1;stroke-dasharray:none"
       d="m 596.85439,194.00554 c 0,0 12.73,10.921 11.203,17.224 -1.0853,4.481 -15.309,4.1566 -15.309,4.1566 l -5.4977,-14.997 z"
       id="path9314" />
    <rect
       style="fill:none;stroke:none"
       id="rect9316"
       width="266.46399"
       height="142.09599"
       x="-631.08911"
       y="158.45705"
       ry="0"
       transform="scale(-1,1)" />
    <path
       inkscape:export-ydpi="900"
       inkscape:export-xdpi="900"
       inkscape:export-filename="/home/dev/git/slick2dtest/res/svg/sprite-wheel.png"
       id="path9345"
       d="m 682.14641,218.97622 c -20.46502,1.79112 -38.51749,-13.40058 -40.32655,-33.92955 -1.80901,-20.52904 13.31122,-38.62434 33.77514,-40.41539 20.46396,-1.79118 38.51727,13.40056 40.32645,33.92957 1.80912,20.52907 -13.31122,38.62427 -33.77504,40.41537 z m -1.15467,-11.17058 c 0.0559,-0.006 0.11248,-0.0107 0.16896,-0.0158 6.13647,-0.53719 11.5833,-3.17018 15.70673,-7.13442 -1.5652,-1.91339 -3.16081,-4.71163 -4.69331,-7.59934 3.0323,1.12248 5.98617,2.33082 8.06687,3.63978 3.35077,-4.8351 5.09615,-10.83149 4.53855,-17.16066 -0.003,-0.0405 -0.007,-0.081 -0.01,-0.12227 -2.44446,0.084 -5.63218,-0.39729 -8.84713,-0.99071 2.7534,-1.74714 5.52074,-3.3907 7.8146,-4.2349 -1.80466,-5.92702 -5.62826,-10.89702 -10.61159,-14.18277 -1.46059,1.94681 -3.69397,4.10399 -6.02466,6.21491 0.35803,-3.14917 0.7987,-6.24775 1.51117,-8.5862 -3.69584,-1.50536 -7.78532,-2.18828 -12.03061,-1.81674 -1.80975,0.15888 -3.55571,0.50164 -5.22948,1.00498 0.58881,2.40374 0.84423,5.58887 1.00792,8.8198 -2.26415,-2.36019 -4.43569,-4.75247 -5.76152,-6.85545 -5.39523,2.89215 -9.59317,7.62521 -11.86254,13.29127 2.33955,0.95218 5.20967,2.94929 8.062,5.06453 -3.55366,0.37623 -7.06863,0.61873 -9.56406,0.20752 -0.37121,2.17073 -0.47302,4.42455 -0.27049,6.72285 0.36644,4.15416 1.69268,7.99525 3.72744,11.32762 2.17159,-1.30693 5.51272,-2.38393 8.93495,-3.36268 -1.8707,3.0229 -3.81345,5.93283 -5.63309,7.69799 4.11482,4.3551 9.68819,7.25894 15.84493,7.98576 0.45742,-2.46295 1.60069,-5.53107 2.85436,-8.60048 1.04309,3.11157 1.98366,6.21168 2.30064,8.68611 z m -2.30074,-8.68625 c -0.37116,-1.10772 -0.73711,-2.20644 -1.11249,-3.28826 -3.7926,-0.17957 -7.25719,-1.82101 -9.78026,-4.4084 -0.72499,0.19943 -1.44595,0.40534 -2.17364,0.61347 0.37655,-0.60877 0.74464,-1.21218 1.11375,-1.82129 -1.67079,-2.13895 -2.76743,-4.76152 -3.02313,-7.6628 -0.13654,-1.54886 -0.0222,-3.06765 0.30534,-4.50664 -0.40536,-0.30531 -0.81561,-0.60198 -1.22369,-0.90458 0.50485,-0.0547 1.00719,-0.10599 1.51082,-0.16379 1.2531,-4.04457 4.2382,-7.38143 8.1607,-9.07525 -0.0311,-0.75375 -0.0706,-1.50341 -0.109,-2.26127 0.54665,0.56997 1.08597,1.1339 1.63435,1.69417 0.96365,-0.29413 1.96489,-0.49159 3.00892,-0.5834 2.80305,-0.24542 5.4954,0.31923 7.83766,1.49197 0.7526,-0.6669 1.50314,-1.33966 2.25979,-2.02475 -0.1214,1.06758 -0.23382,2.12643 -0.3421,3.17828 2.78511,1.97507 4.86706,4.90737 5.72424,8.3658 1.13192,0.22203 2.28051,0.4448 3.4395,0.65885 -1.02515,0.65056 -2.04416,1.30173 -3.03926,1.94851 0.21241,3.37667 -0.75712,6.56379 -2.55399,9.16264 0.59795,1.15572 1.21828,2.34153 1.84578,3.52341 -1.23962,-0.45892 -2.48088,-0.90603 -3.69,-1.33888 -2.2102,2.14542 -5.11204,3.61124 -8.38589,4.01632 -0.4679,1.1118 -0.94054,2.24205 -1.40747,3.38496 z"
       style="fill:none;stroke:#ffffff;stroke-width:1.5;stroke-linecap:square;stroke-miterlimit:4;stroke-opacity:1;stroke-dasharray:none"
       inkscape:connector-curvature="0" />
    <path
       inkscape:export-ydpi="900"
       inkscape:export-xdpi="900"
       inkscape:export-filename="/home/dev/git/slick2dtest/res/svg/frames-wheel/frame03.png"
       id="path9366"
       d="m 678.89415,319.12027 c -20.54325,6.6e-4 -37.20298,-16.70661 -37.21594,-37.31513 -0.0129,-20.60859 16.6269,-37.31721 37.16905,-37.3179 20.5422,-8.1e-4 37.20276,16.70657 37.21584,37.31514 0.013,20.60862 -16.6269,37.31714 -37.16895,37.31789 z m -0.1767,-11.22871 c 0.0562,-0.001 0.11299,-8.6e-4 0.1697,-0.001 6.15994,-3.1e-4 11.81552,-2.14856 16.26877,-5.73833 -1.39249,-2.04253 -2.73814,-4.96919 -4.01313,-7.97948 2.92293,1.3825 5.76025,2.84368 7.71895,4.32901 3.75942,-4.52466 6.02078,-10.34612 6.01693,-16.6998 5.4e-4,-0.0406 8e-5,-0.0813 6.9e-4,-0.12268 -2.44248,-0.12936 -5.57612,-0.88665 -8.72712,-1.75801 2.8952,-1.50052 5.79525,-2.89664 8.15396,-3.5377 -1.28122,-6.06175 -4.6571,-11.34609 -9.3351,-15.05366 -1.62471,1.8121 -4.0376,3.76642 -6.5434,5.66617 0.63114,-3.10598 1.34019,-6.15436 2.25376,-8.42182 -3.55058,-1.82174 -7.56498,-2.85848 -11.82649,-2.85836 -1.81671,5.5e-4 -3.5859,0.18983 -5.29717,0.54538 0.37707,2.44591 0.35391,5.64118 0.23539,8.87408 -2.04983,-2.54854 -4.00461,-5.12098 -5.14211,-7.33151 -5.62676,2.41092 -10.22124,6.76009 -12.97581,12.2068 2.24766,1.15246 4.9328,3.39212 7.58992,5.74791 -3.57293,0.0651 -7.09566,3e-4 -9.54575,-0.62683 -0.55899,2.13011 -0.85685,4.36648 -0.8554,6.67369 0.003,4.17029 0.98941,8.11235 2.72599,11.60938 2.27723,-1.11269 5.69952,-1.89439 9.19403,-2.57115 -2.12705,2.84836 -4.31602,5.57789 -6.28258,7.17774 3.71959,4.69716 9.01867,8.0757 15.08863,9.33635 0.67034,-2.41371 2.07666,-5.37051 3.59308,-8.31898 0.76793,3.19064 1.43473,6.36093 1.53484,8.85357 z m -1.53492,-8.85372 c -0.27321,-1.13585 -0.54201,-2.26229 -0.82167,-3.37271 -3.76252,-0.50943 -7.07086,-2.44658 -9.35883,-5.24403 -0.73961,0.13549 -1.47577,0.27778 -2.21883,0.42169 0.42817,-0.57363 0.84745,-1.14266 1.26825,-1.71729 -1.47801,-2.27643 -2.34191,-4.9846 -2.34377,-7.89712 -0.001,-1.55487 0.24524,-3.05791 0.69695,-4.46288 -0.3772,-0.33948 -0.76004,-0.67077 -1.14019,-1.00779 0.5077,-0.0105 1.0126,-0.0178 1.51935,-0.0315 1.60084,-3.91996 4.8654,-6.98396 8.9206,-8.32946 0.0347,-0.7536 0.0607,-1.50385 0.0885,-2.26217 0.49489,0.61545 0.98301,1.22424 1.48047,1.83017 0.98562,-0.20903 2.00026,-0.31847 3.04832,-0.31894 2.81377,-1.8e-4 5.44667,0.79697 7.6778,2.16939 0.80786,-0.59877 1.61418,-1.20355 2.42766,-1.82009 -0.21398,1.05294 -0.41826,2.09796 -0.6178,3.13637 2.60237,2.21029 4.42083,5.31289 4.97333,8.83287 1.10826,0.31983 2.23306,0.64186 3.36899,0.95611 -1.07795,0.55874 -2.14984,1.11862 -3.19752,1.67621 -0.0827,3.38233 -1.32631,6.47282 -3.34285,8.90518 0.49495,1.20343 1.00957,2.4388 1.53167,3.67087 -1.1949,-0.56521 -2.39247,-1.11881 -3.55927,-1.65539 -2.38877,1.94462 -5.40732,3.15195 -8.70402,3.27016 -0.56302,1.06679 -1.13237,2.15154 -1.69713,3.24941 z"
       style="fill:none;stroke:#ffffff;stroke-width:1.5;stroke-linecap:square;stroke-miterlimit:4;stroke-opacity:1;stroke-dasharray:none"
       inkscape:connector-curvature="0" />
    <path
       inkscape:connector-curvature="0"
       style="fill:none;stroke:#ffffff;stroke-width:1.5;stroke-linecap:square;stroke-miterlimit:4;stroke-opacity:1;stroke-dasharray:none"
       d="m 675.64171,418.98032 c -20.46513,-1.78981 -35.60533,-19.88549 -33.82209,-40.41672 1.7833,-20.53129 19.81604,-35.72608 40.28008,-33.9364 20.4641,1.78957 35.60512,19.88543 33.82199,40.41672 -1.78321,20.53133 -19.81603,35.72601 -40.27998,33.9364 z m 0.80262,-11.20138 c 0.0561,0.004 0.11264,0.009 0.16914,0.0138 6.13653,0.53656 11.95782,-1.11059 16.70699,-4.29858 -1.20917,-2.15612 -2.29462,-5.18892 -3.3024,-8.29888 2.79132,1.63199 5.49049,3.3349 7.31228,4.98529 4.13947,-4.17979 6.89959,-9.78201 7.44952,-16.11185 0.004,-0.0404 0.007,-0.081 0.0114,-0.12215 -2.42191,-0.34174 -5.47763,-1.36927 -8.54069,-2.51194 3.01496,-1.24247 6.02565,-2.38053 8.43126,-2.81357 -0.74803,-6.15035 -3.6505,-11.70881 -7.98756,-15.80998 -1.77647,1.6636 -4.3505,3.40018 -7.01234,5.07431 0.89944,-3.03915 1.87147,-6.01414 2.97919,-8.19335 -3.37829,-2.12426 -7.28706,-3.50693 -11.53236,-3.87822 -1.80985,-0.15779 -3.5888,-0.12343 -5.32455,0.0816 0.16246,2.46947 -0.1391,5.65056 -0.53893,8.86083 -1.81991,-2.7175 -3.54305,-5.45052 -4.48356,-7.75178 -5.81548,1.91134 -10.77153,5.84353 -13.99033,11.02944 2.13867,1.34397 4.61839,3.80913 7.06008,6.38754 -3.56501,-0.24655 -7.06869,-0.61813 -9.4548,-1.45641 -0.74251,2.07328 -1.23415,4.27518 -1.43379,6.57374 -0.36048,4.15468 0.27861,8.16771 1.70379,11.80279 2.36554,-0.90999 5.84294,-1.39044 9.38313,-1.76006 -2.3672,2.65214 -4.78574,5.1805 -6.88425,6.60287 3.29605,5.00347 8.28051,8.83099 14.2175,10.61588 0.87816,-2.3461 2.53683,-5.16908 4.30445,-7.97417 0.48693,3.24543 0.87488,6.46177 0.75736,8.95365 z m -0.75743,-8.95381 c -0.17317,-1.15534 -0.34277,-2.30092 -0.52459,-3.43149 -3.7038,-0.83542 -6.83072,-3.05354 -8.86617,-6.03975 -0.7486,0.0705 -1.49436,0.1481 -2.24714,0.2267 0.47654,-0.53413 0.94382,-1.06445 1.4131,-1.60022 -1.27398,-2.39658 -1.89856,-5.16974 -1.64657,-8.07134 0.13452,-1.54904 0.51082,-3.0249 1.08326,-4.38516 -0.34618,-0.37106 -0.69869,-0.73445 -1.04802,-1.10332 0.50669,0.0338 1.0103,0.0705 1.51632,0.10104 1.93639,-3.76553 5.45558,-6.53334 9.61261,-7.52029 0.10025,-0.7477 0.19154,-1.49283 0.28533,-2.24585 0.43936,0.65625 0.87257,1.30526 1.31532,1.95224 1.00009,-0.12233 2.02041,-0.14292 3.06452,-0.0521 2.80308,0.24506 5.35648,1.26865 7.45951,2.8303 0.85697,-0.52608 1.71293,-1.05828 2.57705,-1.60158 -0.30493,1.03029 -0.59951,2.05353 -0.8888,3.07059 2.39983,2.42869 3.94096,5.67798 4.18457,9.23272 1.07617,0.4152 2.16862,0.83404 3.27284,1.2461 -1.12254,0.46266 -2.23915,0.92699 -3.33144,1.39114 -0.37718,3.36226 -1.88541,6.3326 -4.10627,8.57995 0.38818,1.24199 0.79317,2.51751 1.2059,3.79039 -1.14109,-0.6672 -2.28585,-1.32307 -3.40145,-1.9593 -2.54916,1.72903 -5.66145,2.66868 -8.95591,2.49911 -0.65385,1.01366 -1.31558,2.04466 -1.97387,3.08913 z"
       id="path9368"
       inkscape:export-filename="/home/dev/git/slick2dtest/res/svg/sprite-wheel.png"
       inkscape:export-xdpi="900"
       inkscape:export-ydpi="900" />
    <path
       inkscape:export-ydpi="900"
       inkscape:export-xdpi="900"
       inkscape:export-filename="/home/dev/git/slick2dtest/res/svg/sprite-wheel.png"
       id="path9370"
       d="m 672.41385,518.55743 c -20.23127,-3.56665 -33.73671,-22.91303 -30.17084,-43.21071 3.56593,-20.29774 22.85437,-33.86305 43.08455,-30.29662 20.23026,3.56632 33.73651,22.91295 30.17074,43.2107 -3.56585,20.29779 -22.85435,33.86298 -43.08445,30.29663 z m 1.77583,-11.0888 c 0.0555,0.009 0.11142,0.0188 0.16729,0.0285 6.06641,1.06935 12.00911,-0.0642 17.01806,-2.82611 -1.01665,-2.25331 -1.83364,-5.36917 -2.56654,-8.55513 2.63846,1.86906 5.17894,3.80074 6.84996,5.60363 4.48801,-3.80311 7.72589,-9.14345 8.82541,-15.40127 0.008,-0.0399 0.014,-0.0801 0.022,-0.12069 -2.38291,-0.55153 -5.33745,-1.84147 -8.28926,-3.24675 3.11177,-0.97498 6.21019,-1.84631 8.64439,-2.06804 -0.20914,-6.19214 -2.61612,-11.98241 -6.57923,-16.44598 -1.91471,1.50244 -4.63029,3.00807 -7.42791,4.44384 1.16089,-2.94919 2.38851,-5.82815 3.68195,-7.90252 -3.1803,-2.41061 -6.95369,-4.12869 -11.15047,-4.86857 -1.78921,-0.31493 -3.56439,-0.43575 -5.3114,-0.38278 -0.0534,2.47423 -0.63105,5.61694 -1.30915,8.78014 -1.57614,-2.86577 -3.05453,-5.73857 -3.79089,-8.11305 -5.95993,1.39722 -11.23984,4.8825 -14.89837,9.76813 2.0134,1.52526 4.26883,4.19716 6.4765,6.97856 -3.52995,-0.55632 -6.98792,-1.23185 -9.29188,-2.2749 -0.92039,2.00067 -1.60206,4.15135 -2.00128,6.42376 -0.72121,4.10745 -0.43431,8.16091 0.66863,11.90637 2.43585,-0.70036 5.94189,-0.8759 9.50082,-0.93557 -2.58934,2.43573 -5.21904,4.74368 -7.43353,5.97774 2.84743,5.2717 7.47933,9.51908 13.23816,11.81462 1.0793,-2.26063 2.9777,-4.92831 4.98307,-7.56866 0.20222,3.27551 0.30837,6.51343 -0.0259,8.98558 z m 0.0258,-8.98575 c -0.0718,-1.16604 -0.14092,-2.32204 -0.22352,-3.46416 -3.61689,-1.15504 -6.53859,-3.63725 -8.30603,-6.7895 -0.75189,0.005 -1.50158,0.0173 -2.25834,0.03 0.52127,-0.49057 1.033,-0.97814 1.54719,-1.47098 -1.06026,-2.49849 -1.44077,-5.31553 -0.93684,-8.18413 0.26901,-1.53142 0.77251,-2.96887 1.46133,-4.27406 -0.31253,-0.39982 -0.63202,-0.79255 -0.94788,-1.19046 0.50182,0.0778 1.00031,0.15828 1.50175,0.23281 2.25721,-3.58243 6.00424,-6.03299 10.23147,-6.65388 0.16503,-0.73612 0.32092,-1.47046 0.47998,-2.21244 0.38049,0.69205 0.75549,1.37635 1.14016,2.05945 1.00695,-0.0347 2.02518,0.0337 3.0574,0.21519 2.77106,0.48843 5.22553,1.73067 7.18445,3.46967 0.89956,-0.44939 1.79865,-0.90496 2.70683,-1.37088 -0.39356,0.99979 -0.7762,1.99346 -1.15304,2.98144 2.17903,2.62861 3.4311,5.99985 3.36397,9.5623 1.03588,0.50741 2.08767,1.01987 3.15178,1.5266 -1.1586,0.36307 -2.31143,0.72831 -3.44001,1.09549 -0.66879,3.3166 -2.43016,6.14418 -4.83844,8.18942 0.27846,1.2711 0.57074,2.57706 0.87096,3.88107 -1.0786,-0.76412 -2.16184,-1.51726 -3.21774,-2.2483 -2.69016,1.50027 -5.8725,2.16509 -9.13965,1.70904 -0.7397,0.95281 -1.48877,1.92222 -2.23559,2.90534 z"
       style="fill:none;stroke:#ffffff;stroke-width:1.5;stroke-linecap:square;stroke-miterlimit:4;stroke-opacity:1;stroke-dasharray:none"
       inkscape:connector-curvature="0" />
    <path
       inkscape:connector-curvature="0"
       style="fill:none;stroke:#ffffff;stroke-width:1.5;stroke-linecap:square;stroke-miterlimit:4;stroke-opacity:1;stroke-dasharray:none"
       d="m 669.23513,617.85483 c -19.84343,-5.31635 -31.61133,-25.76619 -26.28997,-45.67585 5.32142,-19.90971 25.71876,-31.7423 45.56112,-26.42626 19.84245,5.31593 31.61114,25.76609 26.28987,45.67582 -5.32135,19.90977 -25.71873,31.74223 -45.56102,26.42629 z m 2.73552,-10.89183 c 0.0545,0.0138 0.10936,0.0284 0.16417,0.043 5.95013,1.594 11.96901,0.9827 17.19961,-1.33214 -0.81639,-2.33334 -1.3587,-5.50855 -1.81114,-8.74626 2.46552,2.0919 4.82797,4.23765 6.3355,6.17932 4.8024,-3.39748 8.4934,-8.4353 10.13414,-14.57348 0.0115,-0.0391 0.0209,-0.0786 0.0324,-0.11831 -2.32581,-0.75703 -5.15664,-2.29965 -7.97474,-3.95685 3.1849,-0.70007 6.34748,-1.29803 8.79174,-1.30677 0.33133,-6.1868 -1.56183,-12.16482 -5.12083,-16.95681 -2.03837,1.32984 -4.87485,2.59307 -7.78696,3.77954 1.41352,-2.83679 2.88738,-5.5978 4.35669,-7.55154 -2.9581,-2.67862 -6.56739,-4.71904 -10.68371,-5.82187 -1.75495,-0.46968 -3.51285,-0.74475 -5.25783,-0.84425 -0.26884,2.46016 -1.1182,5.54057 -2.06941,8.63263 -1.32037,-2.99223 -2.54275,-5.98295 -3.06936,-8.41257 -6.05903,0.87246 -11.62261,3.8843 -15.69303,8.43248 1.87281,1.69493 3.88678,4.55324 5.84364,7.51647 -3.46804,-0.86186 -6.85397,-1.8362 -9.05826,-3.07609 -1.09125,1.91284 -1.95777,3.99593 -2.55353,6.2249 -1.07645,4.02896 -1.14392,8.092 -0.37162,11.91933 2.48762,-0.48539 5.99562,-0.35469 9.54621,-0.10396 -2.79178,2.20079 -5.61262,4.27076 -7.92624,5.30712 2.37713,5.49981 6.62123,10.13473 12.15807,12.92345 1.27222,-2.15796 3.3959,-4.65004 5.62376,-7.10556 -0.084,3.28067 -0.26048,6.51552 -0.80894,8.94913 z m 0.80886,-8.94931 c 0.0301,-1.16786 0.062,-2.32549 0.0793,-3.47046 -3.50245,-1.46588 -6.1967,-4.19329 -7.68267,-7.48758 -0.74947,-0.0606 -1.49738,-0.11364 -2.25237,-0.16694 0.56205,-0.44328 1.11432,-0.88439 1.66951,-1.33054 -0.83847,-2.58139 -0.97201,-5.42087 -0.21998,-8.23464 0.40146,-1.50215 1.02832,-2.89024 1.82828,-4.13043 -0.2765,-0.42554 -0.56054,-0.84462 -0.84052,-1.26854 0.49313,0.12124 0.98271,0.24486 1.47575,0.36281 2.56085,-3.37207 6.5072,-5.48673 10.77246,-5.73683 0.22855,-0.71894 0.44785,-1.4369 0.67098,-2.16219 0.31872,0.72258 0.63265,1.43696 0.95632,2.15098 1.00615,0.0532 2.01454,0.21008 3.02701,0.48085 2.71795,0.72808 5.05481,2.17951 6.85471,4.08263 0.93531,-0.36928 1.87068,-0.74476 2.81601,-1.12975 -0.4792,0.96169 -0.94698,1.91822 -1.4085,2.8696 1.94164,2.80852 2.89512,6.27606 2.51776,9.8191 0.98772,0.59577 1.99084,1.19794 3.00674,1.79549 -1.18584,0.26071 -2.36611,0.52408 -3.5224,0.7915 -0.95531,3.24569 -2.95641,5.909 -5.53378,7.73656 0.16661,1.29054 0.34396,2.617 0.52938,3.94221 -1.00789,-0.85521 -2.02137,-1.6999 -3.00954,-2.52019 -2.81068,1.2601 -6.03885,1.64503 -9.25382,0.90597 -0.81993,0.88471 -1.65064,1.78515 -2.4803,2.69944 z"
       id="path9372"
       inkscape:export-filename="/home/dev/git/slick2dtest/res/svg/sprite-wheel.png"
       inkscape:export-xdpi="900"
       inkscape:export-ydpi="900" />
    <path
       inkscape:connector-curvature="0"
       style="fill:none;stroke:#ffffff;stroke-width:1.5;stroke-linecap:square;stroke-miterlimit:4;stroke-opacity:1;stroke-dasharray:none"
       d="m 666.12974,716.87786 c -19.30457,-7.02559 -29.24537,-28.42325 -22.20902,-47.79336 7.03642,-19.37016 28.38742,-29.37998 47.69095,-22.35479 19.30363,7.02508 29.24519,28.42313 22.20892,47.79332 -7.03635,19.37022 -28.38738,29.37991 -47.69085,22.35483 z m 3.67439,-10.61197 c 0.0531,0.0185 0.10647,0.0378 0.1598,0.0571 5.78856,2.10652 11.83782,2.02212 17.25027,0.17197 -0.60992,-2.39562 -0.87343,-5.60601 -1.04197,-8.87083 2.27382,2.29882 4.44027,4.64231 5.77283,6.70798 5.08024,-2.96599 9.19627,-7.66295 11.36574,-13.63477 0.0149,-0.038 0.0277,-0.0765 0.0426,-0.11504 -2.25098,-0.95686 -4.93659,-2.74033 -7.59953,-4.63684 3.23379,-0.41982 6.43645,-0.73987 8.87218,-0.53554 0.86928,-6.13438 -0.49566,-12.25466 -3.62346,-17.3386 -2.14652,1.14713 -5.08231,2.15833 -8.08674,3.08648 1.65538,-2.7028 3.36427,-5.32485 4.99827,-7.14309 -2.71339,-2.92624 -6.13111,-5.27347 -10.13565,-6.73086 -1.70733,-0.62085 -3.43457,-1.04809 -5.16424,-1.29929 -0.48223,2.42737 -1.59683,5.42203 -2.81392,8.41942 -1.05455,-3.09592 -2.01162,-6.1818 -2.32447,-8.64807 -6.11202,0.34106 -11.91692,2.85654 -16.36825,7.03265 1.71796,1.85171 3.47514,4.87467 5.1663,7.99718 -3.37973,-1.16084 -6.66786,-2.42658 -8.7557,-3.85387 -1.25381,1.81045 -2.29858,3.81009 -3.08635,5.97866 -1.4235,3.91981 -1.84483,7.96151 -1.40904,11.84158 2.52046,-0.26673 6.00372,0.16922 9.51895,0.72845 -2.97297,1.94909 -5.96349,3.76533 -8.35863,4.5961 1.88875,5.68607 5.71274,10.67325 10.98545,13.93392 1.45546,-2.03887 3.78826,-4.33637 6.22165,-6.58838 -0.36961,3.26087 -0.82735,6.46803 -1.58583,8.84458 z m 1.58577,-8.84476 c 0.13177,-1.16079 0.26444,-2.31124 0.38147,-3.45034 -3.36136,-1.76556 -5.80765,-4.71741 -7.00085,-8.12868 -0.74134,-0.12569 -1.48178,-0.24371 -2.22925,-0.36261 0.59855,-0.39261 1.18716,-0.7839 1.77912,-1.17997 -0.6103,-2.64464 -0.49585,-5.48496 0.49855,-8.22248 0.53086,-1.46144 1.27631,-2.78961 2.18132,-3.95536 -0.23836,-0.44802 -0.4848,-0.89026 -0.72676,-1.33697 0.48068,0.16376 0.95763,0.32958 1.43851,0.49005 2.845,-3.13605 6.96064,-4.89871 11.23147,-4.77612 0.29034,-0.69628 0.57138,-1.3924 0.85687,-2.09548 0.25453,0.74761 0.505,1.48663 0.76521,2.22614 0.99768,0.14069 1.98856,0.38486 2.97358,0.74284 2.64415,0.9622 4.84562,2.61177 6.4728,4.66452 0.96394,-0.28635 1.92848,-0.57888 2.90376,-0.88002 -0.56119,0.91627 -1.11056,1.82839 -1.65324,2.73593 1.68947,2.96705 2.33711,6.5045 1.65239,10.00117 0.93203,0.67959 1.87885,1.36689 2.83881,2.05071 -1.20405,0.15637 -2.40278,0.31587 -3.57798,0.48149 -1.23456,3.15008 -3.46016,5.62885 -6.18701,7.22482 0.0535,1.30015 0.11457,2.63702 0.18378,3.97335 -0.92952,-0.9398 -1.86552,-1.86961 -2.77844,-2.7729 -2.90981,1.01034 -6.15924,1.11245 -9.29757,0.096 -0.89391,0.80988 -1.79994,1.63449 -2.70613,2.47299 z"
       id="path9374"
       inkscape:export-filename="/home/dev/git/slick2dtest/res/svg/sprite-wheel.png"
       inkscape:export-xdpi="900"
       inkscape:export-ydpi="900" />
    <path
       inkscape:export-ydpi="900"
       inkscape:export-xdpi="900"
       inkscape:export-filename="/home/dev/git/slick2dtest/res/svg/sprite-wheel.png"
       id="path9376"
       d="m 663.12131,815.63395 c -18.61879,-8.68136 -26.65683,-30.86399 -17.95904,-49.54713 8.69787,-18.68319 30.84003,-26.79406 49.45782,-18.11318 18.6179,8.68077 26.65667,30.86385 17.95895,49.54708 -8.6978,18.68325 -30.83999,26.79399 -49.45773,18.11323 z m 4.58531,-10.25134 c 0.0513,0.0231 0.10277,0.0469 0.15421,0.0708 5.58294,2.60301 11.61654,3.04616 17.16964,1.67478 -0.39881,-2.43967 -0.38151,-5.66081 -0.26486,-8.92789 2.06481,2.48825 4.01877,5.01164 5.16622,7.18559 5.31941,-2.51193 9.82915,-6.83228 12.51084,-12.5923 0.0182,-0.0366 0.0343,-0.0738 0.0525,-0.11089 -2.15902,-1.1494 -4.67897,-3.16015 -7.16649,-5.28154 3.25808,-0.13637 6.47644,-0.17608 8.8851,0.23976 1.40061,-6.03527 0.57429,-12.25122 -2.09852,-17.58842 -2.23833,0.95568 -5.25108,1.70716 -8.32497,2.36993 1.88465,-2.54824 3.81556,-5.01138 5.60181,-6.68028 -2.44802,-3.1516 -5.64816,-5.78777 -9.51045,-7.58863 -1.64672,-0.76729 -3.33015,-1.34345 -5.03134,-1.74444 -0.69196,2.3761 -2.06332,5.26222 -3.53702,8.14213 -0.78071,-3.17605 -1.46518,-6.3336 -1.56189,-8.81775 -6.11849,-0.19294 -12.12054,1.80704 -16.9189,5.5793 1.55003,1.99439 3.03706,5.159 4.44964,8.41702 -3.2657,-1.45098 -6.431,-2.99849 -8.3865,-4.60231 -1.40683,1.69428 -2.6219,3.59525 -3.59568,5.68691 -1.75971,3.78083 -2.5317,7.77043 -2.43574,11.67372 2.53412,-0.0461 5.96613,0.69183 9.41924,1.55531 -3.13153,1.68256 -6.26896,3.23125 -8.7274,3.8501 1.38599,5.82905 4.76077,11.13054 9.72923,14.83835 1.62762,-1.90426 4.15178,-3.9897 6.77219,-6.02106 -0.65241,3.21625 -1.38793,6.37131 -2.35065,8.67271 z m 2.3506,-8.67289 c 0.23244,-1.14489 0.46487,-2.2794 0.68074,-3.40397 -3.19469,-2.0518 -5.3744,-5.20563 -6.26575,-8.70791 -0.72756,-0.18982 -1.4549,-0.37193 -2.18916,-0.55552 0.63049,-0.33895 1.25096,-0.67745 1.87519,-1.02042 -0.37748,-2.68777 -0.0159,-5.50731 1.21329,-8.14774 0.65621,-1.40961 1.51458,-2.66776 2.51775,-3.75019 -0.19841,-0.46709 -0.40537,-0.92913 -0.60747,-1.39523 0.46458,0.20503 0.92526,0.41179 1.39032,0.61356 3.1075,-2.87616 7.36111,-4.27341 11.605,-3.77906 0.34992,-0.66832 0.69056,-1.3373 1.03624,-2.01282 0.18841,0.76695 0.37351,1.52498 0.56828,2.28436 0.98162,0.22711 1.94745,0.55671 2.89752,0.99918 2.55023,1.18899 4.59955,3.02415 6.04163,5.21091 0.98523,-0.20125 1.9716,-0.4086 2.96941,-0.62359 -0.63891,0.86387 -1.26569,1.72464 -1.8854,2.58143 1.42445,3.103 1.76131,6.68344 0.77444,10.10712 0.86926,0.75824 1.75257,1.52545 2.64928,2.29033 -1.2131,0.0508 -2.42117,0.10525 -3.60633,0.16782 -1.50441,3.03049 -3.93758,5.30585 -6.79315,6.65809 -0.06,1.29987 -0.1157,2.63697 -0.16322,3.97425 -0.84407,-1.01724 -1.69547,-2.02509 -2.52619,-3.00451 -2.9868,0.75289 -6.23276,0.57141 -9.27056,-0.7147 -0.96109,0.72889 -1.93555,1.4714 -2.91137,2.22773 z"
       style="fill:none;stroke:#ffffff;stroke-width:1.5;stroke-linecap:square;stroke-miterlimit:4;stroke-opacity:1;stroke-dasharray:none"
       inkscape:connector-curvature="0" />
    <path
       inkscape:export-ydpi="900"
       inkscape:export-xdpi="900"
       inkscape:export-filename="/home/dev/git/slick2dtest/res/svg/frames-wheel/frame01.png"
       id="path9378"
       d="m 760.23275,114.13258 c -17.79131,-10.27106 -23.86542,-33.069845 -13.57239,-50.92383 10.29312,-17.854008 33.05793,-24.004201 50.84829,-13.733722 17.79047,10.270391 23.86527,33.069691 13.5723,50.923772 -10.29306,17.85409 -33.05789,24.00415 -50.8482,13.73378 z m 5.46132,-9.8127 c 0.0491,0.0275 0.0983,0.0557 0.14743,0.0841 5.33483,3.07969 11.30685,4.04702 16.95834,3.16483 -0.18466,-2.46513 0.11332,-5.67251 0.51427,-8.916987 1.84008,2.658737 3.56669,5.342827 4.5203,7.608497 5.5181,-2.03875 10.38721,-5.94961 13.56072,-11.453975 0.0212,-0.03482 0.0405,-0.07041 0.062,-0.1059 -2.05061,-1.333241 -4.38575,-3.55593 -6.67891,-5.886051 3.25758,0.14812 6.46714,0.389065 8.83039,1.013247 1.9213,-5.890245 1.63987,-12.154555 -0.5576,-17.704402 -2.3131,0.75697 -5.37989,1.243022 -8.49985,1.635355 2.09958,-2.374296 4.23782,-4.659747 6.16272,-6.166635 -2.16401,-3.352969 -5.12221,-6.258011 -8.81284,-8.388659 -1.5736,-0.90788 -3.20041,-1.628555 -4.86018,-2.176269 -0.89642,2.306748 -2.51411,5.062357 -4.2332,7.802876 -0.50092,-3.232021 -0.90759,-6.437205 -0.78742,-8.920325 -6.07842,-0.725475 -12.23193,0.743783 -17.3408,4.083492 1.37029,2.121889 2.57588,5.404061 3.69911,8.772787 -3.12679,-1.730095 -6.14518,-3.547566 -7.95346,-5.315727 -1.54915,1.565241 -2.92528,3.353067 -4.07764,5.35189 -2.08253,3.613073 -3.19931,7.520211 -3.4439,11.41702 2.5285,0.175 5.88313,1.209163 9.24783,2.370327 -3.26625,1.403225 -6.52673,2.672586 -9.02974,3.074818 0.87266,5.927655 3.77255,11.503096 8.39896,15.629841 1.7874,-1.755164 4.4837,-3.612673 7.27119,-5.407921 -0.93024,3.147157 -1.93795,6.226101 -3.09759,8.434831 z m 3.09755,-8.435025 c 0.33134,-1.120279 0.66176,-2.230197 0.97482,-3.331673 -3.0037,-2.322438 -4.90025,-5.65423 -5.48296,-9.220878 -0.70826,-0.252463 -1.41695,-0.497326 -2.1324,-0.744217 0.65762,-0.282696 1.30524,-0.565846 1.95698,-0.85309 -0.14178,-2.710449 0.46415,-5.487742 1.91879,-8.010988 0.77657,-1.347059 1.74134,-2.525614 2.83502,-3.516497 -0.15693,-0.4826 -0.32282,-0.960926 -0.48355,-1.442867 0.44494,0.244759 0.88585,0.490885 1.33156,0.732402 3.34634,-2.594369 7.70554,-3.615581 11.89019,-2.753226 0.40684,-0.635281 0.80448,-1.27202 1.20773,-1.914841 0.12085,0.780431 0.23918,1.551721 0.36703,2.325196 0.9581,0.31179 1.89151,0.724331 2.7994,1.247962 2.43689,1.406721 4.31847,3.413532 5.56448,5.71764 0.999,-0.114614 1.99968,-0.235224 3.01246,-0.362415 -0.71178,0.804882 -1.41121,1.60776 -2.10321,2.407273 1.14856,3.215359 1.17209,6.811514 -0.10942,10.136154 0.79987,0.831119 1.61297,1.672408 2.43958,2.512514 -1.21289,-0.05509 -2.42113,-0.106164 -3.60723,-0.147126 -1.76279,2.88784 -4.38503,4.942477 -7.34758,6.040689 -0.17306,1.289685 -0.34511,2.616843 -0.50898,3.944899 -0.75221,-1.086934 -1.51255,-2.165141 -2.25472,-3.213237 -3.04104,0.489711 -6.25887,0.02601 -9.17299,-1.519976 -1.02099,0.642359 -2.05642,1.297109 -3.09445,1.965514 z"
       style="fill:none;stroke:#ffffff;stroke-width:1.5;stroke-linecap:square;stroke-miterlimit:4;stroke-opacity:1;stroke-dasharray:none"
       inkscape:connector-curvature="0" />
    <path
       inkscape:connector-curvature="0"
       style="fill:none;stroke:#ffffff;stroke-width:1.5;stroke-linecap:square;stroke-miterlimit:4;stroke-opacity:1;stroke-dasharray:none"
       d="m 757.48603,212.38517 c -16.82843,-11.78259 -20.89238,-35.02401 -9.08244,-51.91295 11.81004,-16.88899 35.02424,-21.03169 51.85177,-9.24975 16.82765,11.78186 20.89224,35.02384 9.08236,51.91289 -11.80998,16.88905 -35.0242,21.03162 -51.85169,9.24981 z m 6.29577,-9.29938 c 0.0465,0.0317 0.0931,0.0641 0.13957,0.0965 5.04612,3.53294 10.9111,5.01708 16.61798,4.63082 0.0309,-2.47186 0.60727,-5.64106 1.28948,-8.83825 1.60135,2.809 3.08745,5.63336 3.83996,7.97353 5.67479,-1.55006 10.86624,-5.02167 14.50741,-10.22851 0.0242,-0.0329 0.0466,-0.0667 0.071,-0.10008 -1.92656,-1.50692 -4.05913,-3.92464 -6.14048,-6.44575 3.23225,0.43146 6.40862,0.95122 8.70848,1.77899 2.42734,-5.70036 2.69297,-11.96536 0.98756,-17.68561 -2.37028,0.55247 -5.46776,0.76939 -8.61004,0.88831 2.29853,-2.18226 4.62781,-4.27268 6.67673,-5.60605 -1.86356,-3.52881 -4.55732,-6.68063 -8.04822,-9.12482 -1.48846,-1.04158 -3.04626,-1.9013 -4.65197,-2.59162 -1.09406,2.21985 -2.94575,4.82399 -4.89716,7.40424 -0.21733,-3.26336 -0.3431,-6.4918 -0.007,-8.95501 -5.99204,-1.25247 -12.2502,-0.32512 -17.6307,2.5566 1.18016,2.23326 2.09507,5.60801 2.92044,9.06183 -2.96413,-1.99603 -5.81262,-4.06967 -7.4599,-5.98869 -1.67968,1.42424 -3.20638,3.08533 -4.52859,4.97612 -2.3895,3.41783 -3.84255,7.21276 -4.42585,11.07341 2.50362,0.39465 5.75536,1.71733 9.00606,3.16732 -3.37613,1.11321 -6.73482,2.09356 -9.26337,2.27611 0.35273,5.98117 2.75565,11.78814 7.00476,16.30239 1.93358,-1.5927 4.78152,-3.20814 7.71486,-4.75362 -1.201,3.0541 -2.47321,6.03351 -3.82094,8.13277 z m 3.82093,-8.13295 c 0.42771,-1.08713 0.85361,-2.16405 1.26148,-3.23404 -2.78986,-2.57538 -4.38879,-6.0598 -4.65844,-9.66365 -0.68355,-0.31328 -1.36822,-0.61893 -2.05944,-0.92723 0.67977,-0.22432 1.34959,-0.44993 2.0239,-0.6793 0.095,-2.71248 0.94067,-5.4264 2.60969,-7.81327 0.89102,-1.27424 1.95483,-2.36422 3.13072,-3.25601 -0.11428,-0.49445 -0.23788,-0.98541 -0.35596,-1.47952 0.42192,0.28259 0.8397,0.56621 1.26265,0.84566 3.55973,-2.29285 7.99135,-2.93023 12.08493,-1.70646 0.46065,-0.5974 0.91228,-1.19706 1.37001,-1.80229 0.0524,0.78801 0.10303,1.56667 0.16298,2.34833 0.92727,0.39411 1.82118,0.88643 2.67999,1.48715 2.30501,1.61377 4.00453,3.77691 5.04497,6.18086 1.00522,-0.0271 2.0126,-0.06 3.03259,-0.0985 -0.77922,0.7398 -1.54594,1.47865 -2.30502,2.21482 0.86398,3.30321 0.57399,6.88774 -0.99241,10.08804 0.72439,0.89767 1.46106,1.80661 2.21132,2.71558 -1.20349,-0.1606 -2.40265,-0.31678 -3.58068,-0.46096 -2.00779,2.72321 -4.79911,4.54149 -7.84611,5.37732 -0.28481,1.2697 -0.57185,2.57682 -0.85087,3.88553 -0.6546,-1.14835 -1.31805,-2.28874 -1.96607,-3.39753 -3.07217,0.2228 -6.2373,-0.5196 -9.00562,-2.31366 -1.07306,0.55092 -2.16165,1.11295 -3.25398,1.68833 z"
       id="path9380"
       inkscape:export-filename="/home/dev/git/slick2dtest/res/svg/frames-wheel/frame02.png"
       inkscape:export-xdpi="900"
       inkscape:export-ydpi="900" />
    <path
       inkscape:connector-curvature="0"
       style="fill:none;stroke:#ffffff;stroke-width:1.5;stroke-linecap:square;stroke-miterlimit:4;stroke-opacity:1;stroke-dasharray:none"
       d="m 854.90206,310.40502 c -15.73747,-13.20445 -17.76033,-36.71163 -4.52337,-52.507 13.23708,-15.79541 36.724,-17.89909 52.46063,-4.69537 15.73676,13.20365 17.76021,36.71144 4.52329,52.50693 -13.23701,15.79547 -36.72394,17.89902 -52.46055,4.69544 z m 7.08231,-8.71529 c 0.0436,0.0356 0.0872,0.072 0.13063,0.1083 4.719,3.9593 10.43231,5.94896 16.15114,6.06155 0.24622,-2.45976 1.09661,-5.56666 2.05488,-8.69223 1.35043,2.93788 2.58472,5.88101 3.1304,8.27786 5.7883,-1.04957 11.26256,-4.0555 15.34368,-8.92518 0.027,-0.0307 0.0522,-0.0624 0.0795,-0.0935 -1.7879,-1.6691 -3.70163,-4.26348 -5.55533,-6.9564 3.18234,0.71153 6.30132,1.50615 8.52029,2.53121 2.91492,-5.46711 3.72557,-11.68512 2.5252,-17.53224 -2.40941,0.34379 -5.51401,0.28992 -8.6547,0.13452 2.47998,-1.97363 4.98259,-3.85308 7.13993,-5.0028 -1.54892,-3.6778 -3.95773,-7.05241 -7.22232,-9.79155 -1.39201,-1.16734 -2.86896,-2.15956 -4.40839,-2.9872 -1.28337,2.11605 -3.35498,4.54889 -5.52385,6.94925 0.0679,-3.26989 0.22401,-6.497 0.77351,-8.92155 -5.86008,-1.76994 -12.17525,-1.39156 -17.78643,1.01026 0.98103,2.32762 1.59833,5.76926 2.11953,9.28188 -2.77888,-2.24678 -5.4358,-4.56079 -6.90956,-6.61608 -1.79742,1.27243 -3.46308,2.79414 -4.94505,4.56249 -2.67829,3.19657 -4.45657,6.85042 -5.37412,10.64554 2.45967,0.61144 5.58378,2.21241 8.69574,3.9402 -3.46031,0.81472 -6.89166,1.49861 -9.4265,1.46009 -0.16991,5.98915 1.71776,11.98345 5.55726,16.85086 2.06503,-1.41812 5.04293,-2.7792 8.09981,-4.06314 -1.46262,2.93781 -2.98966,5.795 -4.51522,7.76881 z m 4.51522,-7.76898 c 0.52083,-1.04572 1.03897,-2.08142 1.53855,-3.11179 -2.55479,-2.80873 -3.84395,-6.41925 -3.79847,-10.03289 -0.65365,-0.37166 -1.30907,-0.73582 -1.97079,-1.10319 0.69673,-0.16422 1.38367,-0.33059 2.0754,-0.50032 0.33105,-2.69388 1.41003,-5.32377 3.28073,-7.55609 0.99869,-1.19173 2.15345,-2.18485 3.40259,-2.97076 -0.0707,-0.50253 -0.15109,-1.00239 -0.22566,-1.50491 0.39569,0.31828 0.78716,0.63724 1.18414,0.95249 3.74602,-1.97388 8.21633,-2.22259 12.18767,-0.6467 0.51097,-0.55498 1.01314,-1.11299 1.52188,-1.67603 -0.0165,0.78958 -0.0339,1.56969 -0.0423,2.3536 0.88939,0.47343 1.73699,1.04179 2.54018,1.71507 2.15559,1.80852 3.66011,4.11156 4.48707,6.59704 1.00376,0.0606 2.01017,0.11564 3.02964,0.16618 -0.84074,0.66907 -1.66893,1.33829 -2.48929,2.0055 0.5728,3.36594 -0.0285,6.91155 -1.86786,9.96315 0.6434,0.95739 1.29804,1.92708 1.96623,2.89798 -1.18492,-0.26488 -2.3659,-0.52498 -3.52688,-0.77128 -2.2375,2.53785 -5.17667,4.10594 -8.28492,4.67302 -0.39439,1.24005 -0.79426,2.51718 -1.18628,3.79659 -0.55202,-1.20103 -1.11356,-2.39491 -1.66247,-3.55596 -3.0799,-0.0458 -6.16828,-1.06124 -8.76971,-3.08975 -1.11699,0.4553 -2.25042,0.92032 -3.38874,1.39831 z"
       id="path9382"
       inkscape:export-filename="/home/dev/git/slick2dtest/res/svg/wheel.png"
       inkscape:export-xdpi="900"
       inkscape:export-ydpi="900" />
    <path
       inkscape:export-ydpi="900"
       inkscape:export-xdpi="900"
       inkscape:export-filename="/home/dev/git/slick2dtest/res/svg/wheel.png"
       id="path9384"
       d="m 852.50051,408.20719 c -14.52674,-14.52581 -14.49312,-38.11984 0.0701,-52.70143 14.56337,-14.58162 38.14426,-14.63027 52.67023,-0.10526 14.5261,14.52496 14.49301,38.11965 -0.0702,52.70136 -14.5633,14.58168 -38.14419,14.63021 -52.67015,0.10533 z m 7.81494,-8.06486 c 0.0403,0.0393 0.0806,0.0793 0.1207,0.11927 4.35597,4.35553 9.87412,6.83556 15.56138,7.44615 0.45966,-2.42894 1.5776,-5.4499 2.80464,-8.48006 1.08924,3.0444 2.06232,6.08391 2.39702,8.5192 5.85775,-0.5411 11.57317,-3.05847 16.06318,-7.55393 0.0296,-0.0282 0.0574,-0.0576 0.0873,-0.0862 -1.63562,-1.81857 -3.31596,-4.56987 -4.9279,-7.4141 3.10822,0.98618 6.14607,2.04961 8.26726,3.26417 3.38032,-5.19226 4.72982,-11.31595 4.04363,-17.24544 -2.43021,0.13249 -5.5183,-0.19176 -8.63349,-0.6203 2.64255,-1.74998 5.29944,-3.40416 7.54878,-4.36148 -1.22249,-3.7988 -3.32801,-7.37051 -6.34145,-10.38375 -1.28497,-1.28422 -2.66982,-2.40139 -4.13126,-3.36005 -1.46291,1.99614 -3.73868,4.23917 -6.1085,6.44137 0.35263,-3.25153 0.78941,-6.45276 1.54813,-8.82019 -5.68352,-2.27394 -12.00763,-2.44741 -17.80679,-0.54377 0.77443,2.40426 1.08942,5.88661 1.30249,9.43129 -2.57248,-2.48043 -5.01761,-5.0172 -6.30664,-7.19311 -1.90148,1.11093 -3.69342,2.48168 -5.32388,4.11413 -2.94669,2.95098 -5.03666,6.43594 -6.28149,10.13665 2.39702,0.82349 5.36971,2.69065 8.31924,4.68309 -3.51815,0.51003 -6.99604,0.89226 -9.51788,0.63296 -0.69125,5.95155 0.6668,12.08756 4.06746,17.27108 2.18077,-1.23274 5.26597,-2.3291 8.42312,-3.34173 -1.71311,2.79916 -3.48336,5.51238 -5.17514,7.34572 z m 5.17515,-7.34589 c 0.60999,-0.99635 1.21643,-1.98295 1.80391,-2.96585 -2.30027,-3.02071 -3.26985,-6.72985 -2.90959,-10.32577 -0.61877,-0.42722 -1.23996,-0.84712 -1.86714,-1.27076 0.70839,-0.10287 1.40721,-0.20874 2.1111,-0.31753 0.56458,-2.65478 1.86867,-5.18062 3.92681,-7.24141 1.09875,-1.10015 2.33567,-1.98885 3.64856,-2.6629 -0.0266,-0.50678 -0.0631,-1.01174 -0.0936,-1.51885 0.36644,0.35156 0.72862,0.70342 1.09662,1.05207 3.9038,-1.63988 8.37877,-1.49803 12.19765,0.41799 0.5574,-0.50834 1.10629,-1.02046 1.66217,-1.53701 -0.0853,0.78513 -0.17058,1.56076 -0.24727,2.34095 0.84474,0.54915 1.63958,1.18922 2.38103,1.92994 1.98977,1.98951 3.28784,4.41491 3.89503,6.96301 0.99466,0.14785 1.99244,0.2904 3.00363,0.4296 -0.89586,0.59325 -1.77922,1.18774 -2.65461,1.78091 0.27726,3.40305 -0.63077,6.88277 -2.7291,9.76244 0.55751,1.00983 1.12515,2.03288 1.70617,3.05832 -1.15732,-0.36714 -2.31114,-0.72918 -3.44623,-1.07573 -2.45018,2.33318 -5.51483,3.63914 -8.66068,3.93316 -0.50096,1.20096 -1.01062,2.43838 -1.51266,3.67875 -0.44524,-1.24457 -0.90059,-2.48285 -1.34622,-3.68732 -3.06419,-0.31406 -6.05231,-1.5948 -8.46705,-3.84232 -1.15242,0.35621 -2.32207,0.72068 -3.49771,1.09764 z"
       style="fill:none;stroke:#ffffff;stroke-width:1.5;stroke-linecap:square;stroke-miterlimit:4;stroke-opacity:1;stroke-dasharray:none"
       inkscape:connector-curvature="0" />
    <path
       inkscape:export-ydpi="900"
       inkscape:export-xdpi="900"
       inkscape:export-filename="/home/dev/git/slick2dtest/res/svg/wheel.png"
       id="path9386"
       d="m 885.37374,518.54927 c -20.23104,3.56795 -39.53886,-9.99257 -43.13025,-30.28575 -3.59135,-20.29325 9.89423,-39.63751 30.12418,-43.20529 20.22998,-3.56792 39.53864,9.99256 43.13015,30.28577 3.59147,20.29328 -9.89424,39.63744 -30.12408,43.20527 z m -2.12386,-11.02744 c 0.0552,-0.0107 0.11112,-0.0205 0.16694,-0.0305 6.0663,-1.06998 11.26292,-4.16767 15.02515,-8.47621 -1.726,-1.76969 -3.55942,-4.41822 -5.33777,-7.16137 3.11859,0.85393 6.16653,1.80022 8.3534,2.92285 2.91661,-5.10873 4.13273,-11.23443 3.02563,-17.49091 -0.007,-0.0401 -0.0145,-0.08 -0.0203,-0.12097 -2.42783,0.29678 -5.64538,0.0951 -8.89981,-0.21586 2.59065,-1.98046 5.20421,-3.85896 7.41577,-4.89987 -2.31437,-5.74718 -6.55659,-10.36502 -11.80732,-13.20394 -1.28536,2.0667 -3.32223,4.41033 -5.46007,6.71635 0.0822,-3.1684 0.25113,-6.29359 0.75708,-8.68524 -3.81298,-1.17752 -7.94642,-1.50142 -12.14317,-0.76129 -1.78902,0.31601 -3.49846,0.80963 -5.12199,1.45694 0.79607,2.34327 1.32812,5.49402 1.77278,8.69839 -2.46124,-2.15388 -4.83302,-4.34779 -6.33709,-6.32721 -5.12263,3.35137 -8.89208,8.43229 -10.65899,14.27458 2.41364,0.74465 5.4469,2.48401 8.47273,4.3426 -3.50735,0.68453 -6.98781,1.23245 -9.50958,1.0403 -0.18061,2.19482 -0.0856,4.44894 0.31647,6.72084 0.72711,4.10641 2.38307,7.8173 4.70053,10.95965 2.04942,-1.49123 5.28397,-2.85533 8.60787,-4.12862 -1.60012,3.17444 -3.28186,6.24262 -4.94073,8.15965 4.47873,3.9799 10.28398,6.38694 16.48064,6.5744 0.24102,-2.49345 1.11253,-5.64953 2.09392,-8.81653 1.31031,3.00882 2.51749,6.01516 3.04893,8.45255 z m -3.04904,-8.45267 c -0.46629,-1.07116 -0.92661,-2.1338 -1.39485,-3.17879 -3.79382,0.15166 -7.38828,-1.18157 -10.12726,-3.53922 -0.70485,0.26186 -1.40512,0.52982 -2.1119,0.80058 0.32206,-0.63927 0.63616,-1.27246 0.95078,-1.91143 -1.85086,-1.98519 -3.1719,-4.5022 -3.67949,-7.37015 -0.27101,-1.53107 -0.28944,-3.05405 -0.0886,-4.51611 -0.43042,-0.26882 -0.86497,-0.5286 -1.29787,-0.79448 0.49816,-0.0985 0.99412,-0.19337 1.4908,-0.29485 0.89582,-4.13839 3.57873,-7.72272 7.33868,-9.75196 -0.0967,-0.74817 -0.20136,-1.49154 -0.30567,-2.24317 0.59425,0.52016 1.18067,1.03494 1.77579,1.54528 0.93435,-0.377 1.91457,-0.66097 2.94663,-0.84342 2.77099,-0.48879 5.50231,-0.16094 7.93786,0.80319 0.69162,-0.72995 1.38066,-1.46557 2.07473,-2.214 -0.0279,1.0741 -0.0476,2.13872 -0.0638,3.196 2.94665,1.72482 5.27625,4.46451 6.43159,7.83507 1.14696,0.12253 2.3106,0.24435 3.48383,0.35657 -0.96455,0.73743 -1.92293,1.47494 -2.85787,2.20598 0.5059,3.34531 -0.18217,6.6048 -1.74569,9.35037 0.6964,1.09921 1.41772,2.22644 2.14584,3.34913 -1.2749,-0.34913 -2.55041,-0.68635 -3.79265,-1.01218 -2.0148,2.32989 -4.77785,4.04305 -8.00393,4.73192 -0.36922,1.14835 -0.74156,2.31549 -1.1071,3.49475 z"
       style="fill:none;stroke:#ffffff;stroke-width:1.5;stroke-linecap:square;stroke-miterlimit:4;stroke-opacity:1;stroke-dasharray:none"
       inkscape:connector-curvature="0" />
    <path
       inkscape:connector-curvature="0"
       style="fill:none;stroke:#ffffff;stroke-width:1.5;stroke-linecap:square;stroke-miterlimit:4;stroke-opacity:1;stroke-dasharray:none"
       d="m 885.37374,618.54927 c -20.23104,3.56795 -39.53886,-9.99257 -43.13025,-30.28575 -3.59135,-20.29325 9.89423,-39.63751 30.12418,-43.20529 20.22998,-3.56792 39.53864,9.99256 43.13015,30.28577 3.59147,20.29328 -9.89424,39.63744 -30.12408,43.20527 z m -2.12386,-11.02744 c 0.0552,-0.0107 0.11112,-0.0205 0.16694,-0.0305 6.0663,-1.06998 11.26292,-4.16767 15.02515,-8.47621 -1.726,-1.76969 -3.55942,-4.41822 -5.33777,-7.16137 3.11859,0.85393 6.16653,1.80022 8.3534,2.92285 2.91661,-5.10873 4.13273,-11.23443 3.02563,-17.49091 -0.007,-0.0401 -0.0145,-0.08 -0.0203,-0.12097 -2.42783,0.29678 -5.64538,0.0951 -8.89981,-0.21586 2.59065,-1.98046 5.20421,-3.85896 7.41577,-4.89987 -2.31437,-5.74718 -6.55659,-10.36502 -11.80732,-13.20394 -1.28536,2.0667 -3.32223,4.41033 -5.46007,6.71635 0.0822,-3.1684 0.25113,-6.29359 0.75708,-8.68524 -3.81298,-1.17752 -7.94642,-1.50142 -12.14317,-0.76129 -1.78902,0.31601 -3.49846,0.80963 -5.12199,1.45694 0.79607,2.34327 1.32812,5.49402 1.77278,8.69839 -2.46124,-2.15388 -4.83302,-4.34779 -6.33709,-6.32721 -5.12263,3.35137 -8.89208,8.43229 -10.65899,14.27458 2.41364,0.74465 5.4469,2.48401 8.47273,4.3426 -3.50735,0.68453 -6.98781,1.23245 -9.50958,1.0403 -0.18061,2.19482 -0.0856,4.44894 0.31647,6.72084 0.72711,4.10641 2.38307,7.8173 4.70053,10.95965 2.04942,-1.49123 5.28397,-2.85533 8.60787,-4.12862 -1.60012,3.17444 -3.28186,6.24262 -4.94073,8.15965 4.47873,3.9799 10.28398,6.38694 16.48064,6.5744 0.24102,-2.49345 1.11253,-5.64953 2.09392,-8.81653 1.31031,3.00882 2.51749,6.01516 3.04893,8.45255 z m -3.04904,-8.45267 c -0.46629,-1.07116 -0.92661,-2.1338 -1.39485,-3.17879 -3.79382,0.15166 -7.38828,-1.18157 -10.12726,-3.53922 -0.70485,0.26186 -1.40512,0.52982 -2.1119,0.80058 0.32206,-0.63927 0.63616,-1.27246 0.95078,-1.91143 -1.85086,-1.98519 -3.1719,-4.5022 -3.67949,-7.37015 -0.27101,-1.53107 -0.28944,-3.05405 -0.0886,-4.51611 -0.43042,-0.26882 -0.86497,-0.5286 -1.29787,-0.79448 0.49816,-0.0985 0.99412,-0.19337 1.4908,-0.29485 0.89582,-4.13839 3.57873,-7.72272 7.33868,-9.75196 -0.0967,-0.74817 -0.20136,-1.49154 -0.30567,-2.24317 0.59425,0.52016 1.18067,1.03494 1.77579,1.54528 0.93435,-0.377 1.91457,-0.66097 2.94663,-0.84342 2.77099,-0.48879 5.50231,-0.16094 7.93786,0.80319 0.69162,-0.72995 1.38066,-1.46557 2.07473,-2.214 -0.0279,1.0741 -0.0476,2.13872 -0.0638,3.196 2.94665,1.72482 5.27625,4.46451 6.43159,7.83507 1.14696,0.12253 2.3106,0.24435 3.48383,0.35657 -0.96455,0.73743 -1.92293,1.47494 -2.85787,2.20598 0.5059,3.34531 -0.18217,6.6048 -1.74569,9.35037 0.6964,1.09921 1.41772,2.22644 2.14584,3.34913 -1.2749,-0.34913 -2.55041,-0.68635 -3.79265,-1.01218 -2.0148,2.32989 -4.77785,4.04305 -8.00393,4.73192 -0.36922,1.14835 -0.74156,2.31549 -1.1071,3.49475 z"
       id="path9388"
       inkscape:export-filename="/home/dev/git/slick2dtest/res/svg/wheel.png"
       inkscape:export-xdpi="900"
       inkscape:export-ydpi="900" />
    <path
       inkscape:connector-curvature="0"
       style="fill:none;stroke:#ffffff;stroke-width:1.5;stroke-linecap:square;stroke-miterlimit:4;stroke-opacity:1;stroke-dasharray:none"
       d="m 885.37374,718.54927 c -20.23104,3.56793 -39.53886,-9.99257 -43.13025,-30.28575 -3.59135,-20.29325 9.89423,-39.63751 30.12418,-43.20529 20.22998,-3.56792 39.53864,9.99256 43.13015,30.28577 3.59147,20.29328 -9.89424,39.63744 -30.12408,43.20527 z m -2.12386,-11.02744 c 0.0552,-0.0107 0.11112,-0.0205 0.16694,-0.0305 6.0663,-1.06998 11.26292,-4.16767 15.02515,-8.47621 -1.726,-1.76969 -3.55942,-4.41822 -5.33777,-7.16137 3.11859,0.85393 6.16653,1.80022 8.3534,2.92285 2.91661,-5.10873 4.13273,-11.23443 3.02563,-17.49091 -0.007,-0.0401 -0.0145,-0.08 -0.0203,-0.12097 -2.42783,0.29678 -5.64538,0.0951 -8.89981,-0.21586 2.59065,-1.98046 5.20421,-3.85896 7.41577,-4.89987 -2.31437,-5.74718 -6.55659,-10.36502 -11.80732,-13.20394 -1.28536,2.0667 -3.32223,4.41033 -5.46007,6.71635 0.0822,-3.1684 0.25113,-6.29359 0.75708,-8.68524 -3.81298,-1.17752 -7.94642,-1.50142 -12.14317,-0.76129 -1.78902,0.31601 -3.49846,0.80963 -5.12199,1.45694 0.79607,2.34327 1.32812,5.49402 1.77278,8.69839 -2.46124,-2.15388 -4.83302,-4.34779 -6.33709,-6.32721 -5.12263,3.35137 -8.89208,8.43229 -10.65899,14.27458 2.41364,0.74465 5.4469,2.48401 8.47273,4.3426 -3.50735,0.68453 -6.98781,1.23245 -9.50958,1.0403 -0.18061,2.19482 -0.0856,4.44894 0.31647,6.72084 0.72711,4.10641 2.38307,7.8173 4.70053,10.95965 2.04942,-1.49123 5.28397,-2.85533 8.60787,-4.12862 -1.60012,3.17444 -3.28186,6.24262 -4.94073,8.15965 4.47873,3.9799 10.28398,6.38694 16.48064,6.5744 0.24102,-2.49345 1.11253,-5.64953 2.09392,-8.81653 1.31031,3.00882 2.51749,6.01516 3.04893,8.45255 z m -3.04904,-8.45267 c -0.46629,-1.07116 -0.92661,-2.1338 -1.39485,-3.17879 -3.79382,0.15166 -7.38828,-1.18157 -10.12726,-3.53922 -0.70485,0.26186 -1.40512,0.52982 -2.1119,0.80058 0.32206,-0.63927 0.63616,-1.27246 0.95078,-1.91143 -1.85086,-1.98519 -3.1719,-4.5022 -3.67949,-7.37015 -0.27101,-1.53107 -0.28944,-3.05405 -0.0886,-4.51611 -0.43042,-0.26882 -0.86497,-0.5286 -1.29787,-0.79448 0.49816,-0.0985 0.99412,-0.19337 1.4908,-0.29485 0.89582,-4.13839 3.57873,-7.72272 7.33868,-9.75196 -0.0967,-0.74817 -0.20136,-1.49154 -0.30567,-2.24317 0.59425,0.52016 1.18067,1.03494 1.77579,1.54528 0.93435,-0.377 1.91457,-0.66097 2.94663,-0.84342 2.77099,-0.48879 5.50231,-0.16094 7.93786,0.80319 0.69162,-0.72995 1.38066,-1.46557 2.07473,-2.214 -0.0279,1.0741 -0.0476,2.13872 -0.0638,3.196 2.94665,1.72482 5.27625,4.46451 6.43159,7.83507 1.14696,0.12253 2.3106,0.24435 3.48383,0.35657 -0.96455,0.73743 -1.92293,1.47494 -2.85787,2.20598 0.5059,3.34531 -0.18217,6.6048 -1.74569,9.35037 0.6964,1.09921 1.41772,2.22644 2.14584,3.34913 -1.2749,-0.34913 -2.55041,-0.68635 -3.79265,-1.01218 -2.0148,2.32989 -4.77785,4.04305 -8.00393,4.73192 -0.36922,1.14835 -0.74156,2.31549 -1.1071,3.49475 z"
       id="path9390"
       inkscape:export-filename="/home/dev/git/slick2dtest/res/svg/wheel.png"
       inkscape:export-xdpi="900"
       inkscape:export-ydpi="900" />
    <path
       inkscape:export-ydpi="900"
       inkscape:export-xdpi="900"
       inkscape:export-filename="/home/dev/git/slick2dtest/res/svg/wheel.png"
       id="path9392"
       d="m 885.37374,818.5493 c -20.23104,3.5679 -39.53886,-9.9926 -43.13025,-30.2858 -3.59135,-20.2932 9.89423,-39.6375 30.12418,-43.2053 20.22998,-3.5679 39.53864,9.9926 43.13015,30.2858 3.59147,20.2933 -9.89424,39.6374 -30.12408,43.2053 z m -2.12386,-11.0275 c 0.0552,-0.011 0.11112,-0.021 0.16694,-0.031 6.0663,-1.0699 11.26292,-4.1676 15.02515,-8.4762 -1.726,-1.7697 -3.55942,-4.4182 -5.33777,-7.1614 3.11859,0.854 6.16653,1.8003 8.3534,2.9229 2.91661,-5.1087 4.13273,-11.2344 3.02563,-17.4909 -0.007,-0.04 -0.0145,-0.08 -0.0203,-0.121 -2.42783,0.2968 -5.64538,0.095 -8.89981,-0.2158 2.59065,-1.9805 5.20421,-3.859 7.41577,-4.8999 -2.31437,-5.7472 -6.55659,-10.365 -11.80732,-13.2039 -1.28536,2.0667 -3.32223,4.4103 -5.46007,6.7163 0.0822,-3.1684 0.25113,-6.2936 0.75708,-8.6852 -3.81298,-1.1776 -7.94642,-1.5015 -12.14317,-0.7613 -1.78902,0.316 -3.49846,0.8096 -5.12199,1.4569 0.79607,2.3433 1.32812,5.494 1.77278,8.6984 -2.46124,-2.1539 -4.83302,-4.3478 -6.33709,-6.3272 -5.12263,3.3514 -8.89208,8.4323 -10.65899,14.2746 2.41364,0.7446 5.4469,2.484 8.47273,4.3426 -3.50735,0.6845 -6.98781,1.2324 -9.50958,1.0403 -0.18061,2.1948 -0.0856,4.4489 0.31647,6.7208 0.72711,4.1064 2.38307,7.8173 4.70053,10.9597 2.04942,-1.4913 5.28397,-2.8554 8.60787,-4.1287 -1.60012,3.1745 -3.28186,6.2427 -4.94073,8.1597 4.47873,3.9799 10.28398,6.3869 16.48064,6.5744 0.24102,-2.4935 1.11253,-5.6495 2.09392,-8.8165 1.31031,3.0088 2.51749,6.0151 3.04893,8.4525 z m -3.04904,-8.4526 c -0.46629,-1.0712 -0.92661,-2.1338 -1.39485,-3.1788 -3.79382,0.1516 -7.38828,-1.1816 -10.12726,-3.5393 -0.70485,0.2619 -1.40512,0.5299 -2.1119,0.8006 0.32206,-0.6392 0.63616,-1.2724 0.95078,-1.9114 -1.85086,-1.9852 -3.1719,-4.5022 -3.67949,-7.3702 -0.27101,-1.531 -0.28944,-3.054 -0.0886,-4.5161 -0.43042,-0.2688 -0.86497,-0.5286 -1.29787,-0.7944 0.49816,-0.099 0.99412,-0.1934 1.4908,-0.2949 0.89582,-4.1384 3.57873,-7.7227 7.33868,-9.752 -0.0967,-0.7481 -0.20136,-1.4915 -0.30567,-2.2431 0.59425,0.5201 1.18067,1.0349 1.77579,1.5453 0.93435,-0.377 1.91457,-0.661 2.94663,-0.8435 2.77099,-0.4887 5.50231,-0.1609 7.93786,0.8032 0.69162,-0.7299 1.38066,-1.4655 2.07473,-2.214 -0.0279,1.0741 -0.0476,2.1387 -0.0638,3.196 2.94665,1.7248 5.27625,4.4645 6.43159,7.8351 1.14696,0.1225 2.3106,0.2443 3.48383,0.3566 -0.96455,0.7374 -1.92293,1.4749 -2.85787,2.2059 0.5059,3.3454 -0.18217,6.6048 -1.74569,9.3504 0.6964,1.0992 1.41772,2.2265 2.14584,3.3491 -1.2749,-0.3491 -2.55041,-0.6863 -3.79265,-1.0121 -2.0148,2.3299 -4.77785,4.043 -8.00393,4.7319 -0.36922,1.1483 -0.74156,2.3155 -1.1071,3.4947 z"
       style="fill:none;stroke:#ffffff;stroke-width:1.5;stroke-linecap:square;stroke-miterlimit:4;stroke-opacity:1;stroke-dasharray:none"
       inkscape:connector-curvature="0" />
  </g>
</svg>
